<svg xmlns="http://www.w3.org/2000/svg" width="24.04" height="23.431" viewBox="0 0 24.04 23.431">
  <path id="Icon_awesome-arrow-left" data-name="Icon awesome-arrow-left" d="M13.815,24.509,12.624,25.7a1.282,1.282,0,0,1-1.819,0L.375,15.275a1.282,1.282,0,0,1,0-1.819L10.805,3.026a1.282,1.282,0,0,1,1.819,0l1.191,1.191a1.289,1.289,0,0,1-.021,1.84l-6.465,6.16h15.42A1.285,1.285,0,0,1,24.037,13.5v1.717a1.285,1.285,0,0,1-1.288,1.288H7.328l6.465,6.16A1.28,1.28,0,0,1,13.815,24.509Z" transform="translate(0.004 -2.647)" fill="#fff"/>
</svg>
