<svg xmlns="http://www.w3.org/2000/svg" width="15.124" height="12.288" viewBox="0 0 15.124 12.288">
  <path id="Icon_awesome-list" data-name="Icon awesome-list" d="M2.363,12.827H.473A.473.473,0,0,0,0,13.3v1.89a.473.473,0,0,0,.473.473h1.89a.473.473,0,0,0,.473-.473V13.3A.473.473,0,0,0,2.363,12.827Zm0-9.452H.473A.473.473,0,0,0,0,3.848v1.89a.473.473,0,0,0,.473.473h1.89a.473.473,0,0,0,.473-.473V3.848A.473.473,0,0,0,2.363,3.375Zm0,4.726H.473A.473.473,0,0,0,0,8.574v1.89a.473.473,0,0,0,.473.473h1.89a.473.473,0,0,0,.473-.473V8.574A.473.473,0,0,0,2.363,8.1Zm12.288,5.2H5.2a.473.473,0,0,0-.473.473v.945a.473.473,0,0,0,.473.473h9.452a.473.473,0,0,0,.473-.473v-.945A.473.473,0,0,0,14.651,13.3Zm0-9.452H5.2a.473.473,0,0,0-.473.473v.945a.473.473,0,0,0,.473.473h9.452a.473.473,0,0,0,.473-.473V4.32A.473.473,0,0,0,14.651,3.848Zm0,4.726H5.2a.473.473,0,0,0-.473.473v.945a.473.473,0,0,0,.473.473h9.452a.473.473,0,0,0,.473-.473V9.046A.473.473,0,0,0,14.651,8.574Z" transform="translate(0 -3.375)" fill="gray"/>
</svg>
