<svg xmlns="http://www.w3.org/2000/svg" width="24.379" height="32.505" viewBox="0 0 24.379 32.505">
  <path id="Icon_awesome-file-alt" data-name="Icon awesome-file-alt" d="M14.221,8.634V0H1.524A1.52,1.52,0,0,0,0,1.524V30.981A1.52,1.52,0,0,0,1.524,32.5H22.855a1.52,1.52,0,0,0,1.524-1.524V10.158H15.745A1.528,1.528,0,0,1,14.221,8.634Zm4.063,14.983a.764.764,0,0,1-.762.762H6.856a.764.764,0,0,1-.762-.762v-.508a.764.764,0,0,1,.762-.762H17.522a.764.764,0,0,1,.762.762Zm0-4.063a.764.764,0,0,1-.762.762H6.856a.764.764,0,0,1-.762-.762v-.508a.764.764,0,0,1,.762-.762H17.522a.764.764,0,0,1,.762.762Zm0-4.571v.508a.764.764,0,0,1-.762.762H6.856a.764.764,0,0,1-.762-.762v-.508a.764.764,0,0,1,.762-.762H17.522A.764.764,0,0,1,18.284,14.983Zm6.095-7.244v.387H16.252V0h.387a1.523,1.523,0,0,1,1.079.444l6.215,6.222A1.519,1.519,0,0,1,24.379,7.739Z" fill="gray"/>
</svg>
