<svg xmlns="http://www.w3.org/2000/svg" width="28.961" height="28.961" viewBox="0 0 28.961 28.961">
  <g id="達成アイコン" transform="translate(-22 -463.125)">
    <g id="Icon_check" transform="translate(22 463.125)">
      <path id="Icon_awesome-check-circle" data-name="Icon awesome-check-circle" d="M29.523,15.043A14.48,14.48,0,1,1,15.043.563,14.48,14.48,0,0,1,29.523,15.043ZM13.368,22.71,24.112,11.967a.934.934,0,0,0,0-1.321L22.79,9.324a.934.934,0,0,0-1.321,0l-8.762,8.762L8.617,14A.934.934,0,0,0,7.3,14L5.974,15.317a.934.934,0,0,0,0,1.321l6.072,6.072a.934.934,0,0,0,1.321,0Z" transform="translate(-0.563 -0.563)" fill="#18b2a6"/>
    </g>
  </g>
</svg>
