<svg xmlns="http://www.w3.org/2000/svg" width="20.873" height="20.344" viewBox="0 0 20.873 20.344">
  <path id="Icon_awesome-arrow-right" data-name="Icon awesome-arrow-right" d="M8.875,4.01,9.909,2.976a1.113,1.113,0,0,1,1.579,0l9.056,9.052a1.113,1.113,0,0,1,0,1.579l-9.056,9.056a1.113,1.113,0,0,1-1.579,0L8.875,21.629a1.119,1.119,0,0,1,.019-1.6l5.614-5.348H1.118A1.115,1.115,0,0,1,0,13.565V12.074a1.115,1.115,0,0,1,1.118-1.118H14.507L8.893,5.608A1.111,1.111,0,0,1,8.875,4.01Z" transform="translate(0 -2.647)" fill="#fff"/>
</svg>
