<?xml version="1.0" encoding="utf-8"?>
<!-- Generator: Adobe Illustrator 16.0.0, SVG Export Plug-In . SVG Version: 6.00 Build 0)  -->
<!DOCTYPE svg PUBLIC "-//W3C//DTD SVG 1.1//EN" "http://www.w3.org/Graphics/SVG/1.1/DTD/svg11.dtd">
<svg version="1.1" id="Layer_1" xmlns="http://www.w3.org/2000/svg" xmlns:xlink="http://www.w3.org/1999/xlink" x="0px" y="0px"
	 width="28.961px" height="28.961px" viewBox="0 0 28.961 28.961" enable-background="new 0 0 28.961 28.961" xml:space="preserve">
<circle fill="#A6A6A6" cx="14.48" cy="14.481" r="14.48"/>
<path id="Icon_metro-cross" fill="#FFFFFF" d="M21.232,18.653L21.232,18.653l-4.172-4.173l4.172-4.172l0,0
	c0.167-0.168,0.167-0.439,0-0.608l-1.972-1.97c-0.168-0.167-0.438-0.167-0.606,0l0,0l-4.174,4.172L10.309,7.73l0,0
	c-0.167-0.167-0.438-0.167-0.608,0L7.73,9.7c-0.167,0.168-0.167,0.44,0,0.608l0,0l4.172,4.172L7.73,18.653l0,0
	c-0.167,0.167-0.167,0.438,0,0.606l1.971,1.972c0.167,0.167,0.439,0.167,0.608,0l0,0l4.171-4.173l4.172,4.173l0,0
	c0.169,0.167,0.44,0.167,0.607,0l1.971-1.972c0.167-0.168,0.167-0.439,0-0.606H21.232z"/>
</svg>
