<svg xmlns="http://www.w3.org/2000/svg" width="27.673" height="36.897" viewBox="0 0 27.673 36.897">
  <path id="Icon_awesome-file-image" data-name="Icon awesome-file-image" d="M27.673,8.788v.437H18.448V0h.437a1.73,1.73,0,0,1,1.223.507l7.058,7.058A1.73,1.73,0,0,1,27.673,8.788Zm-9.8,2.743a1.735,1.735,0,0,1-1.73-1.73V0H1.73A1.73,1.73,0,0,0,0,1.73V35.167A1.73,1.73,0,0,0,1.73,36.9H25.943a1.73,1.73,0,0,0,1.73-1.73V11.53ZM8.11,12.683a3.459,3.459,0,1,1-3.459,3.459A3.459,3.459,0,0,1,8.11,12.683ZM23.1,29.979H4.651l.035-3.494,2.848-2.848a.824.824,0,0,1,1.188.035L11.57,26.52l7.46-7.46a.865.865,0,0,1,1.223,0L23.1,21.908Z" fill="gray"/>
</svg>
