<?xml version="1.0" encoding="utf-8"?>
<!-- Generator: Adobe Illustrator 16.0.0, SVG Export Plug-In . SVG Version: 6.00 Build 0)  -->
<!DOCTYPE svg PUBLIC "-//W3C//DTD SVG 1.1//EN" "http://www.w3.org/Graphics/SVG/1.1/DTD/svg11.dtd">
<svg version="1.1" id="Layer_1" xmlns="http://www.w3.org/2000/svg" xmlns:xlink="http://www.w3.org/1999/xlink" x="0px" y="0px"
	 width="24.914px" height="16.986px" viewBox="0 0 24.914 16.986" enable-background="new 0 0 24.914 16.986" xml:space="preserve">
<path id="Icon_material-remove-red-eye" fill="#D0D0D0" d="M12.457,0C6.954,0.003,2.013,3.372,0,8.493
	c2.7,6.88,10.466,10.269,17.346,7.568c3.466-1.36,6.208-4.103,7.568-7.568C22.9,3.372,17.96,0.003,12.457,0z M12.457,14.155
	c-3.127,0-5.662-2.535-5.662-5.662s2.535-5.662,5.662-5.662s5.662,2.535,5.662,5.662l0,0C18.117,11.62,15.584,14.154,12.457,14.155z
	 M12.457,5.096c-1.878,0-3.4,1.521-3.4,3.399s1.522,3.4,3.4,3.4s3.4-1.522,3.4-3.4c0.004-1.874-1.513-3.396-3.386-3.399
	C12.466,5.096,12.462,5.096,12.457,5.096z"/>
</svg>
