<svg xmlns="http://www.w3.org/2000/svg" width="16.709" height="16.709" viewBox="0 0 16.709 16.709">
  <path id="Icon_metro-cross" data-name="Icon metro-cross" d="M19.127,15.351h0l-5.069-5.069,5.069-5.069h0a.523.523,0,0,0,0-.738L16.732,2.081a.524.524,0,0,0-.738,0h0L10.925,7.15,5.856,2.081h0a.523.523,0,0,0-.738,0L2.723,4.475a.523.523,0,0,0,0,.738h0l5.069,5.069L2.723,15.351h0a.523.523,0,0,0,0,.738l2.394,2.394a.523.523,0,0,0,.738,0h0l5.069-5.069,5.069,5.069h0a.523.523,0,0,0,.738,0l2.394-2.394a.523.523,0,0,0,0-.738Z" transform="translate(-2.571 -1.928)" fill="#fff"/>
</svg>
