<svg xmlns="http://www.w3.org/2000/svg" width="28.961" height="28.961" viewBox="0 0 28.961 28.961">
  <path id="Icon_awesome-exclamation-circle" data-name="Icon awesome-exclamation-circle" d="M29.523,15.043A14.48,14.48,0,1,1,15.043.563,14.48,14.48,0,0,1,29.523,15.043Zm-14.48,2.919a2.686,2.686,0,1,0,2.686,2.686A2.686,2.686,0,0,0,15.043,17.962Zm-2.55-9.654.433,7.941a.7.7,0,0,0,.7.662H16.46a.7.7,0,0,0,.7-.662l.433-7.941a.7.7,0,0,0-.7-.739h-3.7A.7.7,0,0,0,12.493,8.308Z" transform="translate(-0.563 -0.563)" fill="#c31b29"/>
</svg>
