<svg xmlns="http://www.w3.org/2000/svg" width="19.553" height="19.553" viewBox="0 0 19.553 19.553">
  <path id="Icon_material-account-circle" data-name="Icon material-account-circle" d="M12.776,3a9.776,9.776,0,1,0,9.776,9.776A9.78,9.78,0,0,0,12.776,3Zm0,2.933A2.933,2.933,0,1,1,9.843,8.866,2.929,2.929,0,0,1,12.776,5.933Zm0,13.882a7.039,7.039,0,0,1-5.866-3.148c.029-1.945,3.911-3.011,5.866-3.011s5.836,1.066,5.866,3.011A7.039,7.039,0,0,1,12.776,19.815Z" transform="translate(-3 -3)" fill="#252645"/>
</svg>
