<svg xmlns="http://www.w3.org/2000/svg" width="24.59" height="21.072" viewBox="0 0 24.59 21.072">
  <path id="Icon_ionic-md-eye-off" data-name="Icon ionic-md-eye-off" d="M14.548,8.934a5.574,5.574,0,0,1,5.592,5.548,5.337,5.337,0,0,1-.4,2.03L23,19.75a13.118,13.118,0,0,0,3.836-5.268A13.242,13.242,0,0,0,10.086,6.936l2.415,2.4A5.529,5.529,0,0,1,14.548,8.934ZM3.369,5.91,5.921,8.44l.516.51A13.056,13.056,0,0,0,2.25,14.482a13.262,13.262,0,0,0,17.192,7.386l.472.466,3.276,3.238,1.421-1.41L4.785,4.5Zm6.179,6.13,1.734,1.718a3.143,3.143,0,0,0-.088.719A3.336,3.336,0,0,0,14.548,17.8a3.154,3.154,0,0,0,.724-.088l1.734,1.718a5.563,5.563,0,0,1-8.05-4.961A5.481,5.481,0,0,1,9.548,12.04Zm4.818-.862,3.523,3.5.022-.176a3.336,3.336,0,0,0-3.353-3.325Z" transform="translate(-2.25 -4.5)" fill="gray"/>
</svg>
