<svg xmlns="http://www.w3.org/2000/svg" width="23.48" height="23.48" viewBox="0 0 23.48 23.48">
  <path id="Icon_awesome-align-justify" data-name="Icon awesome-align-justify" d="M22.641,22.376H.839A.839.839,0,0,0,0,23.214v1.677a.839.839,0,0,0,.839.839h21.8a.839.839,0,0,0,.839-.839V23.214A.839.839,0,0,0,22.641,22.376Zm0-6.709H.839A.839.839,0,0,0,0,16.506v1.677a.839.839,0,0,0,.839.839h21.8a.839.839,0,0,0,.839-.839V16.506A.839.839,0,0,0,22.641,15.667Zm0-6.709H.839A.839.839,0,0,0,0,9.8v1.677a.839.839,0,0,0,.839.839h21.8a.839.839,0,0,0,.839-.839V9.8A.839.839,0,0,0,22.641,8.959Zm0-6.709H.839A.839.839,0,0,0,0,3.089V4.766A.839.839,0,0,0,.839,5.6h21.8a.839.839,0,0,0,.839-.839V3.089A.839.839,0,0,0,22.641,2.25Z" transform="translate(0 -2.25)" fill="gray"/>
</svg>
