<svg xmlns="http://www.w3.org/2000/svg" width="18.771" height="21.453" viewBox="0 0 18.771 21.453">
  <path id="Icon_awesome-calendar-alt" data-name="Icon awesome-calendar-alt" d="M0,19.442a2.012,2.012,0,0,0,2.011,2.011H16.76a2.012,2.012,0,0,0,2.011-2.011V8.045H0Zm13.408-8.212a.5.5,0,0,1,.5-.5h1.676a.5.5,0,0,1,.5.5v1.676a.5.5,0,0,1-.5.5H13.911a.5.5,0,0,1-.5-.5Zm0,5.363a.5.5,0,0,1,.5-.5h1.676a.5.5,0,0,1,.5.5v1.676a.5.5,0,0,1-.5.5H13.911a.5.5,0,0,1-.5-.5ZM8.045,11.229a.5.5,0,0,1,.5-.5h1.676a.5.5,0,0,1,.5.5v1.676a.5.5,0,0,1-.5.5H8.548a.5.5,0,0,1-.5-.5Zm0,5.363a.5.5,0,0,1,.5-.5h1.676a.5.5,0,0,1,.5.5v1.676a.5.5,0,0,1-.5.5H8.548a.5.5,0,0,1-.5-.5ZM2.682,11.229a.5.5,0,0,1,.5-.5H4.86a.5.5,0,0,1,.5.5v1.676a.5.5,0,0,1-.5.5H3.184a.5.5,0,0,1-.5-.5Zm0,5.363a.5.5,0,0,1,.5-.5H4.86a.5.5,0,0,1,.5.5v1.676a.5.5,0,0,1-.5.5H3.184a.5.5,0,0,1-.5-.5ZM16.76,2.682H14.749V.67a.672.672,0,0,0-.67-.67H12.738a.672.672,0,0,0-.67.67V2.682H6.7V.67A.672.672,0,0,0,6.034,0H4.693a.672.672,0,0,0-.67.67V2.682H2.011A2.012,2.012,0,0,0,0,4.693V6.7H18.771V4.693A2.012,2.012,0,0,0,16.76,2.682Z" fill="#252645"/>
</svg>
