<svg xmlns="http://www.w3.org/2000/svg" width="26" height="26" viewBox="0 0 26 26">
  <path id="Icon_awesome-align-left" data-name="Icon awesome-align-left" d="M.745,20.821H15.97a.744.744,0,0,0,.745-.745V17.852a.744.744,0,0,0-.745-.745H.745A.744.744,0,0,0,0,17.852v2.225a.744.744,0,0,0,.745.745Zm0-14.857H15.97a.744.744,0,0,0,.745-.745V2.995a.744.744,0,0,0-.745-.745H.745A.744.744,0,0,0,0,2.995V5.22a.744.744,0,0,0,.745.745ZM25.071,9.679H.929A.929.929,0,0,0,0,10.607v1.857a.929.929,0,0,0,.929.929H25.071A.929.929,0,0,0,26,12.464V10.607A.929.929,0,0,0,25.071,9.679Zm0,14.857H.929A.929.929,0,0,0,0,25.464v1.857a.929.929,0,0,0,.929.929H25.071A.929.929,0,0,0,26,27.321V25.464A.929.929,0,0,0,25.071,24.536Z" transform="translate(0 -2.25)"/>
</svg>
