<svg xmlns="http://www.w3.org/2000/svg" width="22.338" height="22.338" viewBox="0 0 22.338 22.338">
  <path id="Icon_material-account-box" data-name="Icon material-account-box" d="M4.5,6.982V24.356a2.481,2.481,0,0,0,2.482,2.482H24.356a2.489,2.489,0,0,0,2.482-2.482V6.982A2.489,2.489,0,0,0,24.356,4.5H6.982A2.481,2.481,0,0,0,4.5,6.982Zm14.892,4.964a3.723,3.723,0,1,1-3.723-3.723A3.718,3.718,0,0,1,19.392,11.946ZM8.223,21.874c0-2.482,4.964-3.847,7.446-3.847s7.446,1.365,7.446,3.847v1.241H8.223Z" transform="translate(-4.5 -4.5)" fill="#252645"/>
</svg>
