<svg xmlns="http://www.w3.org/2000/svg" width="27.808" height="37.078" viewBox="0 0 27.808 37.078">
  <path id="Icon_awesome-file-upload" data-name="Icon awesome-file-upload" d="M16.222,9.849V0H1.738A1.734,1.734,0,0,0,0,1.738v33.6a1.734,1.734,0,0,0,1.738,1.738H26.07a1.734,1.734,0,0,0,1.738-1.738V11.587H17.96A1.743,1.743,0,0,1,16.222,9.849Zm4.72,15.643h-4.72v5.793a1.158,1.158,0,0,1-1.159,1.159H12.746a1.158,1.158,0,0,1-1.159-1.159V25.492H6.867a1.159,1.159,0,0,1-.816-1.981l6.983-6.93a1.235,1.235,0,0,1,1.741,0l6.983,6.93A1.158,1.158,0,0,1,20.942,25.492ZM27.3,7.6l-7.09-7.1A1.737,1.737,0,0,0,18.981,0h-.442V9.269h9.269V8.828A1.732,1.732,0,0,0,27.3,7.6Z" fill="gray"/>
</svg>
