<svg xmlns="http://www.w3.org/2000/svg" width="26.676" height="26" viewBox="0 0 26.676 26">
  <path id="Icon_awesome-arrow-right" data-name="Icon awesome-arrow-right" d="M11.342,4.389l1.322-1.322a1.423,1.423,0,0,1,2.018,0L26.256,14.635a1.423,1.423,0,0,1,0,2.018L14.682,28.228a1.423,1.423,0,0,1-2.018,0l-1.322-1.322a1.431,1.431,0,0,1,.024-2.042l7.174-6.835H1.429A1.425,1.425,0,0,1,0,16.6V14.695a1.425,1.425,0,0,1,1.429-1.429H18.54L11.366,6.431A1.42,1.42,0,0,1,11.342,4.389Z" transform="translate(0 -2.647)" fill="#fff"/>
</svg>
