<?xml version="1.0" encoding="utf-8"?>
<!-- Generator: Adobe Illustrator 24.2.3, SVG Export Plug-In . SVG Version: 6.00 Build 0)  -->
<svg version="1.1" id="Layer_1" xmlns="http://www.w3.org/2000/svg" xmlns:xlink="http://www.w3.org/1999/xlink" x="0px" y="0px"
	 viewBox="0 0 500 500" style="enable-background:new 0 0 500 500;" xml:space="preserve">
<style type="text/css">
	.st0{fill:#EBEBEB;}
	.st1{fill:#F5F5F5;}
	.st2{fill:#407BFF;}
	.st3{opacity:0.1;}
	.st4{opacity:0.4;fill:#FFFFFF;enable-background:new    ;}
	.st5{opacity:5.000000e-02;enable-background:new    ;}
	.st6{opacity:0.2;fill:#FFFFFF;enable-background:new    ;}
	.st7{opacity:0.3;enable-background:new    ;}
	.st8{fill:#263238;}
	.st9{opacity:0.2;enable-background:new    ;}
	.st10{fill:#E0E0E0;}
	.st11{fill:#F0F0F0;}
	.st12{fill:#FFFFFF;}
	.st13{opacity:0.3;fill:#263238;enable-background:new    ;}
	.st14{opacity:0.2;fill:#727375;enable-background:new    ;}
	.st15{opacity:0.1;enable-background:new    ;}
	.st16{opacity:0.5;fill:#407BFF;enable-background:new    ;}
	.st17{fill:#FFE400;}
	.st18{opacity:0.5;fill:#FFFFFF;enable-background:new    ;}
	.st19{opacity:0.5;}
</style>
<g id="freepik--background-complete--inject-2">
	<rect y="382.4" class="st0" width="500" height="0.3"/>
	<rect x="400.7" y="393" class="st0" width="33.1" height="0.3"/>
	<rect x="304.4" y="392.9" class="st0" width="8.7" height="0.3"/>
	<rect x="430.7" y="398.5" class="st0" width="19.2" height="0.3"/>
	<rect x="71.4" y="401.8" class="st0" width="43.2" height="0.3"/>
	<rect x="104.6" y="390.9" class="st0" width="6.3" height="0.3"/>
	<rect x="187.6" y="392" class="st0" width="60.9" height="0.3"/>
	<path class="st0" d="M237,337.8H43.9c-3.1,0-5.7-2.6-5.7-5.7V60.7c0-3.1,2.6-5.7,5.7-5.7H237c3.2,0,5.7,2.6,5.7,5.7c0,0,0,0,0,0
		v271.4C242.7,335.2,240.2,337.8,237,337.8z M43.9,55.2c-3,0-5.5,2.4-5.5,5.5v271.4c0,3,2.4,5.5,5.5,5.5H237c3,0,5.5-2.4,5.5-5.5
		V60.7c0-3-2.4-5.5-5.5-5.5H43.9z"/>
	<path class="st0" d="M453.3,337.8H260.2c-3.2,0-5.7-2.6-5.7-5.7V60.7c0-3.1,2.6-5.7,5.7-5.7h193.1c3.1,0,5.7,2.5,5.7,5.7v271.4
		C459,335.2,456.5,337.8,453.3,337.8z M260.2,55.2c-3,0-5.5,2.4-5.5,5.5v271.4c0,3,2.4,5.5,5.5,5.5h193.1c3,0,5.5-2.4,5.5-5.5V60.7
		c0-3-2.4-5.5-5.5-5.5H260.2z"/>
	<circle class="st1" cx="126.4" cy="114" r="31.5"/>
	<path class="st0" d="M209.1,120.2c7.4-5,16-7.7,24.9-7.8c11.3,0,17.4,5.3,14.9,12.4c2.2-0.6,4.4-0.9,6.6-0.9c7.7,0,11.4,4.1,8.4,9
		c-0.3,0.5-0.6,0.9-1,1.4h-75.9c0.2-1.2,0.6-2.3,1.3-3.3C191.6,125.5,200.5,121,209.1,120.2z"/>
	<path class="st1" d="M309.3,159.4c6.7-4.5,14.6-7,22.6-7.1c10.3,0,15.8,4.9,13.5,11.2c2-0.5,4-0.8,6-0.8c7,0,10.4,3.7,7.6,8.2
		c-0.3,0.4-0.6,0.9-0.9,1.3h-68.9c0.2-1.1,0.5-2.1,1.1-3C293.4,164.2,301.5,160.1,309.3,159.4z"/>
	<path class="st1" d="M109.1,190.6c-0.7-3.3-4.7-5.6-10.9-5.6c-8.1,0-17.2,3.8-21.5,8.8c-1.3-0.5-2.6-0.7-3.9-0.6
		c-5.5,0-11.8,2.9-14,6.5c-0.2,0.3-0.4,0.7-0.5,1h54.3c0.8-0.7,1.4-1.5,2-2.3C116.9,194.4,114.5,191.2,109.1,190.6z"/>
	<path class="st1" d="M433.4,181.2c-0.4-2.1-3-3.6-7-3.6c-5.1,0-10.9,2.4-13.7,5.6c-0.8-0.3-1.7-0.4-2.5-0.4c-3.5,0-7.5,1.9-8.9,4.1
		c-0.1,0.2-0.2,0.4-0.3,0.6h34.6c0.5-0.4,0.9-0.9,1.3-1.5C438.3,183.6,436.8,181.5,433.4,181.2z"/>
	<path class="st0" d="M376.5,108.4c0.4,0,0.8,0,1.1,0.1c4-2.9,8.8-4.5,13.7-4.6c1.2,0,2.3,0.1,3.5,0.4c5.3-3.7,11.6-5.7,18-5.8
		c7.7,0,12,3.5,10.6,8.2c4.1,0.6,5.9,3.2,4,6.3c-0.2,0.4-0.4,0.7-0.7,1h-62l0,0C366.6,110.8,371.9,108.4,376.5,108.4z"/>
	<polygon class="st0" points="233.9,378.4 247.3,374.7 256.5,365.1 290.1,351.9 303.6,337.5 365,331.3 383.3,341 421,353.1 
		443,354.3 467.2,382.4 228.3,382.4 	"/>
	<polygon class="st1" points="271,373.3 257.7,365.2 248.4,343.7 214.9,314.1 201.3,281.8 140,268.1 121.7,289.7 84,316.7 62,319.5 
		37.8,382.4 276.7,382.4 	"/>
</g>
<g id="freepik--Shadow--inject-2">
	<ellipse id="freepik--path--inject-2" class="st1" cx="250" cy="416.2" rx="193.9" ry="11.3"/>
</g>
<g id="freepik--Rock--inject-2">
	<polygon class="st2" points="174.5,404.5 178.4,402.3 183.3,398.1 191.3,401.3 195.3,408.1 196.6,412 171.1,412 171.6,408.2 	"/>
	<g class="st3">
		<polygon points="174.5,404.5 178.4,402.3 183.3,398.1 191.3,401.3 195.3,408.1 196.6,412 171.1,412 171.6,408.2 		"/>
	</g>
	<polygon class="st2" points="165.1,391.6 151.4,384.5 133.9,371 105.8,381 91.7,402.9 86.8,415.6 177,415.6 175.4,403.4 	"/>
	<polygon class="st4" points="105.8,381 126.4,388 133.9,371 	"/>
	<polygon class="st5" points="105.8,381 126.4,388 91.7,402.9 	"/>
	<polygon class="st5" points="150.8,400.3 126.4,388 153.7,391 	"/>
	<polygon class="st4" points="151.4,384.5 153.7,391 165.1,391.6 	"/>
	<polygon class="st2" points="103.7,411.5 108.4,409.6 114.4,406 124,408.7 128.8,414.6 130.4,418.1 99.7,418.1 100.2,414.8 	"/>
	<g class="st3">
		<polygon points="103.7,411.5 108.4,409.6 114.4,406 124,408.7 128.8,414.6 130.4,418.1 99.7,418.1 100.2,414.8 		"/>
	</g>
</g>
<path class="st2" d="M267.1,276.2c12.7-17.6,25.1-25.9,30.2-46.1c18.8-4,56,8.9,65.9-12.6l-28.7-23.3c0,0-50.3,3.9-57.5,18.9
	c-3,6.2-10.5,23.7-20.3,44.3c-3.5,7.5-9.2,17-10.7,22.5l12.4,9.9C262.8,283,264.5,279.8,267.1,276.2z"/>
<path class="st6" d="M267.1,276.2c12.7-17.6,25.1-25.9,30.2-46.1c18.8-4,56,8.9,65.9-12.6l-28.7-23.3c0,0-50.3,3.9-57.5,18.9
	c-3,6.2-10.5,23.7-20.3,44.3c-3.5,7.5-9.2,17-10.7,22.5l12.4,9.9C262.8,283,264.5,279.8,267.1,276.2z"/>
<path class="st2" d="M257.7,299.3l-0.9-0.9l-29.5-16.7c-1.5,0.4-2.4,3.9,1.6,6.1s10.3,5.3,14.4,7.6s7.5,4.2,11.4,6.3
	C255.7,302.4,257.4,301.2,257.7,299.3z"/>
<path class="st7" d="M257.7,299.3l-0.9-0.9l-29.5-16.7c-1.5,0.4-2.4,3.9,1.6,6.1s10.3,5.3,14.4,7.6s7.5,4.2,11.4,6.3
	C255.7,302.4,257.4,301.2,257.7,299.3z"/>
<path class="st8" d="M264.4,288.1c-1.2,3.9-4.1,9.6-6.5,11.2c-0.4,0.8-1.1,0.4-1.9,0c-4.3-2.3-9.1-5.1-13.1-7.4
	c-4.8-2.7-8.1-3.9-13.7-7c-3.4-1.9-2.3-4.3-0.5-4.3c5.3-0.1,10.9,2,17.2,0.4c1.8-4.9,8-23,11.8-28.3c0.3-0.5,0.9-0.7,1.5-0.6
	c8.2,1.2,16.4,7.1,19.4,9.4c0.7,0.5,0.8,1.4,0.4,2.1C275.9,268.3,265.3,284.7,264.4,288.1z"/>
<path class="st8" d="M288,204.4c-6,0.6-13.7,7-15,17.6c6.4-1.8,10.5-4.3,11.9-6.1C287.9,211.9,288,204.4,288,204.4z"/>
<path class="st2" d="M338.4,153.5c-0.4,0.8-0.8,1.4-1.2,2.1s-0.8,1.3-1.1,1.9c-0.8,1.2-1.6,2.4-2.4,3.6c-1.7,2.4-3.4,4.6-5.3,6.8
	c-0.9,1.1-1.9,2.2-2.9,3.3s-2,2.1-3.1,3.1c-2.1,2.1-4.3,4-6.6,5.8l-0.5,0.4c-0.6,0.5-1.3,0.8-2.1,1c-2.7,0.6-5.5,1.1-8.4,1.3
	c-2.7,0.2-5.5,0.2-8.2,0.1c-2.7-0.2-5.4-0.5-8-1c-1.3-0.3-2.6-0.5-3.9-0.9s-2.5-0.7-3.9-1.2c-2-0.7-3.1-2.9-2.4-4.9
	c0.5-1.5,1.9-2.5,3.5-2.6h0.4c1,0,2.3-0.1,3.5-0.1s2.4-0.1,3.6-0.2c2.4-0.2,4.7-0.4,7-0.8s4.5-0.8,6.7-1.2c2.1-0.5,4.2-1.1,6.3-1.9
	l-2.6,1.4c1.7-1.8,3.4-3.5,5.1-5.4s3.2-3.8,4.7-5.9s3-4.1,4.4-6.1c0.7-1,1.4-2.1,2.1-3.1l1-1.6l0.9-1.4l0.2-0.3
	c2.3-3.6,7-4.6,10.6-2.4C339.2,145.5,340.3,149.9,338.4,153.5L338.4,153.5z"/>
<path class="st9" d="M338.4,153.5c-0.4,0.8-0.8,1.4-1.2,2.1s-0.8,1.3-1.1,1.9c-0.8,1.2-1.6,2.4-2.4,3.6c-1.7,2.4-3.4,4.6-5.3,6.8
	c-0.9,1.1-1.9,2.2-2.9,3.3s-2,2.1-3.1,3.1c-2.1,2.1-4.3,4-6.6,5.8l-0.5,0.4c-0.6,0.5-1.3,0.8-2.1,1c-2.7,0.6-5.5,1.1-8.4,1.3
	c-2.7,0.2-5.5,0.2-8.2,0.1c-2.7-0.2-5.4-0.5-8-1c-1.3-0.3-2.6-0.5-3.9-0.9s-2.5-0.7-3.9-1.2c-2-0.7-3.1-2.9-2.4-4.9
	c0.5-1.5,1.9-2.5,3.5-2.6h0.4c1,0,2.3-0.1,3.5-0.1s2.4-0.1,3.6-0.2c2.4-0.2,4.7-0.4,7-0.8s4.5-0.8,6.7-1.2c2.1-0.5,4.2-1.1,6.3-1.9
	l-2.6,1.4c1.7-1.8,3.4-3.5,5.1-5.4s3.2-3.8,4.7-5.9s3-4.1,4.4-6.1c0.7-1,1.4-2.1,2.1-3.1l1-1.6l0.9-1.4l0.2-0.3
	c2.3-3.6,7-4.6,10.6-2.4C339.2,145.5,340.3,149.9,338.4,153.5L338.4,153.5z"/>
<path d="M290.4,170.6c0,0,3,9.8,0.4,13.1c-6.5-1.2-12.9-3-19.2-5.2c0,0-3.1,5-9.7,0.6s0-9.4,5.1-9.7S290.4,170.6,290.4,170.6z"/>
<path class="st2" d="M220.1,264c0,0,12.9-38.8-13.7-63.4c-24.8-22.9-58.6-13.5-65.8-11.1c-0.5,0.2-0.8,0.7-0.6,1.2
	c0.1,0.2,0.2,0.4,0.4,0.5c3,1.8,6.5,2.9,10,3c0,0,32.1-12,55.9,20.4c8.5,11.6,10.5,39.9,10.2,42.5C217.2,259.6,218.5,262,220.1,264z
	"/>
<path class="st2" d="M250.6,210c-2.1-6-3.8-12-4.7-15c-0.3-0.9-1.2-1.4-2.1-1.2c-0.1,0-0.3,0.1-0.4,0.2l-26.1,14.8
	c-0.8,0.5-1.1,1.5-0.6,2.3c0,0.1,0.1,0.1,0.1,0.2l3.1,3.9c0.5,0.7,1.5,0.8,2.3,0.4l0,0c0.8-0.5,1.8-0.3,2.3,0.4
	c0.1,0.2,0.2,0.4,0.3,0.6l1.2,5.5c0.2,0.9,1.1,1.5,2,1.3c0.1,0,0.3-0.1,0.4-0.2l21.3-11.1C250.5,211.6,250.8,210.8,250.6,210z"/>
<path class="st7" d="M250.6,210c-2.1-6-3.8-12-4.7-15c-0.3-0.9-1.2-1.4-2.1-1.2c-0.1,0-0.3,0.1-0.4,0.2l-26.1,14.8
	c-0.8,0.5-1.1,1.5-0.6,2.3c0,0.1,0.1,0.1,0.1,0.2l3.1,3.9c0.5,0.7,1.5,0.8,2.3,0.4l0,0c0.8-0.5,1.8-0.3,2.3,0.4
	c0.1,0.2,0.2,0.4,0.3,0.6l1.2,5.5c0.2,0.9,1.1,1.5,2,1.3c0.1,0,0.3-0.1,0.4-0.2l21.3-11.1C250.5,211.6,250.8,210.8,250.6,210z"/>
<path class="st10" d="M290.9,325.5l-0.7-6c5.7-0.7,10.1-3,12.9-6.9c2.7-3.9,3.8-8.8,2.9-13.5l5.9-1.2c1.2,6.3-0.2,12.9-3.9,18.1
	C304.1,321.4,298.2,324.6,290.9,325.5z"/>
<path class="st11" d="M357.6,322.9c21.9,9.9,31.7,35.6,21.8,57.5c-9.9,21.9-35.6,31.7-57.5,21.8c-21.9-9.8-31.7-35.6-21.9-57.5
	C309.9,322.9,335.7,313.1,357.6,322.9C357.6,322.9,357.6,322.9,357.6,322.9z M327.5,389.9c15.1,6.8,32.9,0.1,39.7-15.1
	s0.1-32.9-15.1-39.7c-15.1-6.8-32.9-0.1-39.7,15.1c0,0,0,0,0,0C305.6,365.4,312.4,383.2,327.5,389.9
	C327.5,390,327.5,390,327.5,389.9L327.5,389.9z"/>
<path class="st8" d="M360.8,315.8c25.9,11.6,37.4,42,25.8,67.8s-42,37.4-67.8,25.8s-37.4-42-25.8-67.8c0,0,0,0,0,0
	C304.6,315.8,335,304.2,360.8,315.8z M325.3,394.9c17.8,8,38.7,0,46.7-17.8c8-17.8,0-38.7-17.8-46.7c-17.8-8-38.7,0-46.7,17.8
	c0,0,0,0,0,0C299.5,366,307.5,386.9,325.3,394.9C325.3,394.9,325.3,394.9,325.3,394.9z"/>
<path class="st8" d="M339.5,414.5c-0.6,0-1-0.4-1-1l0,0c0-0.6,0.4-1,1-1l0,0c0.6,0,1,0.4,1,1l0,0C340.5,414.1,340,414.5,339.5,414.5
	L339.5,414.5z M344.5,413.3c-0.1-0.5,0.3-1,0.9-1.1c0,0,0,0,0,0l0,0c0.5-0.1,1,0.3,1.1,0.9c0,0,0,0,0,0l0,0c0.1,0.5-0.3,1-0.9,1.1
	h-0.1C345,414.2,344.5,413.8,344.5,413.3L344.5,413.3z M333.3,414.1c-0.5-0.1-0.9-0.6-0.9-1.1l0,0c0.1-0.5,0.6-0.9,1.1-0.9
	c0,0,0,0,0,0l0,0c0.5,0.1,0.9,0.6,0.9,1.1c0,0,0,0,0,0l0,0c-0.1,0.5-0.5,0.9-1,0.9L333.3,414.1L333.3,414.1z M350.4,412.4
	c-0.1-0.5,0.2-1.1,0.7-1.2c0,0,0,0,0,0l0,0c0.5-0.1,1.1,0.2,1.2,0.7l0,0c0.1,0.5-0.2,1.1-0.7,1.2c0,0,0,0,0,0l0,0
	c-0.1,0-0.2,0-0.2,0l0,0C350.9,413.1,350.6,412.8,350.4,412.4L350.4,412.4z M327.3,413c-0.5-0.1-0.9-0.7-0.7-1.2c0,0,0,0,0,0l0,0
	c0.1-0.5,0.7-0.9,1.2-0.7l0,0c0.5,0.1,0.9,0.7,0.7,1.2l0,0c-0.1,0.5-0.5,0.8-1,0.8l0,0L327.3,413z M356.3,410.8
	c-0.2-0.5,0.1-1.1,0.6-1.3l0,0c0.5-0.2,1.1,0.1,1.3,0.6l0,0c0.2,0.5-0.1,1.1-0.6,1.3l0,0c-0.1,0-0.2,0.1-0.3,0.1l0,0
	C356.8,411.4,356.4,411.2,356.3,410.8L356.3,410.8z M321.4,411.1L321.4,411.1c-0.5-0.2-0.8-0.8-0.6-1.3c0,0,0,0,0,0l0,0
	c0.2-0.5,0.8-0.8,1.3-0.6c0,0,0,0,0,0l0,0c0.5,0.2,0.8,0.8,0.6,1.3c0,0,0,0,0,0l0,0c-0.1,0.4-0.5,0.7-0.9,0.6l0,0
	C321.7,411.2,321.5,411.2,321.4,411.1L321.4,411.1z M361.8,408.5c-0.3-0.5-0.1-1.1,0.4-1.3c0,0,0,0,0,0l0,0c0.5-0.2,1.1,0,1.3,0.5
	l0,0c0.2,0.5,0.1,1.1-0.4,1.3l0,0c-0.1,0.1-0.3,0.1-0.5,0.1l0,0C362.3,409,362,408.8,361.8,408.5L361.8,408.5z M315.8,408.6
	c-0.5-0.3-0.7-0.9-0.4-1.3c0,0,0,0,0,0l0,0c0.3-0.5,0.9-0.7,1.4-0.4l0,0c0.5,0.3,0.7,0.9,0.4,1.3l0,0c-0.2,0.3-0.5,0.5-0.9,0.5l0,0
	C316.1,408.8,316,408.7,315.8,408.6L315.8,408.6z M367.1,405.6c-0.3-0.5-0.2-1.1,0.3-1.4l0,0c0.5-0.3,1.1-0.2,1.4,0.3c0,0,0,0,0,0
	l0,0c0.3,0.5,0.2,1.1-0.3,1.4l0,0c-0.2,0.1-0.4,0.2-0.5,0.2l0,0C367.6,406,367.3,405.8,367.1,405.6L367.1,405.6z M310.6,405.5
	c-0.5-0.3-0.6-0.9-0.3-1.4c0,0,0,0,0,0l0,0c0.3-0.5,0.9-0.6,1.4-0.3l0,0c0.5,0.3,0.6,0.9,0.3,1.4c0,0,0,0,0,0l0,0
	c-0.2,0.3-0.5,0.4-0.8,0.4l0,0C310.9,405.7,310.7,405.6,310.6,405.5L310.6,405.5z M372,402c-0.4-0.4-0.3-1.1,0.1-1.4c0,0,0,0,0,0
	l0,0c0.4-0.4,1.1-0.3,1.4,0.1c0,0,0,0,0,0l0,0c0.4,0.4,0.3,1.1-0.1,1.4c0,0,0,0,0,0l0,0c-0.2,0.2-0.4,0.2-0.6,0.2l0,0
	C372.5,402.4,372.2,402.2,372,402z M305.7,401.7L305.7,401.7c-0.4-0.4-0.5-1-0.1-1.4l0,0c0.4-0.4,1-0.5,1.4-0.1l0,0
	c0.4,0.4,0.5,1,0.1,1.4l0,0c-0.2,0.2-0.5,0.3-0.8,0.3l0,0C306.1,402,305.9,401.9,305.7,401.7L305.7,401.7z M376.4,398
	c-0.4-0.4-0.4-1,0-1.4l0,0c0.4-0.4,1-0.4,1.4-0.1l0,0c0.4,0.4,0.4,1,0.1,1.4c0,0,0,0,0,0l0,0c-0.2,0.2-0.5,0.3-0.7,0.3l0,0
	C376.8,398.3,376.6,398.2,376.4,398z M301.3,397.5L301.3,397.5c-0.4-0.4-0.3-1,0.1-1.4l0,0c0.4-0.4,1-0.3,1.4,0.1c0,0,0,0,0,0l0,0
	c0.4,0.4,0.3,1-0.1,1.4l0,0c-0.2,0.2-0.4,0.3-0.7,0.3l0,0C301.7,397.8,301.5,397.7,301.3,397.5L301.3,397.5z M380.3,393.4
	c-0.4-0.3-0.5-0.9-0.2-1.4c0,0,0,0,0,0l0,0c0.3-0.4,0.9-0.5,1.4-0.2l0,0c0.4,0.3,0.5,0.9,0.2,1.4l0,0c-0.2,0.3-0.5,0.4-0.8,0.4l0,0
	C380.7,393.6,380.5,393.5,380.3,393.4L380.3,393.4z M297.4,392.7c-0.3-0.4-0.2-1.1,0.2-1.4c0,0,0,0,0,0l0,0c0.5-0.3,1.1-0.2,1.4,0.2
	l0,0c0.3,0.5,0.2,1.1-0.2,1.4l0,0c-0.2,0.1-0.4,0.2-0.6,0.2l0,0C297.9,393.1,297.6,392.9,297.4,392.7L297.4,392.7z M383.6,388.4
	c-0.5-0.3-0.6-0.9-0.4-1.4l0,0c0.3-0.5,0.9-0.6,1.4-0.4l0,0c0.5,0.3,0.6,0.9,0.4,1.3l0,0c-0.2,0.3-0.5,0.5-0.9,0.5l0,0
	C384,388.5,383.8,388.4,383.6,388.4L383.6,388.4z M294.2,387.5L294.2,387.5c-0.3-0.5-0.1-1.1,0.4-1.4c0,0,0,0,0,0l0,0
	c0.5-0.3,1.1-0.1,1.4,0.4c0,0,0,0,0,0l0,0c0.3,0.5,0.1,1.1-0.4,1.4c0,0,0,0,0,0l0,0c-0.1,0.1-0.3,0.1-0.5,0.1l0,0
	C294.7,388,294.4,387.7,294.2,387.5L294.2,387.5z M386.4,383c-0.5-0.2-0.8-0.8-0.5-1.3c0,0,0,0,0,0l0,0c0.2-0.5,0.8-0.8,1.3-0.5
	c0,0,0,0,0,0l0,0c0.5,0.2,0.8,0.8,0.5,1.3c0,0,0,0,0,0l0,0c-0.2,0.4-0.5,0.6-0.9,0.6l0,0C386.7,383.1,386.5,383.1,386.4,383z
	 M291.6,381.9c-0.2-0.5,0-1.1,0.6-1.3c0,0,0,0,0,0l0,0c0.5-0.2,1.1,0,1.3,0.6c0,0,0,0,0,0l0,0c0.2,0.5-0.1,1.1-0.6,1.3l0,0
	c-0.1,0-0.2,0.1-0.4,0.1l0,0C292.1,382.5,291.7,382.2,291.6,381.9L291.6,381.9z M388.5,377.4c-0.5-0.1-0.8-0.7-0.7-1.2c0,0,0,0,0,0
	l0,0c0.1-0.5,0.7-0.8,1.2-0.7c0,0,0,0,0,0l0,0c0.5,0.2,0.8,0.7,0.7,1.2l0,0c-0.1,0.4-0.5,0.7-1,0.7l0,0
	C388.7,377.4,388.6,377.4,388.5,377.4L388.5,377.4z M289.7,376L289.7,376c-0.1-0.5,0.2-1.1,0.7-1.2c0,0,0,0,0,0l0,0
	c0.5-0.1,1.1,0.2,1.2,0.7c0,0,0,0,0,0l0,0c0.1,0.5-0.2,1.1-0.7,1.2c0,0,0,0,0,0l0,0c-0.1,0-0.2,0-0.3,0l0,0
	C290.2,376.7,289.8,376.4,289.7,376z M389.9,371.4c-0.5-0.1-0.9-0.6-0.8-1.1c0,0,0,0,0,0l0,0c0.1-0.5,0.6-0.9,1.1-0.8c0,0,0,0,0,0
	l0,0c0.5,0.1,0.9,0.6,0.8,1.1l0,0c-0.1,0.5-0.5,0.9-1,0.9L389.9,371.4L389.9,371.4z M288.4,370c-0.1-0.5,0.3-1,0.8-1.1l0,0
	c0.5-0.1,1.1,0.3,1.1,0.8c0,0,0,0,0,0l0,0c0.1,0.5-0.3,1.1-0.9,1.1h-0.1C288.9,370.9,288.5,370.5,288.4,370z M390.6,365.5
	c-0.6,0-1-0.4-1-1l0,0c0-0.6,0.4-1,1-1l0,0c0.6,0,1,0.4,1,1l0,0C391.6,365,391.1,365.5,390.6,365.5L390.6,365.5z M287.9,363.9
	L287.9,363.9c0-0.6,0.4-1,1-1l0,0c0.6,0,1,0.4,1,1l0,0c0,0.6-0.4,1-1,1l0,0C288.3,364.9,287.9,364.4,287.9,363.9z M389.5,358.5
	L389.5,358.5c0-0.5,0.4-1,0.9-1.1l0,0c0.5,0,1,0.4,1.1,0.9l0,0c0,0.5-0.4,1-0.9,1.1h-0.1C390,359.4,389.5,359.1,389.5,358.5z
	 M289,358.8c-0.5-0.1-1-0.5-0.9-1.1l0,0c0.1-0.5,0.5-1,1.1-0.9l0,0c0.5,0.1,1,0.5,0.9,1.1l0,0C290.1,358.5,289.6,358.9,289,358.8
	L289,358.8L289,358.8z M388.6,352.7c-0.1-0.5,0.2-1.1,0.8-1.2c0,0,0,0,0,0l0,0c0.5-0.1,1.1,0.2,1.2,0.8c0,0,0,0,0,0l0,0
	c0.1,0.5-0.2,1.1-0.8,1.2c0,0,0,0,0,0l0,0c-0.1,0-0.1,0-0.2,0l0,0C389.2,353.5,388.8,353.1,388.6,352.7L388.6,352.7z M289.8,352.9
	c-0.5-0.1-0.9-0.6-0.8-1.2c0,0,0,0,0,0l0,0c0.1-0.5,0.6-0.9,1.2-0.8c0,0,0,0,0,0l0,0c0.5,0.1,0.9,0.6,0.8,1.2c0,0,0,0,0,0l0,0
	c-0.1,0.5-0.5,0.8-1,0.8l0,0L289.8,352.9z M387.1,347c-0.2-0.5,0.1-1.1,0.6-1.3c0,0,0,0,0,0l0,0c0.5-0.2,1.1,0.1,1.3,0.6l0,0
	c0.2,0.5-0.1,1.1-0.6,1.3l0,0c-0.1,0-0.2,0.1-0.3,0l0,0C387.7,347.7,387.3,347.4,387.1,347z M291.3,347c-0.5-0.2-0.8-0.7-0.6-1.3
	l0,0c0.2-0.5,0.7-0.8,1.3-0.6l0,0c0.5,0.2,0.8,0.7,0.6,1.3c0,0,0,0,0,0l0,0c-0.1,0.4-0.5,0.7-0.9,0.7l0,0
	C291.5,347.1,291.4,347,291.3,347L291.3,347z M385,341.5c-0.2-0.5,0-1.1,0.5-1.3l0,0c0.5-0.2,1.1,0,1.3,0.5l0,0
	c0.2,0.5,0,1.1-0.5,1.3l0,0c-0.1,0.1-0.3,0.1-0.4,0.1l0,0C385.5,342.1,385.2,341.8,385,341.5z M293.6,341.4
	c-0.5-0.2-0.7-0.8-0.5-1.3c0,0,0,0,0,0l0,0c0.2-0.5,0.8-0.7,1.3-0.5l0,0c0.5,0.2,0.7,0.8,0.5,1.3l0,0c-0.2,0.3-0.5,0.6-0.9,0.6l0,0
	C293.8,341.5,293.7,341.5,293.6,341.4L293.6,341.4z M382.2,336.3L382.2,336.3c-0.3-0.5-0.2-1.1,0.3-1.4c0,0,0,0,0,0l0,0
	c0.5-0.3,1.1-0.1,1.4,0.3l0,0c0.3,0.5,0.1,1.1-0.3,1.4l0,0c-0.2,0.1-0.3,0.1-0.5,0.1l0,0C382.7,336.8,382.3,336.6,382.2,336.3
	L382.2,336.3z M296.4,336.1c-0.5-0.3-0.6-0.9-0.3-1.4l0,0c0.3-0.5,0.9-0.6,1.4-0.3c0,0,0,0,0,0l0,0c0.5,0.3,0.6,0.9,0.3,1.4l0,0
	c-0.2,0.3-0.5,0.5-0.8,0.5l0,0C296.7,336.3,296.5,336.2,296.4,336.1L296.4,336.1z M378.8,331.5c-0.3-0.4-0.3-1.1,0.2-1.4l0,0
	c0.4-0.3,1.1-0.3,1.4,0.2l0,0c0.3,0.4,0.3,1.1-0.2,1.4l0,0c-0.2,0.1-0.4,0.2-0.6,0.2l0,0C379.2,331.9,378.9,331.7,378.8,331.5
	L378.8,331.5z M299.8,331.1c-0.4-0.3-0.5-1-0.1-1.4l0,0c0.3-0.4,1-0.5,1.4-0.1c0,0,0,0,0,0l0,0c0.4,0.3,0.5,1,0.1,1.4l0,0
	c-0.2,0.2-0.5,0.4-0.8,0.4l0,0C300.2,331.4,300,331.3,299.8,331.1L299.8,331.1z M374.8,327.1c-0.4-0.4-0.4-1,0-1.4l0,0
	c0.4-0.4,1-0.4,1.4,0c0,0,0,0,0,0l0,0c0.4,0.4,0.4,1,0,1.4l0,0c-0.2,0.2-0.4,0.3-0.7,0.3l0,0C375.2,327.4,375,327.3,374.8,327.1
	L374.8,327.1z M303.8,326.6c-0.4-0.4-0.4-1,0-1.4l0,0c0.4-0.4,1-0.4,1.4,0c0,0,0,0,0,0l0,0c0.4,0.4,0.4,1,0,1.4l0,0
	c-0.2,0.2-0.4,0.3-0.7,0.3l0,0C304.2,326.9,304,326.8,303.8,326.6L303.8,326.6z M370.3,323.2c-0.4-0.3-0.5-1-0.2-1.4c0,0,0,0,0,0
	l0,0c0.3-0.4,1-0.5,1.4-0.2c0,0,0,0,0,0l0,0c0.4,0.3,0.5,1,0.2,1.4c0,0,0,0,0,0l0,0c-0.2,0.2-0.5,0.4-0.8,0.4l0,0
	C370.7,323.4,370.5,323.3,370.3,323.2L370.3,323.2z M308.3,322.6c-0.3-0.4-0.3-1.1,0.2-1.4c0,0,0,0,0,0l0,0c0.4-0.3,1.1-0.2,1.4,0.2
	l0,0c0.3,0.4,0.2,1.1-0.2,1.4l0,0c-0.2,0.1-0.4,0.2-0.6,0.2l0,0C308.8,323,308.5,322.9,308.3,322.6L308.3,322.6z M365.5,319.9
	L365.5,319.9c-0.5-0.3-0.6-0.9-0.4-1.4l0,0c0.3-0.5,0.9-0.6,1.4-0.4l0,0c0.5,0.3,0.6,0.9,0.4,1.4l0,0c-0.2,0.3-0.5,0.5-0.9,0.5l0,0
	C365.8,320,365.6,320,365.5,319.9L365.5,319.9z M313.3,319.2c-0.3-0.5-0.1-1.1,0.4-1.4c0,0,0,0,0,0l0,0c0.5-0.3,1.1-0.1,1.4,0.4l0,0
	c0.3,0.5,0.1,1.1-0.4,1.4c0,0,0,0,0,0l0,0c-0.2,0.1-0.3,0.1-0.5,0.1l0,0C313.8,319.7,313.4,319.5,313.3,319.2L313.3,319.2z
	 M360.3,317.1L360.3,317.1L360.3,317.1h-0.1l0,0c-0.5-0.2-0.7-0.8-0.5-1.3l0,0c0.2-0.5,0.8-0.7,1.3-0.5c0,0,0,0,0,0l0,0h0.1l0,0h0.1
	l0,0c0.5,0.2,0.7,0.8,0.5,1.3c0,0,0,0,0,0l0,0c-0.2,0.4-0.5,0.6-0.9,0.6l0,0C360.5,317.2,360.4,317.2,360.3,317.1L360.3,317.1z
	 M318.6,316.4c-0.2-0.5,0-1.1,0.5-1.3l0,0c0.5-0.2,1.1,0,1.3,0.5l0,0c0.2,0.5,0,1.1-0.5,1.3l0,0c-0.1,0.1-0.3,0.1-0.4,0.1l0,0
	C319.1,317,318.7,316.8,318.6,316.4L318.6,316.4z M354.6,315c-0.5-0.2-0.8-0.7-0.7-1.3l0,0c0.2-0.5,0.7-0.8,1.3-0.7l0,0
	c0.5,0.2,0.8,0.7,0.7,1.3l0,0c-0.1,0.4-0.5,0.7-1,0.7l0,0C354.8,315,354.7,315,354.6,315L354.6,315z M324.3,314.2
	c-0.2-0.5,0.1-1.1,0.7-1.2l0,0c0.5-0.2,1.1,0.1,1.2,0.7l0,0c0.2,0.5-0.1,1.1-0.7,1.2l0,0c-0.1,0-0.2,0-0.3,0l0,0
	C324.8,314.9,324.3,314.6,324.3,314.2L324.3,314.2z M348.9,313.6c-0.5-0.1-0.9-0.6-0.8-1.2l0,0c0.1-0.5,0.6-0.9,1.2-0.8c0,0,0,0,0,0
	l0,0c0.5,0.1,0.9,0.6,0.8,1.2l0,0c-0.1,0.5-0.5,0.8-1,0.8l0,0C349,313.6,348.9,313.6,348.9,313.6L348.9,313.6z M330,312.7
	c-0.1-0.5,0.3-1.1,0.8-1.2c0,0,0,0,0,0l0,0c0.5-0.1,1.1,0.3,1.2,0.8c0,0,0,0,0,0l0,0c0.1,0.5-0.3,1.1-0.8,1.2c0,0,0,0,0,0H331
	C330.5,313.5,330.1,313.2,330,312.7z M342.9,312.9L342.9,312.9c-0.6,0-1-0.5-0.9-1.1c0,0,0,0,0,0l0,0c0-0.5,0.5-1,1.1-0.9l0,0
	c0.5,0,1,0.5,0.9,1.1l0,0C344,312.4,343.5,312.9,342.9,312.9L342.9,312.9L342.9,312.9z M335.9,311.9c0-0.6,0.4-1,0.9-1c0,0,0,0,0,0
	l0,0c0.5,0,1,0.4,1,0.9l0,0c0,0.5-0.4,1-0.9,1h0C336.5,312.8,336,312.4,335.9,311.9L335.9,311.9z"/>
<path class="st8" d="M136.1,321.5c0-0.6,0.4-1,1-1l0,0c0.6,0,1,0.4,1,1l0,0c0,0.6-0.4,1-1,1l0,0
	C136.5,322.5,136.1,322.1,136.1,321.5z M131,322.3c-0.6,0-1-0.5-0.9-1.1c0,0,0,0,0,0l0,0c0-0.5,0.5-1,1.1-0.9l0,0
	c0.5,0,1,0.5,0.9,1.1l0,0C132,321.9,131.6,322.3,131,322.3L131,322.3L131,322.3z M142,321.1c-0.1-0.5,0.3-1.1,0.9-1.1l0,0
	c0.5-0.1,1.1,0.3,1.1,0.9l0,0c0.1,0.5-0.3,1.1-0.9,1.1H143C142.5,322,142.1,321.6,142,321.1L142,321.1z M124.9,321.4L124.9,321.4
	c-0.5-0.1-0.9-0.6-0.8-1.2c0,0,0,0,0,0l0,0c0.1-0.5,0.6-0.9,1.2-0.8c0,0,0,0,0,0l0,0c0.5,0.1,0.9,0.6,0.8,1.2l0,0
	c-0.1,0.5-0.5,0.8-1,0.8l0,0L124.9,321.4z M147.9,320c-0.1-0.5,0.2-1.1,0.7-1.2l0,0c0.5-0.1,1.1,0.2,1.2,0.7c0,0,0,0,0,0l0,0
	c0.1,0.5-0.2,1.1-0.7,1.2c0,0,0,0,0,0l0,0c-0.1,0-0.2,0-0.3,0l0,0C148.4,320.8,148.1,320.5,147.9,320L147.9,320z M119,319.9
	L119,319.9c-0.5-0.2-0.8-0.7-0.7-1.3c0,0,0,0,0,0l0,0c0.2-0.5,0.7-0.8,1.3-0.7c0,0,0,0,0,0l0,0c0.5,0.2,0.8,0.7,0.7,1.3c0,0,0,0,0,0
	l0,0c-0.1,0.4-0.5,0.7-1,0.7l0,0C119.2,320,119.1,319.9,119,319.9z M153.6,318.3c-0.2-0.5,0.1-1.1,0.6-1.3l0,0
	c0.5-0.2,1.1,0.1,1.3,0.6l0,0c0.2,0.5,0,1.1-0.6,1.3c0,0,0,0,0,0l0,0c-0.1,0-0.2,0.1-0.4,0.1l0,0C154.2,319,153.8,318.7,153.6,318.3
	L153.6,318.3z M113.3,317.7c-0.5-0.2-0.7-0.8-0.5-1.3l0,0c0.2-0.5,0.8-0.7,1.3-0.5c0,0,0,0,0,0l0,0c0.5,0.2,0.7,0.8,0.5,1.3l0,0
	c-0.2,0.4-0.5,0.6-0.9,0.6l0,0C113.6,317.8,113.5,317.8,113.3,317.7L113.3,317.7z M159.2,316c-0.3-0.5-0.1-1.1,0.4-1.3c0,0,0,0,0,0
	l0,0c0.5-0.3,1.1-0.1,1.3,0.4c0,0,0,0,0,0l0,0c0.3,0.5,0.1,1.1-0.4,1.3c0,0,0,0,0,0l0,0c-0.1,0.1-0.3,0.1-0.5,0.1l0,0
	C159.7,316.5,159.4,316.3,159.2,316z M107.9,314.9L107.9,314.9c-0.5-0.3-0.6-0.9-0.3-1.4l0,0c0.3-0.5,0.9-0.6,1.4-0.4l0,0
	c0.5,0.3,0.6,0.9,0.3,1.4l0,0c-0.2,0.3-0.5,0.5-0.9,0.5l0,0C108.3,315.1,108.1,315,107.9,314.9z M164.4,313.1
	c-0.3-0.5-0.2-1.1,0.3-1.4c0,0,0,0,0,0l0,0c0.5-0.3,1.1-0.2,1.4,0.3l0,0c0.3,0.5,0.2,1.1-0.3,1.4c0,0,0,0,0,0l0,0
	c-0.2,0.1-0.4,0.2-0.6,0.2l0,0C164.9,313.5,164.6,313.3,164.4,313.1z M102.8,311.6c-0.4-0.3-0.5-1-0.2-1.4l0,0
	c0.3-0.4,1-0.5,1.4-0.2l0,0l0,0c0.4,0.3,0.5,1,0.2,1.4l0,0c-0.2,0.3-0.5,0.4-0.8,0.4l0,0C103.2,311.8,103,311.7,102.8,311.6z
	 M169.3,309.6c-0.4-0.4-0.3-1.1,0.1-1.4c0,0,0,0,0,0l0,0c0.4-0.4,1.1-0.3,1.4,0.1c0,0,0,0,0,0l0,0c0.3,0.4,0.3,1-0.1,1.4l0,0
	c-0.2,0.2-0.4,0.2-0.6,0.2l0,0C169.7,309.9,169.4,309.8,169.3,309.6L169.3,309.6z M98.2,307.6c-0.4-0.4-0.4-1,0-1.4l0,0
	c0.4-0.4,1-0.4,1.4,0l0,0c0.4,0.4,0.4,1,0,1.4l0,0c-0.2,0.2-0.5,0.3-0.7,0.3l0,0C98.6,307.9,98.4,307.8,98.2,307.6L98.2,307.6z
	 M173.7,305.5c-0.4-0.4-0.4-1,0-1.4l0,0c0.4-0.4,1-0.4,1.4,0c0,0,0,0,0,0l0,0c0.4,0.4,0.4,1,0,1.4c0,0,0,0,0,0l0,0
	c-0.2,0.2-0.5,0.3-0.7,0.3l0,0C174.1,305.8,173.9,305.7,173.7,305.5L173.7,305.5z M94,303.2L94,303.2c-0.4-0.4-0.3-1.1,0.1-1.4
	c0,0,0,0,0,0l0,0c0.4-0.4,1.1-0.3,1.4,0.1c0,0,0,0,0,0l0,0c0.4,0.4,0.3,1.1-0.1,1.4c0,0,0,0,0,0l0,0c-0.2,0.2-0.4,0.2-0.7,0.2l0,0
	C94.5,303.5,94.2,303.4,94,303.2z M177.6,301c-0.4-0.3-0.5-1-0.2-1.4l0,0c0.3-0.4,1-0.5,1.4-0.2l0,0c0.4,0.3,0.5,1,0.2,1.4l0,0
	c-0.2,0.3-0.5,0.4-0.8,0.4l0,0C178,301.2,177.8,301.1,177.6,301z M90.3,298.3c-0.3-0.5-0.2-1.1,0.3-1.4c0,0,0,0,0,0l0,0
	c0.5-0.3,1.1-0.2,1.4,0.3l0,0c0.3,0.5,0.2,1.1-0.3,1.4c0,0,0,0,0,0l0,0c-0.2,0.1-0.4,0.2-0.6,0.2l0,0
	C90.8,298.7,90.5,298.6,90.3,298.3L90.3,298.3z M181.1,296.1c-0.5-0.3-0.6-0.9-0.4-1.4l0,0c0.3-0.5,0.9-0.6,1.4-0.4l0,0
	c0.5,0.3,0.6,0.9,0.4,1.4l0,0c-0.2,0.3-0.5,0.5-0.9,0.5l0,0C181.4,296.2,181.2,296.2,181.1,296.1L181.1,296.1z M87.2,293
	c-0.2-0.5-0.1-1.1,0.4-1.3l0,0c0.5-0.3,1.1-0.1,1.3,0.4c0,0,0,0,0,0l0,0c0.2,0.5,0.1,1.1-0.4,1.3l0,0c-0.1,0.1-0.3,0.1-0.5,0.1l0,0
	C87.7,293.6,87.4,293.4,87.2,293L87.2,293z M183.9,290.8c-0.5-0.2-0.7-0.8-0.5-1.3l0,0c0.2-0.5,0.8-0.7,1.3-0.5l0,0
	c0.5,0.2,0.7,0.8,0.5,1.3l0,0c-0.2,0.4-0.5,0.6-0.9,0.6l0,0C184.2,290.9,184,290.9,183.9,290.8L183.9,290.8z M84.7,287.5
	c-0.2-0.5,0.1-1.1,0.6-1.3c0,0,0,0,0,0l0,0c0.5-0.2,1.1,0.1,1.3,0.6l0,0c0.2,0.5-0.1,1.1-0.6,1.3c0,0,0,0,0,0l0,0
	c-0.1,0-0.2,0.1-0.4,0.1l0,0C85.3,288.1,84.9,287.9,84.7,287.5L84.7,287.5z M186.2,285.3c-0.5-0.2-0.8-0.7-0.7-1.3c0,0,0,0,0,0l0,0
	c0.2-0.5,0.7-0.8,1.3-0.7c0,0,0,0,0,0l0,0c0.5,0.2,0.8,0.7,0.6,1.3l0,0c-0.1,0.4-0.5,0.7-0.9,0.7l0,0
	C186.4,285.3,186.3,285.3,186.2,285.3L186.2,285.3z M82.9,281.7L82.9,281.7c-0.1-0.5,0.2-1.1,0.7-1.2c0,0,0,0,0,0l0,0
	c0.5-0.1,1.1,0.2,1.2,0.7l0,0c0.1,0.5-0.2,1.1-0.7,1.2c0,0,0,0,0,0l0,0c-0.1,0-0.2,0-0.3,0l0,0C83.4,282.4,83,282.1,82.9,281.7
	L82.9,281.7z M187.8,279.5c-0.5-0.1-0.9-0.6-0.8-1.2c0,0,0,0,0,0l0,0c0.1-0.5,0.6-0.9,1.2-0.8l0,0c0.5,0.1,0.9,0.6,0.8,1.2
	c0,0,0,0,0,0l0,0c-0.1,0.5-0.5,0.8-1,0.8l0,0L187.8,279.5z M81.7,275.7c-0.1-0.5,0.3-1.1,0.8-1.1c0,0,0,0,0,0l0,0
	c0.5-0.1,1.1,0.3,1.1,0.9l0,0c0.1,0.5-0.3,1.1-0.8,1.1h-0.1C82.2,276.5,81.7,276.2,81.7,275.7z M188.7,273.6c-0.5,0-1-0.5-0.9-1.1
	l0,0c0-0.5,0.5-1,1.1-0.9l0,0c0.5,0,1,0.5,0.9,1.1l0,0C189.8,273.2,189.3,273.6,188.7,273.6L188.7,273.6z M81.1,269.6
	c0-0.6,0.4-1,1-1l0,0c0.6,0,1,0.4,1,1l0,0c0,0.6-0.4,1-1,1l0,0C81.6,270.6,81.2,270.2,81.1,269.6L81.1,269.6z M188,266.6
	c0-0.6,0.4-1,1-1l0,0c0.6,0,1,0.4,1,1l0,0c0,0.6-0.4,1-1,1l0,0C188.5,267.6,188,267.2,188,266.6L188,266.6z M82.2,264.6
	c-0.5,0-1-0.5-0.9-1.1l0,0c0-0.5,0.5-1,1.1-0.9l0,0c0.5,0,1,0.5,0.9,1.1l0,0C83.3,264.2,82.8,264.6,82.2,264.6L82.2,264.6
	L82.2,264.6z M187.5,260.8L187.5,260.8c-0.1-0.5,0.3-1.1,0.9-1.1l0,0c0.5-0.1,1.1,0.3,1.1,0.9l0,0c0.1,0.5-0.3,1.1-0.9,1.1h-0.1
	C188,261.6,187.6,261.3,187.5,260.8L187.5,260.8z M83,258.6c-0.5-0.1-0.9-0.6-0.8-1.2l0,0c0.1-0.5,0.6-0.9,1.2-0.8l0,0
	c0.5,0.1,0.9,0.6,0.8,1.2c0,0,0,0,0,0l0,0c-0.1,0.5-0.5,0.8-1,0.8l0,0C83.1,258.7,83.1,258.7,83,258.6z M186.4,255
	c-0.1-0.5,0.2-1.1,0.7-1.2c0,0,0,0,0,0l0,0c0.5-0.1,1.1,0.2,1.2,0.7l0,0c0.1,0.5-0.2,1.1-0.7,1.2c0,0,0,0,0,0l0,0
	c-0.1,0-0.2,0-0.3,0l0,0C186.9,255.7,186.5,255.4,186.4,255z M84.4,252.8c-0.5-0.2-0.8-0.7-0.6-1.3l0,0c0.2-0.5,0.7-0.8,1.3-0.6l0,0
	c0.5,0.2,0.8,0.7,0.7,1.3c0,0,0,0,0,0l0,0c-0.1,0.4-0.5,0.7-0.9,0.7l0,0C84.6,252.9,84.4,252.8,84.4,252.8L84.4,252.8z M184.6,249.4
	c-0.2-0.5,0.1-1.1,0.6-1.3c0,0,0,0,0,0l0,0c0.5-0.2,1.1,0.1,1.3,0.6c0,0,0,0,0,0l0,0c0.2,0.5-0.1,1.1-0.6,1.3l0,0
	c-0.1,0-0.2,0.1-0.4,0.1l0,0C185.1,250.1,184.7,249.8,184.6,249.4L184.6,249.4z M86.4,247.2c-0.5-0.2-0.7-0.8-0.5-1.3c0,0,0,0,0,0
	l0,0c0.2-0.5,0.8-0.7,1.3-0.5l0,0c0.5,0.2,0.7,0.8,0.5,1.3c0,0,0,0,0,0l0,0c-0.2,0.4-0.5,0.6-0.9,0.6l0,0
	C86.7,247.3,86.5,247.2,86.4,247.2L86.4,247.2z M182.2,244c-0.3-0.5-0.1-1.1,0.4-1.3c0,0,0,0,0,0l0,0c0.5-0.3,1.1-0.1,1.3,0.4
	c0,0,0,0,0,0l0,0c0.3,0.5,0.1,1.1-0.4,1.3c0,0,0,0,0,0l0,0c-0.1,0.1-0.3,0.1-0.5,0.1l0,0C182.7,244.6,182.4,244.4,182.2,244
	L182.2,244z M89,241.8c-0.5-0.3-0.6-0.9-0.4-1.4c0,0,0,0,0,0l0,0c0.3-0.5,0.9-0.6,1.4-0.4c0,0,0,0,0,0l0,0c0.5,0.3,0.6,0.9,0.4,1.4
	c0,0,0,0,0,0l0,0c-0.2,0.3-0.5,0.5-0.9,0.5l0,0C89.3,242,89.2,241.9,89,241.8z M179.2,239c-0.3-0.5-0.2-1.1,0.3-1.4c0,0,0,0,0,0l0,0
	c0.5-0.3,1.1-0.2,1.4,0.3l0,0c0.3,0.5,0.2,1.1-0.3,1.4c0,0,0,0,0,0l0,0c-0.2,0.1-0.4,0.2-0.6,0.2l0,0
	C179.7,239.4,179.4,239.3,179.2,239z M92.2,236.8c-0.4-0.3-0.5-1-0.2-1.4l0,0c0.3-0.4,1-0.5,1.4-0.2l0,0l0,0c0.4,0.3,0.5,1,0.2,1.4
	l0,0c-0.2,0.3-0.5,0.4-0.8,0.4l0,0C92.6,237,92.4,236.9,92.2,236.8L92.2,236.8z M175.6,234.3c-0.4-0.4-0.3-1.1,0.1-1.4c0,0,0,0,0,0
	l0,0c0.4-0.4,1.1-0.3,1.4,0.1c0,0,0,0,0,0l0,0c0.4,0.4,0.3,1.1-0.1,1.4c0,0,0,0,0,0l0,0c-0.2,0.1-0.4,0.2-0.6,0.2l0,0
	C176.1,234.6,175.9,234.5,175.6,234.3L175.6,234.3z M96,232.1c-0.4-0.4-0.4-1,0-1.4l0,0c0.4-0.4,1-0.4,1.4,0c0,0,0,0,0,0l0,0
	c0.4,0.4,0.4,1,0,1.4l0,0c-0.2,0.2-0.5,0.3-0.7,0.3l0,0C96.4,232.4,96.2,232.3,96,232.1z M171.6,230L171.6,230c-0.4-0.4-0.4-1,0-1.4
	c0,0,0,0,0,0l0,0c0.4-0.4,1-0.4,1.4,0c0,0,0,0,0,0l0,0c0.4,0.4,0.4,1,0,1.4l0,0c-0.2,0.2-0.4,0.3-0.7,0.3l0,0
	C172.1,230.3,171.8,230.2,171.6,230L171.6,230z M100.3,227.9c-0.4-0.4-0.3-1.1,0.1-1.4c0,0,0,0,0,0l0,0c0.4-0.4,1.1-0.3,1.4,0.1
	c0,0,0,0,0,0l0,0c0.4,0.4,0.3,1.1-0.1,1.4c0,0,0,0,0,0l0,0c-0.2,0.2-0.4,0.2-0.7,0.2l0,0C100.8,228.3,100.5,228.1,100.3,227.9
	L100.3,227.9z M167.1,226.2c-0.4-0.3-0.5-1-0.2-1.4l0,0c0.3-0.4,1-0.5,1.4-0.2l0,0c0.4,0.3,0.5,1,0.2,1.4c0,0,0,0,0,0l0,0
	c-0.2,0.2-0.5,0.4-0.8,0.4l0,0C167.5,226.4,167.3,226.3,167.1,226.2L167.1,226.2z M105,224.2c-0.3-0.5-0.2-1.1,0.3-1.4c0,0,0,0,0,0
	l0,0c0.5-0.3,1.1-0.2,1.4,0.3c0,0,0,0,0,0l0,0c0.3,0.5,0.2,1.1-0.3,1.4c0,0,0,0,0,0l0,0c-0.2,0.1-0.4,0.2-0.6,0.2l0,0
	C105.5,224.7,105.2,224.5,105,224.2L105,224.2z M162.3,223L162.3,223c-0.5-0.3-0.6-0.9-0.4-1.4c0,0,0,0,0,0l0,0
	c0.3-0.5,0.9-0.6,1.4-0.4l0,0c0.5,0.3,0.6,0.9,0.4,1.4l0,0c-0.2,0.3-0.5,0.5-0.9,0.5l0,0C162.6,223.1,162.4,223.1,162.3,223z
	 M110.1,221.1c-0.3-0.5-0.1-1.1,0.4-1.3c0,0,0,0,0,0l0,0c0.5-0.3,1.1-0.1,1.3,0.4c0,0,0,0,0,0l0,0c0.3,0.5,0.1,1.1-0.4,1.3
	c0,0,0,0,0,0l0,0c-0.1,0.1-0.3,0.1-0.5,0.1l0,0C110.6,221.7,110.3,221.4,110.1,221.1L110.1,221.1z M157.1,220.3L157.1,220.3
	L157.1,220.3h-0.1l0,0c-0.5-0.2-0.7-0.8-0.5-1.3c0,0,0,0,0,0l0,0c0.2-0.5,0.8-0.7,1.3-0.5l0,0h0.1l0,0h0.1l0,0
	c0.5,0.2,0.7,0.8,0.5,1.3l0,0c-0.2,0.4-0.5,0.6-0.9,0.6l0,0C157.3,220.4,157.2,220.3,157.1,220.3L157.1,220.3z M115.5,218.6
	c-0.2-0.5,0.1-1.1,0.6-1.3l0,0c0.5-0.2,1.1,0.1,1.3,0.6c0,0,0,0,0,0l0,0c0.2,0.5-0.1,1.1-0.6,1.3c0,0,0,0,0,0l0,0
	c-0.1,0-0.2,0.1-0.4,0.1l0,0C116,219.2,115.7,218.9,115.5,218.6L115.5,218.6z M151.4,218.1c-0.5-0.2-0.8-0.7-0.7-1.3c0,0,0,0,0,0
	l0,0c0.2-0.5,0.7-0.8,1.3-0.6l0,0c0.5,0.2,0.8,0.7,0.6,1.3l0,0c-0.1,0.4-0.5,0.7-1,0.7l0,0C151.6,218.2,151.5,218.1,151.4,218.1
	L151.4,218.1z M121.2,216.6c-0.1-0.5,0.2-1.1,0.7-1.2l0,0c0.5-0.1,1.1,0.2,1.2,0.7c0,0,0,0,0,0l0,0c0.1,0.5-0.2,1.1-0.7,1.2l0,0
	c-0.1,0-0.2,0-0.3,0l0,0C121.7,217.3,121.3,217,121.2,216.6z M145.7,216.6c-0.5-0.1-0.9-0.6-0.8-1.2c0,0,0,0,0,0l0,0
	c0.1-0.5,0.6-0.9,1.2-0.8l0,0c0.5,0.1,0.9,0.6,0.8,1.2c0,0,0,0,0,0l0,0c-0.1,0.5-0.5,0.8-1,0.8L145.7,216.6L145.7,216.6z M127,215.3
	c-0.1-0.5,0.3-1.1,0.8-1.1l0,0c0.5-0.1,1.1,0.3,1.2,0.8l0,0c0.1,0.5-0.3,1.1-0.9,1.1H128C127.5,216.1,127.1,215.8,127,215.3z
	 M139.9,215.8L139.9,215.8c-0.5,0-1-0.5-0.9-1.1l0,0c0-0.5,0.5-1,1.1-0.9l0,0c0.5,0,1,0.5,0.9,1.1l0,0
	C140.9,215.4,140.5,215.8,139.9,215.8L139.9,215.8L139.9,215.8z M133,214.7c0-0.6,0.4-1,1-1l0,0c0.6,0,1,0.4,1,1l0,0
	c0,0.6-0.4,1-1,1l0,0C133.4,215.7,133,215.2,133,214.7L133,214.7z"/>
<path class="st2" d="M348.2,343.9c10.3,4.6,14.9,16.8,10.3,27.1c-4.6,10.3-16.8,14.9-27.1,10.3c-10.3-4.6-14.9-16.8-10.3-27.1
	C325.7,343.9,337.8,339.3,348.2,343.9C348.2,343.9,348.2,343.9,348.2,343.9z"/>
<path class="st8" d="M285.6,308.2c-0.1,0-0.3,0-0.4-0.1c-0.1-0.1-0.2-0.1-0.3-0.2c-0.1-0.1-0.2-0.2-0.2-0.3
	c-0.1-0.1-0.1-0.3-0.1-0.4c0-0.3,0.1-0.5,0.3-0.7c0.3-0.3,0.7-0.4,1.1-0.2c0.1,0,0.2,0.1,0.3,0.2c0.1,0.1,0.2,0.2,0.2,0.3
	c0,0.1,0.1,0.3,0.1,0.4c0,0.1,0,0.3-0.1,0.4c-0.1,0.2-0.3,0.4-0.5,0.5C285.9,308.1,285.8,308.2,285.6,308.2z"/>
<path class="st8" d="M339.1,383.1L339.1,383.1c0,0.6-0.5,1-1.1,0.9c0,0,0,0,0,0l0,0c-0.6,0-1-0.5-0.9-1.1c0,0,0,0,0,0l0,0l0,0l0,0
	l0,0l0,0c-0.1,0.5-0.6,0.9-1.2,0.8c0,0,0,0,0,0l0,0c-0.5-0.1-0.9-0.6-0.8-1.2c0,0,0,0,0,0l0,0c-0.2,0.5-0.7,0.8-1.2,0.7l0,0
	c-0.5-0.2-0.8-0.7-0.7-1.2l0,0c-0.2,0.5-0.8,0.8-1.3,0.6c0,0,0,0,0,0l0,0c-0.5-0.2-0.8-0.8-0.6-1.3l0,0c-0.3,0.5-0.9,0.7-1.3,0.4
	c0,0,0,0,0,0l0,0c-0.5-0.3-0.7-0.9-0.4-1.3l0,0c-0.3,0.5-0.9,0.6-1.4,0.3l0,0c-0.5-0.3-0.6-0.9-0.3-1.4l0,0l0,0l0,0
	c-0.4,0.4-1,0.3-1.4-0.1l0,0c-0.4-0.4-0.4-1,0-1.4l0,0c-0.4,0.3-1,0.3-1.4-0.1l0,0c-0.4-0.4-0.3-1,0-1.4l0,0c-0.4,0.3-1,0.3-1.4-0.1
	l0,0c-0.4-0.4-0.3-1,0-1.4l0,0c-0.4,0.3-1,0.3-1.4-0.1l0,0c-0.4-0.4-0.3-1,0.1-1.4l0,0c-0.4,0.3-1,0.3-1.4-0.1l0,0
	c-0.4-0.4-0.3-1,0-1.4l0,0c-0.4,0.4-1,0.3-1.4-0.1l0,0c-0.4-0.4-0.3-1,0-1.4l0,0c-0.4,0.3-1,0.3-1.4-0.1l0,0c-0.4-0.4-0.4-1,0-1.4
	l0,0c-0.4,0.3-1,0.3-1.4-0.1l0,0c-0.4-0.4-0.3-1,0.1-1.4l0,0c-0.4,0.4-1,0.3-1.4-0.1l0,0c-0.4-0.4-0.3-1,0-1.4l0,0
	c-0.4,0.3-1,0.3-1.4-0.1l0,0c-0.4-0.4-0.3-1,0-1.4l0,0c-0.4,0.4-1,0.3-1.4-0.1l0,0c-0.4-0.4-0.4-1,0-1.4l0,0c-0.4,0.3-1,0.3-1.4-0.1
	l0,0c-0.4-0.4-0.3-1,0-1.4l0,0c-0.4,0.3-1,0.3-1.4-0.1l0,0c-0.4-0.4-0.3-1,0-1.4l0,0c-0.4,0.3-1,0.3-1.4-0.1l0,0
	c-0.4-0.4-0.4-1,0-1.4l0,0c-0.4,0.4-1,0.3-1.4-0.1l0,0c-0.4-0.4-0.3-1,0-1.4l0,0c-0.4,0.4-1,0.3-1.4-0.1l0,0c-0.4-0.4-0.3-1,0.1-1.4
	l0,0c-0.4,0.4-1,0.3-1.4-0.1l0,0c-0.4-0.4-0.3-1,0.1-1.4l0,0c-0.4,0.3-1,0.3-1.4-0.1l0,0c-0.4-0.4-0.3-1,0.1-1.4l0,0
	c-0.4,0.4-1,0.3-1.4-0.1l0,0c-0.4-0.4-0.3-1,0-1.4l0,0c-0.4,0.3-1,0.3-1.4-0.1l0,0c-0.4-0.4-0.3-1,0-1.4l0,0c-0.4,0.3-1,0.3-1.4-0.1
	l0,0c-0.4-0.4-0.3-1,0-1.4l0,0c-0.4,0.3-1,0.3-1.4-0.1l0,0c-0.4-0.4-0.4-1,0-1.4l0,0c-0.4,0.3-1,0.3-1.4-0.1l0,0
	c-0.4-0.4-0.3-1,0-1.4l0,0c-0.4,0.3-1,0.3-1.4-0.1l0,0c-0.4-0.4-0.3-1,0.1-1.4c0,0,0,0,0,0l0,0c-0.4,0.4-1,0.3-1.4-0.1l0,0
	c-0.4-0.4-0.3-1,0.1-1.4l0,0c-0.4,0.4-1,0.3-1.4-0.1l0,0c-0.4-0.4-0.4-1,0-1.4l0,0c-0.4,0.3-1,0.3-1.4-0.1l0,0c-0.4-0.4-0.3-1,0-1.4
	l0,0c-0.4,0.3-1,0.3-1.4-0.1l0,0c-0.4-0.4-0.4-1,0-1.4l0,0c-0.4,0.4-1,0.3-1.4-0.1l0,0c-0.4-0.4-0.3-1,0.1-1.4l0,0
	c-0.4,0.3-1,0.3-1.4-0.1l0,0c-0.4-0.4-0.3-1,0-1.4l0,0c-0.4,0.3-1,0.3-1.4-0.1l0,0c-0.4-0.4-0.3-1,0-1.4l0,0c-0.4,0.3-1,0.3-1.4-0.1
	l0,0c-0.4-0.4-0.4-1,0-1.4l0,0c-0.4,0.3-1,0.3-1.4-0.1l0,0c-0.4-0.4-0.3-1,0.1-1.4l0,0c-0.4,0.4-1,0.3-1.4-0.1l0,0
	c-0.4-0.4-0.3-1,0.1-1.4l0,0c-0.4,0.4-1,0.3-1.4-0.1l0,0c-0.4-0.4-0.3-1,0.1-1.4l0,0c-0.4,0.4-1,0.3-1.4-0.1l0,0
	c-0.4-0.4-0.4-1,0-1.4l0,0c-0.4,0.3-1,0.3-1.4-0.1l0,0c-0.4-0.4-0.3-1,0-1.4l0,0c-0.4,0.3-1,0.3-1.4-0.1l0,0c-0.4-0.4-0.3-1,0-1.4
	l0,0c-0.4,0.4-1,0.3-1.4-0.1l0,0c-0.4-0.4-0.3-1,0.1-1.4l0,0c-0.4,0.3-1,0.3-1.4-0.1l0,0c-0.4-0.4-0.3-1,0.1-1.4l0,0
	c0.4-0.4,1-0.3,1.4,0.1l0,0c0.4,0.4,0.3,1-0.1,1.4l0,0c0.4-0.4,1-0.3,1.4,0.1l0,0c0.4,0.4,0.4,1,0,1.4l0,0c0.4-0.3,1-0.3,1.4,0.1
	l0,0c0.4,0.4,0.3,1,0,1.4l0,0c0.4-0.3,1-0.3,1.4,0.1l0,0c0.4,0.4,0.3,1,0,1.4l0,0c0.4-0.3,1-0.3,1.4,0.1l0,0c0.4,0.4,0.3,1-0.1,1.4
	l0,0c0.4-0.4,1-0.3,1.4,0.1l0,0c0.4,0.4,0.3,1-0.1,1.4c0,0,0,0,0,0l0,0c0.4-0.4,1-0.3,1.4,0.1c0,0,0,0,0,0l0,0
	c0.4,0.4,0.3,1-0.1,1.4l0,0c0.4-0.3,1-0.3,1.4,0.1l0,0c0.4,0.4,0.4,1,0,1.4l0,0c0.4-0.3,1-0.3,1.4,0.1l0,0c0.4,0.4,0.3,1,0,1.4l0,0
	c0.4-0.3,1-0.3,1.4,0.1l0,0c0.4,0.4,0.3,1,0,1.4l0,0c0.4-0.4,1-0.3,1.4,0.1l0,0c0.4,0.4,0.3,1-0.1,1.4l0,0c0.4-0.3,1-0.3,1.4,0.1
	l0,0c0.4,0.4,0.3,1,0,1.4l0,0c0.4-0.3,1-0.3,1.4,0.1l0,0c0.4,0.4,0.4,1,0,1.4l0,0c0.4-0.3,1-0.3,1.4,0.1l0,0c0.4,0.4,0.3,1,0,1.4
	l0,0c0.4-0.3,1-0.3,1.4,0.1l0,0c0.4,0.4,0.3,1-0.1,1.4c0,0,0,0,0,0l0,0c0.4-0.4,1-0.3,1.4,0.1l0,0c0.4,0.4,0.3,1-0.1,1.4l0,0
	c0.4-0.4,1-0.3,1.4,0.1l0,0c0.4,0.4,0.3,1,0,1.4l0,0c0.4-0.3,1-0.3,1.4,0.1l0,0c0.4,0.4,0.3,1,0,1.4l0,0c0.4-0.3,1-0.3,1.4,0.1l0,0
	c0.4,0.4,0.3,1,0,1.4l0,0c0.4-0.3,1-0.3,1.4,0.1l0,0c0.4,0.4,0.3,1,0,1.4l0,0c0.4-0.3,1-0.3,1.4,0.1l0,0c0.4,0.4,0.3,1,0,1.4l0,0
	c0.4-0.3,1-0.3,1.4,0.1l0,0c0.4,0.4,0.3,1-0.1,1.4l0,0c0.4-0.4,1-0.3,1.4,0.1c0,0,0,0,0,0l0,0c0.4,0.4,0.3,1-0.1,1.4l0,0
	c0.4-0.4,1-0.3,1.4,0.1l0,0c0.4,0.4,0.3,1-0.1,1.4l0,0c0.4-0.4,1-0.3,1.4,0.1l0,0c0.4,0.4,0.3,1,0,1.4l0,0c0.4-0.3,1-0.3,1.4,0.1
	l0,0c0.4,0.4,0.3,1,0,1.4l0,0c0.4-0.3,1-0.3,1.4,0.1l0,0c0.4,0.4,0.3,1,0,1.4l0,0c0.4-0.3,1-0.3,1.4,0.1l0,0c0.4,0.4,0.3,1,0,1.4
	l0,0c0.4-0.3,1-0.3,1.4,0.1l0,0c0.4,0.4,0.4,1,0,1.4l0,0c0.4-0.3,1-0.3,1.4,0.1l0,0c0.4,0.4,0.3,1-0.1,1.4l0,0
	c0.4-0.3,1-0.3,1.4,0.1l0,0c0.4,0.4,0.3,1,0,1.4l0,0c0.4-0.3,1-0.3,1.4,0.1l0,0c0.4,0.4,0.3,1-0.1,1.4l0,0c0.4-0.4,1-0.3,1.4,0.1
	l0,0c0.4,0.4,0.4,1,0,1.4l0,0c0.4-0.3,1-0.3,1.4,0.1l0,0c0.4,0.4,0.3,1,0,1.4l0,0c0.4-0.3,1-0.3,1.4,0.1l0,0c0.4,0.4,0.3,1,0,1.4
	l0,0c0.4-0.3,1-0.3,1.4,0.1l0,0c0.4,0.4,0.3,1-0.1,1.4l0,0c0.4-0.3,1-0.3,1.4,0.1l0,0c0.4,0.4,0.3,1,0,1.4l0,0
	c0.4-0.4,1-0.3,1.4,0.1l0,0c0.4,0.4,0.4,1,0,1.4l0,0c0.4-0.3,1-0.3,1.4,0.1l0,0c0.4,0.4,0.4,1,0,1.4l0,0c0.4-0.3,1-0.3,1.4,0.1l0,0
	c0.3,0.3,0.3,0.8,0.1,1.2l0,0c0.3-0.3,0.8-0.4,1.2-0.1l0,0c0.4,0.3,0.6,0.8,0.4,1.3l0,0c0.3-0.4,0.8-0.6,1.3-0.4l0,0
	c0.5,0.2,0.7,0.8,0.5,1.3l0,0c0.2-0.5,0.8-0.7,1.3-0.5l0,0c0.5,0.2,0.7,0.7,0.6,1.2l0,0c0.2-0.5,0.7-0.7,1.2-0.6l0,0
	c0.5,0.1,0.8,0.6,0.7,1.1l0,0c0.1-0.5,0.6-0.8,1.1-0.7l0,0c0.5,0.1,0.9,0.6,0.8,1.1l0,0c0.1-0.5,0.5-0.9,1.1-0.8l0,0
	C338.7,382.1,339.1,382.5,339.1,383.1L339.1,383.1c0-0.6,0.4-1,1-1l0,0c0.5,0,0.9,0.4,1,0.9l0,0c0-0.5,0.4-0.9,0.9-1l0,0
	c0.5-0.1,1,0.3,1.1,0.8l0,0c-0.1-0.5,0.3-1,0.8-1.1l0,0c0.5-0.1,1,0.2,1.2,0.7l0,0c-0.1-0.5,0.2-1,0.7-1.2l0,0
	c0.5-0.2,1,0.1,1.2,0.6l0,0c-0.2-0.5,0.1-1,0.6-1.2l0,0c0.5-0.2,1,0,1.3,0.4l0,0c-0.2-0.5,0-1,0.4-1.3l0,0c0.5-0.2,1-0.1,1.3,0.3
	l0,0c-0.3-0.5-0.1-1,0.3-1.3l0,0c0.4-0.3,1-0.2,1.3,0.2l0,0c-0.3-0.4-0.2-1,0.2-1.3l0,0c0.4-0.3,1-0.3,1.4,0.1l0,0
	c-0.4-0.4-0.4-1,0-1.4l0,0c0.4-0.4,0.9-0.4,1.4-0.1l0,0c-0.4-0.4-0.4-0.9-0.1-1.3l0,0c0.3-0.4,0.9-0.5,1.3-0.2l0,0
	c-0.4-0.3-0.5-0.9-0.2-1.3l0,0c0.3-0.4,0.8-0.6,1.3-0.3l0,0c-0.4-0.3-0.6-0.8-0.3-1.3l0,0c0.2-0.5,0.8-0.7,1.3-0.5l0,0
	c-0.5-0.2-0.7-0.8-0.5-1.3l0,0c0.2-0.5,0.7-0.7,1.2-0.6l0,0c-0.5-0.2-0.7-0.7-0.6-1.2l0,0c0.1-0.5,0.7-0.8,1.2-0.7l0,0
	c-0.5-0.1-0.8-0.6-0.7-1.1l0,0c0.1-0.5,0.6-0.9,1.1-0.8l0,0c-0.5-0.1-0.9-0.6-0.8-1.1l0,0c0-0.5,0.5-0.9,1-0.9l0,0
	c-0.5,0-0.9-0.5-0.9-1l0,0c0-0.5,0.4-0.9,0.9-1l0,0c-0.5,0-0.9-0.4-1-0.9l0,0c-0.1-0.5,0.3-1,0.8-1.1l0,0c-0.5,0.1-1-0.3-1.1-0.8
	l0,0c-0.1-0.5,0.2-1,0.7-1.1l0,0c-0.5,0.1-1-0.2-1.2-0.7l0,0c-0.2-0.5,0.1-1,0.6-1.2l0,0c-0.5,0.2-1-0.1-1.2-0.6l0,0
	c-0.2-0.5,0-1,0.5-1.3l0,0c-0.5,0.2-1,0-1.3-0.4l0,0c-0.2-0.5-0.1-1,0.3-1.3l0,0c-0.5,0.3-1,0.1-1.3-0.3l0,0c-0.3-0.4-0.2-1,0.2-1.3
	l0,0c-0.4,0.3-1,0.2-1.3-0.2l0,0c-0.3-0.4-0.3-1,0.1-1.4l0,0c-0.4,0.4-1,0.4-1.4,0l0,0c-0.4-0.4-0.4-0.9-0.1-1.3l0,0
	c-0.4,0.4-0.9,0.4-1.3,0.1l0,0c-0.4-0.3-0.5-0.9-0.2-1.3l0,0c-0.3,0.4-0.9,0.5-1.3,0.2l0,0c-0.5-0.3-0.6-0.9-0.4-1.3l0,0
	c-0.3,0.5-0.9,0.6-1.4,0.3l0,0c-0.5-0.3-0.6-0.9-0.4-1.3l0,0c-0.3,0.5-0.9,0.6-1.4,0.3l0,0c-0.5-0.3-0.6-0.9-0.4-1.3l0,0
	c-0.3,0.5-0.9,0.6-1.4,0.3l0,0c-0.5-0.3-0.6-0.9-0.4-1.3l0,0c-0.3,0.5-0.9,0.6-1.4,0.3l0,0c-0.5-0.3-0.6-0.9-0.4-1.3l0,0
	c-0.3,0.5-0.9,0.6-1.4,0.3l0,0c-0.5-0.3-0.6-0.9-0.4-1.4l0,0c0.3-0.5,0.9-0.6,1.4-0.4l0,0c0.5,0.3,0.6,0.9,0.4,1.3l0,0
	c0.3-0.5,0.9-0.6,1.4-0.3l0,0c0.5,0.3,0.6,0.9,0.4,1.3l0,0c0.3-0.5,0.9-0.6,1.4-0.3l0,0c0.5,0.3,0.6,0.9,0.4,1.3l0,0
	c0.3-0.5,0.9-0.6,1.4-0.3l0,0c0.5,0.3,0.6,0.9,0.4,1.3l0,0c0.3-0.5,0.9-0.6,1.4-0.3l0,0c0.5,0.3,0.6,0.9,0.4,1.3l0,0
	c0.3-0.5,0.9-0.6,1.4-0.3l0,0c0.5,0.3,0.6,0.9,0.4,1.4l0,0c0.3-0.4,1-0.5,1.4-0.1c0,0,0,0,0,0l0,0c0.4,0.3,0.5,1,0.1,1.4l0,0
	c0.4-0.4,1-0.4,1.4,0l0,0c0.4,0.4,0.4,1,0,1.4l0,0l0,0l0,0c0.4-0.4,1.1-0.3,1.4,0.1c0,0,0,0,0,0l0,0c0.4,0.4,0.3,1.1-0.1,1.4
	c0,0,0,0,0,0l0,0c0.5-0.3,1.1-0.2,1.4,0.3c0,0,0,0,0,0l0,0c0.3,0.5,0.2,1.1-0.3,1.4c0,0,0,0,0,0l0,0c0.5-0.3,1.1-0.1,1.4,0.4l0,0
	c0.3,0.5,0.1,1.1-0.4,1.4l0,0l0,0l0,0l0,0l0,0c0.5-0.2,1.1,0,1.3,0.5c0,0,0,0,0,0l0,0c0.2,0.5,0,1.1-0.5,1.3c0,0,0,0,0,0l0,0l0,0
	l0,0l0,0l0,0c0.5-0.2,1.1,0.1,1.3,0.7l0,0c0.2,0.5-0.1,1.1-0.7,1.3l0,0c0.5-0.1,1.1,0.2,1.2,0.8c0,0,0,0,0,0l0,0
	c0.1,0.5-0.2,1.1-0.8,1.2c0,0,0,0,0,0l0,0c0.5-0.1,1,0.3,1.1,0.9c0,0,0,0,0,0l0,0c0.1,0.5-0.3,1-0.9,1.1c0,0,0,0,0,0l0,0
	c0.6,0,1,0.4,1,1l0,0c0,0.6-0.4,1-1,1l0,0c0.5,0.1,1,0.5,0.9,1.1l0,0c0,0.5-0.5,1-1.1,0.9l0,0c0.5,0.1,0.9,0.6,0.8,1.2l0,0
	c-0.1,0.5-0.6,0.9-1.2,0.8c0,0,0,0,0,0l0,0c0.5,0.2,0.8,0.7,0.7,1.2l0,0c-0.2,0.5-0.7,0.8-1.2,0.7l0,0c0.5,0.2,0.8,0.8,0.5,1.3l0,0
	c-0.2,0.5-0.8,0.8-1.3,0.6c0,0,0,0,0,0l0,0c0.5,0.3,0.7,0.9,0.4,1.3l0,0c-0.3,0.5-0.9,0.7-1.3,0.4c0,0,0,0,0,0l0,0
	c0.5,0.3,0.6,0.9,0.3,1.4c0,0,0,0,0,0l0,0c-0.3,0.5-0.9,0.6-1.4,0.3l0,0c0.4,0.3,0.5,1,0.2,1.4c0,0,0,0,0,0l0,0
	c-0.3,0.4-1,0.5-1.4,0.1l0,0c0.4,0.4,0.4,1,0,1.4c0,0,0,0,0,0l0,0c-0.4,0.4-1,0.4-1.4,0l0,0l0,0l0,0l0,0l0,0
	c0.4,0.4,0.3,1.1-0.1,1.4c0,0,0,0,0,0l0,0c-0.4,0.4-1.1,0.3-1.4-0.1c0,0,0,0,0,0l0,0c0.3,0.5,0.2,1.1-0.3,1.4l0,0
	c-0.5,0.3-1.1,0.2-1.4-0.3l0,0c0.3,0.5,0.1,1.1-0.4,1.4l0,0c-0.5,0.3-1.1,0.1-1.4-0.4l0,0c0.2,0.5,0,1.1-0.5,1.3l0,0
	c-0.5,0.2-1.1,0-1.3-0.5l0,0c0.2,0.5-0.1,1.1-0.6,1.3c0,0,0,0,0,0l0,0c-0.5,0.2-1.1-0.1-1.3-0.6c0,0,0,0,0,0l0,0
	c0.1,0.5-0.2,1.1-0.8,1.2l0,0c-0.5,0.1-1.1-0.2-1.2-0.8c0,0,0,0,0,0l0,0c0.1,0.5-0.3,1-0.9,1.1c0,0,0,0,0,0l0,0
	c-0.5,0.1-1-0.3-1.1-0.9l0,0c0,0.6-0.4,1-1,1l0,0C339.5,384.1,339.1,383.6,339.1,383.1z M340.3,340.4c-0.5-0.3-0.6-0.9-0.4-1.4
	c0,0,0,0,0,0l0,0c0.3-0.5,0.9-0.6,1.4-0.4l0,0c0.5,0.3,0.6,0.9,0.4,1.4c0,0,0,0,0,0l0,0c-0.2,0.3-0.5,0.5-0.9,0.5l0,0
	C340.6,340.6,340.4,340.5,340.3,340.4L340.3,340.4z M338.5,339.4c-0.5-0.3-0.6-0.9-0.4-1.3l0,0c-0.3,0.5-0.9,0.6-1.4,0.3l0,0
	c-0.5-0.3-0.6-0.9-0.4-1.3l0,0c-0.3,0.5-0.9,0.6-1.4,0.3l0,0c-0.5-0.3-0.6-0.9-0.4-1.3l0,0c-0.3,0.5-0.9,0.6-1.4,0.3l0,0
	c-0.5-0.3-0.7-0.9-0.4-1.4c0,0,0,0,0,0l0,0c0.3-0.5,0.9-0.6,1.4-0.4l0,0c0.5,0.3,0.6,0.9,0.4,1.3l0,0c0.3-0.5,0.9-0.6,1.4-0.3l0,0
	c0.5,0.3,0.6,0.9,0.4,1.3l0,0c0.3-0.5,0.9-0.6,1.4-0.3l0,0c0.5,0.3,0.6,0.9,0.4,1.3l0,0c0.3-0.5,0.9-0.6,1.4-0.3l0,0
	c0.5,0.3,0.6,0.9,0.4,1.4l0,0c-0.2,0.3-0.5,0.5-0.9,0.5l0,0C338.9,339.5,338.7,339.5,338.5,339.4L338.5,339.4z M331.6,335.4
	c-0.5-0.3-0.6-0.9-0.4-1.3l0,0c-0.3,0.5-0.9,0.6-1.4,0.3l0,0c-0.5-0.3-0.6-0.9-0.4-1.3l0,0c-0.3,0.5-0.9,0.6-1.4,0.3l0,0
	c-0.5-0.3-0.6-0.9-0.4-1.3l0,0c-0.3,0.5-0.9,0.6-1.4,0.3l0,0c-0.5-0.3-0.6-0.9-0.4-1.3l0,0c-0.3,0.5-0.9,0.6-1.4,0.3l0,0
	c-0.5-0.3-0.6-0.9-0.4-1.4c0,0,0,0,0,0l0,0c0.3-0.5,0.9-0.6,1.4-0.4c0,0,0,0,0,0l0,0c0.5,0.3,0.6,0.9,0.4,1.3l0,0
	c0.3-0.5,0.9-0.6,1.4-0.3l0,0c0.5,0.3,0.6,0.9,0.4,1.3l0,0c0.3-0.5,0.9-0.6,1.4-0.3l0,0c0.5,0.3,0.6,0.9,0.4,1.3l0,0
	c0.3-0.5,0.9-0.6,1.4-0.3l0,0c0.5,0.3,0.6,0.9,0.4,1.3l0,0c0.3-0.5,0.9-0.6,1.4-0.3l0,0c0.5,0.3,0.6,0.9,0.3,1.3l0,0
	c-0.2,0.3-0.5,0.5-0.9,0.5l0,0C332,335.5,331.8,335.5,331.6,335.4L331.6,335.4z M323,330.3c-0.5-0.3-0.6-0.9-0.4-1.3l0,0
	c-0.3,0.5-0.9,0.6-1.4,0.3l0,0c-0.4-0.3-0.6-0.9-0.3-1.3l0,0c-0.3,0.5-0.9,0.6-1.4,0.3l0,0c-0.5-0.3-0.6-0.9-0.4-1.3l0,0
	c-0.3,0.5-0.9,0.6-1.4,0.3l0,0c-0.5-0.3-0.6-0.9-0.4-1.3l0,0c-0.3,0.5-0.9,0.6-1.4,0.3l0,0c-0.5-0.3-0.6-0.9-0.4-1.4l0,0
	c0.3-0.5,0.9-0.6,1.4-0.4l0,0c0.5,0.3,0.6,0.9,0.4,1.3l0,0c0.3-0.5,0.9-0.6,1.4-0.3l0,0c0.5,0.3,0.6,0.9,0.4,1.3l0,0
	c0.3-0.5,0.9-0.6,1.4-0.3l0,0c0.5,0.3,0.6,0.9,0.4,1.3l0,0c0.3-0.5,0.9-0.6,1.4-0.3l0,0c0.5,0.3,0.6,0.9,0.4,1.3l0,0
	c0.3-0.5,0.9-0.6,1.4-0.3l0,0c0.5,0.3,0.6,0.9,0.4,1.4l0,0c-0.2,0.3-0.5,0.5-0.9,0.5l0,0C323.4,330.5,323.2,330.4,323,330.3
	L323,330.3z M314.4,325.3c-0.5-0.3-0.6-0.9-0.4-1.3l0,0c-0.3,0.5-0.9,0.6-1.4,0.3l0,0c-0.5-0.3-0.6-0.9-0.4-1.3l0,0
	c-0.3,0.5-0.9,0.6-1.4,0.3l0,0c-0.5-0.3-0.6-0.9-0.4-1.3l0,0c-0.3,0.5-0.9,0.6-1.4,0.3l0,0c-0.5-0.3-0.6-0.9-0.4-1.4l0,0
	c0.3-0.5,0.9-0.6,1.4-0.4l0,0c0.5,0.3,0.6,0.9,0.4,1.3l0,0c0.3-0.5,0.9-0.6,1.4-0.3l0,0c0.5,0.3,0.6,0.9,0.4,1.3l0,0
	c0.3-0.5,0.9-0.6,1.4-0.3l0,0c0.5,0.3,0.6,0.9,0.4,1.3l0,0c0.3-0.5,0.9-0.6,1.4-0.3l0,0c0.5,0.3,0.6,0.9,0.4,1.4c0,0,0,0,0,0l0,0
	c-0.2,0.3-0.5,0.5-0.9,0.5l0,0C314.7,325.4,314.6,325.3,314.4,325.3L314.4,325.3z M307.5,321.2c-0.5-0.3-0.6-0.9-0.4-1.4
	c0,0,0,0,0,0l0,0c0.3-0.5,0.9-0.6,1.4-0.4c0,0,0,0,0,0l0,0c0.5,0.3,0.6,0.9,0.4,1.4c0,0,0,0,0,0l0,0c-0.2,0.3-0.5,0.5-0.9,0.5l0,0
	C307.9,321.3,307.7,321.3,307.5,321.2L307.5,321.2z M305.8,320.2c-0.5-0.3-0.6-0.9-0.4-1.3l0,0c-0.3,0.5-0.9,0.6-1.4,0.3l0,0
	c-0.5-0.3-0.6-0.9-0.4-1.3l0,0c-0.3,0.5-0.9,0.6-1.4,0.3l0,0c-0.5-0.3-0.6-0.9-0.4-1.3l0,0c-0.3,0.4-0.9,0.6-1.3,0.3l0,0
	c-0.5-0.3-0.6-0.9-0.4-1.4c0,0,0,0,0,0l0,0c0.3-0.5,0.9-0.6,1.4-0.4l0,0c0.5,0.3,0.6,0.9,0.4,1.3l0,0c0.3-0.4,0.9-0.6,1.3-0.3l0,0
	c0.5,0.3,0.6,0.9,0.4,1.3l0,0c0.3-0.5,0.9-0.6,1.4-0.3l0,0c0.5,0.3,0.6,0.9,0.4,1.3l0,0c0.3-0.5,0.9-0.6,1.4-0.3l0,0
	c0.5,0.3,0.6,0.9,0.4,1.4l0,0c-0.2,0.3-0.5,0.5-0.9,0.5l0,0C306.1,320.3,306,320.3,305.8,320.2L305.8,320.2z M298.9,316.2
	c-0.5-0.3-0.6-0.9-0.4-1.4l0,0c0.3-0.5,0.9-0.6,1.4-0.4l0,0c0.5,0.3,0.6,0.9,0.4,1.4l0,0c-0.2,0.3-0.5,0.5-0.9,0.5l0,0
	C299.2,316.3,299.1,316.2,298.9,316.2L298.9,316.2z M297.2,315.2c-0.5-0.3-0.6-0.9-0.4-1.3l0,0c-0.3,0.4-0.9,0.6-1.3,0.3l0,0
	c-0.5-0.3-0.6-0.9-0.4-1.3l0,0c-0.3,0.5-0.9,0.6-1.4,0.3l0,0c-0.5-0.3-0.6-0.9-0.4-1.3l0,0c-0.3,0.5-0.9,0.6-1.4,0.3l0,0
	c-0.5-0.3-0.6-0.9-0.4-1.4c0,0,0,0,0,0l0,0c0.3-0.5,0.9-0.6,1.4-0.4c0,0,0,0,0,0l0,0c0.5,0.3,0.6,0.9,0.4,1.3l0,0
	c0.3-0.5,0.9-0.6,1.4-0.3l0,0c0.5,0.3,0.6,0.9,0.4,1.3l0,0c0.3-0.5,0.9-0.6,1.4-0.3l0,0c0.5,0.3,0.6,0.9,0.4,1.3l0,0
	c0.3-0.4,0.9-0.6,1.3-0.3l0,0c0.5,0.3,0.6,0.9,0.4,1.4c0,0,0,0,0,0l0,0c-0.2,0.3-0.5,0.5-0.9,0.5l0,0
	C297.5,315.3,297.3,315.2,297.2,315.2L297.2,315.2z M290.3,311.1c-0.5-0.3-0.6-0.9-0.4-1.3l0,0c-0.3,0.5-0.9,0.6-1.4,0.3l0,0
	c-0.5-0.3-0.6-0.9-0.4-1.3l0,0c-0.3,0.5-0.9,0.6-1.4,0.3l0,0c-0.5-0.3-0.6-0.9-0.4-1.4c0,0,0,0,0,0l0,0c0.3-0.5,0.9-0.6,1.4-0.4
	c0,0,0,0,0,0l0,0c0.5,0.3,0.6,0.9,0.4,1.3l0,0c0.3-0.5,0.9-0.6,1.4-0.3l0,0c0.5,0.3,0.6,0.9,0.4,1.3l0,0c0.3-0.5,0.9-0.6,1.4-0.3
	l0,0c0.5,0.3,0.6,0.9,0.4,1.4l0,0c-0.2,0.3-0.5,0.5-0.9,0.5l0,0C290.6,311.2,290.4,311.2,290.3,311.1L290.3,311.1z"/>
<path class="st8" d="M273.8,320.1c-0.3,0-0.5-0.1-0.7-0.3c-0.2-0.2-0.3-0.4-0.3-0.7c0-0.3,0.1-0.5,0.3-0.7c0.4-0.4,1-0.4,1.4,0
	c0,0,0,0,0,0c0.2,0.2,0.3,0.4,0.3,0.7c0,0.3-0.1,0.5-0.3,0.7C274.3,320,274,320.1,273.8,320.1z"/>
<path class="st10" d="M322.1,298.1l-28.6,7.2c-1.1,0.3-2,0.9-2.6,1.8l-9.4,14.4c-0.9,1.4-2.6,2.1-4.2,1.9l-28.5-3.9
	c-1-0.1-1.9-0.6-2.6-1.4L226.1,296c-0.9-0.9-1.2-2.2-1.1-3.5l3-22.7c0.2-1.8,1.6-3.3,3.5-3.7l14.6-2.9c1.9-0.4,3.3-2,3.5-3.9
	l0.6-7.8c0.2-2.4,2.2-4.1,4.6-4l36.1,2.1c1.3,0.1,2.4,0.7,3.2,1.7l30.5,40c1.4,1.9,1.1,4.6-0.8,6.1
	C323.2,297.7,322.7,298,322.1,298.1z"/>
<path class="st10" d="M350,291.9l18.8,3.4c5.7,1,11.1-2.8,12.2-8.4l0,0c1-5.7-2.8-11.1-8.4-12.1l-18.8-3.4c-5.7-1-11.1,2.8-12.1,8.4
	l0,0C340.6,285.4,344.4,290.8,350,291.9z"/>
<path class="st12" d="M272.9,288.8l-3-1.4c-1-0.4-1.6-1.4-1.5-2.5l0.3-8.9c0-0.4,0-0.8-0.2-1.1c-0.8-1.9-3.6-8.7-5.3-11.9
	c-0.3-0.7-1.2-1-1.9-0.6c-0.1,0.1-0.2,0.2-0.3,0.3l0,0c-0.4,0.4-0.5,1.1-0.3,1.6l5.2,10.5c0.2,0.4,0.3,0.9,0.3,1.3l-0.6,9.9
	c0,0.5,0.1,0.9,0.3,1.3l2.6,5.3c0.3,0.7,1,1,1.8,1l2-0.1c0.8-0.1,1.5-0.6,1.6-1.4l0.3-1.2C274.1,289.9,273.6,289.1,272.9,288.8z"/>
<ellipse transform="matrix(0.7262 -0.6875 0.6875 0.7262 -136.5794 257.6315)" class="st13" cx="255.1" cy="300.3" rx="13.2" ry="13.2"/>
<path class="st14" d="M286.5,290.7l-3.6-0.3c-2-0.2-3.5-1.9-3.3-3.9l1.4-15.2c0.2-2,1.9-3.5,3.9-3.3l3.6,0.3c2,0.2,3.5,1.9,3.3,3.9
	l-1.4,15.2C290.2,289.4,288.5,290.8,286.5,290.7z"/>
<path class="st13" d="M247,283.8c-0.6,1.2,0,2.7,1.2,3.2c1.2,0.6,2.7,0,3.2-1.2c0.6-1.2,0-2.7-1.2-3.2c0,0,0,0,0,0
	C249,282.1,247.6,282.6,247,283.8z"/>
<path class="st10" d="M275.8,318.9l59.3,46.3c2.2,1.7,5.3,1.3,7-0.9l0,0c1.7-2.2,1.3-5.3-0.9-7l-59.2-46.3c-2.2-1.7-5.3-1.3-7,0.9
	l0,0C273.2,314.1,273.6,317.2,275.8,318.9z"/>
<path class="st2" d="M315.2,289.5c-5.6,1-23.7,5.3-29.8,6.8c-1,0.2-1.9-0.4-2.2-1.3c0-0.1,0-0.2,0-0.2l-3.6-33.8l-4.5,0.4l3.7,37
	c0,0.3,0,0.6-0.1,0.8l-2.1,5.4c-0.2,0.5-0.7,1-1.2,1.1l-5,1.3c-0.5,0.1-1,0.5-1.2,1l-4,8.8c-0.3,0.7-1,1.1-1.8,1.1l-10.1-0.8
	c-2.6-0.2-5-1.4-6.7-3.3L229,294.2c-0.3-0.4-0.5-0.8-0.5-1.3l1.9-33.3c0-0.8-0.5-1.6-1.2-1.8l0,0c-1-0.3-2,0.2-2.3,1.2
	c0,0.1-0.1,0.3-0.1,0.4l-3.1,36.7c0,0.5,0.1,0.9,0.4,1.3l17.4,22.1c2.1,2.7,5.3,4.3,8.7,4.5l21.4,0.9c0.7,0,1.3-0.3,1.6-0.9l13.2-22
	c0.2-0.4,0.6-0.7,1.1-0.8l31-8.7l-1.4-2.1C316.7,289.7,316,289.4,315.2,289.5z"/>
<path class="st8" d="M269.9,216.1l-13.8-1.6c-1-0.1-1.9,0.6-2.1,1.6l-6.7,39.9c-0.2,1,0.5,2,1.6,2.2c0,0,0,0,0.1,0l30.9,4.3
	c1,0.2,2-0.6,2.2-1.6c0,0,0,0,0,0l0.8-6.1c0.1-0.6,0.4-1.2,1-1.5l3.2-1.7c0.9-0.5,2.1-0.1,2.6,0.8c0,0.1,0.1,0.1,0.1,0.2l8,22
	c0.1,0.4,0.4,0.8,0.8,1l10.4,6.6c0.3,0.2,0.7,0.3,1.1,0.3l50.4-1.8c0.5,0,1-0.3,1.4-0.6c1.7-1.9,7.9-7,23.3-1.3
	c12.8,4.8,22,8.9,26.4,10.9c1,0.4,2.1,0,2.6-1c0.1-0.3,0.2-0.6,0.2-0.9l0,0c0-0.4-0.2-0.9-0.5-1.2c-6.8-7.2-15-13-24.1-17
	c-15.2-6.8-47.7-10.1-50.3-10.4c-0.1,0-0.2,0-0.3-0.1l-47.6-13.5c-0.4-0.1-0.8-0.4-1.1-0.8l-18.9-28
	C270.9,216.4,270.4,216.1,269.9,216.1z"/>
<path class="st11" d="M154.2,226.5c22.9,10.3,33.2,37.3,22.9,60.2c-10.3,22.9-37.3,33.2-60.2,22.9c-22.9-10.3-33.2-37.2-22.9-60.2
	C104.3,226.5,131.2,216.2,154.2,226.5C154.2,226.5,154.2,226.5,154.2,226.5z M122,298.2c16.7,7.5,36.2,0,43.7-16.6
	c7.5-16.7,0-36.2-16.6-43.7s-36.2,0-43.7,16.6c0,0,0,0,0,0C97.9,271.2,105.3,290.7,122,298.2z"/>
<path class="st8" d="M157.7,218.9c27.2,12.2,39.3,44.1,27.1,71.3c-12.2,27.2-44.1,39.3-71.3,27.1c-27.2-12.2-39.3-44.1-27.1-71.3
	C98.5,218.8,130.4,206.7,157.7,218.9C157.6,218.8,157.7,218.9,157.7,218.9z M118.7,305.6c20.7,9.3,45.1,0.1,54.4-20.7
	c9.3-20.7,0.1-45.1-20.7-54.4c-20.7-9.3-45.1-0.1-54.4,20.7c0,0,0,0,0,0C88.8,271.9,98,296.3,118.7,305.6z"/>
<path class="st10" d="M140.3,271.5l106.5-77c2.2-1.6,2.7-4.7,1.1-6.9l0,0c-1.6-2.2-4.7-2.7-6.9-1.1l-106.5,77
	c-2.2,1.6-2.7,4.7-1.1,6.9l0,0C135,272.6,138.1,273.1,140.3,271.5z"/>
<path class="st10" d="M244.1,194.1l-10.6,7.7c-1.7,1.2-4.1,0.9-5.4-0.9l-2.8-3.9c-1.2-1.7-0.9-4.1,0.9-5.4l10.6-7.7
	c1.7-1.2,4.1-0.9,5.4,0.9l2.8,3.9C246.2,190.5,245.8,192.9,244.1,194.1z"/>
<path class="st8" d="M245.8,187.1l13.8-9.9c0.3-0.2,0.7-0.3,1.1-0.3l12.4-1.9c0.8-0.1,1.6,0.4,1.7,1.3c0,0,0,0,0,0l0,0.4
	c0.1,0.8-0.4,1.6-1.2,1.7c0,0,0,0,0,0l-12.4,1.8l-13.4,9.6c-0.8,0.6-1.8,0.4-2.4-0.4C244.9,188.7,245.1,187.6,245.8,187.1
	L245.8,187.1z"/>
<path class="st2" d="M216.3,201.5l30.9-22.9c0.4-0.3,0.5-0.9,0.1-1.3c-0.2-0.3-0.6-0.4-1-0.3l-22.1,7.7c-4.4,1.5-7.6,5.4-8.4,10
	l-1,5.8c-0.1,0.5,0.3,1,0.8,1C215.9,201.7,216.1,201.6,216.3,201.5z"/>
<path class="st2" d="M142.9,251.8c9,4,13,14.6,9,23.6c-4,9-14.6,13-23.6,9c-9-4-13-14.6-9-23.6C123.3,251.8,133.9,247.7,142.9,251.8
	z"/>
<path class="st8" d="M140.2,272.9l21.3-15.4c0.6-0.5,0.8-1.4,0.3-2l-5.3-7.3c-0.5-0.6-1.4-0.8-2-0.3l-21.4,15.4
	c-2.6,1.9-3.2,5.6-1.3,8.3l0,0C133.8,274.2,137.5,274.8,140.2,272.9z"/>
<path class="st2" d="M364.2,259.3L364.2,259.3c0.8,1.7,0.7,3.7-0.3,5.3l-0.7,1.1c-0.9,1.4-2.5,2.4-4.2,2.5c-7.1,0.5-27.6,1-54.5-5.4
	c-9.5-2.3-17.6-8.2-22.6-16.6c-6.2-10.6-12.3-23.8-14.3-33.7c-0.1-0.7,0.4-1.4,1.1-1.6c0,0,0.1,0,0.1,0c0.8-0.1,1.6-0.1,2.4,0.1
	c0.5,0.1,0.8,0.4,1,0.8c1.3,3.3,8,19.4,21.4,25.4c13,5.9,56.3,16.6,67.1,19.2C362.2,256.7,363.5,257.8,364.2,259.3z"/>
<path class="st2" d="M268.4,219.5c1.4-2.5,0.9-5.5-1.1-7.5c-3.5-3.5-7.6-5.7-13-8.6c-5.6-3-9,1.9-10.3,4.1c-0.3,0.6-0.2,1.3,0.2,1.8
	l0,0c0.6,0.6,0.6,1.6-0.1,2.2c-0.2,0.1-0.3,0.3-0.5,0.3l-13,4.4c-4,1.4-6.8,5-7.1,9.1l-2.3,27.4c-0.2,2.3,1.1,4.5,3.2,5.5l6.6,3
	c2.6,1.1,5.6,0.2,7-2.3l3.1-5.5c0.9-1.5,2.5-2.6,4.2-2.7l8-0.8c3.7-0.4,6.7-3.4,7-7.1l0.9-10.7L268.4,219.5z"/>
<path class="st15" d="M233.2,257.4c-0.1,0-0.2,0-0.4,0l0,0c-0.2,0-0.5-0.1-0.7-0.2l-6.6-3c-1-0.5-1.6-1.5-1.5-2.6l2.3-27.4
	c0.3-3.1,2.3-5.7,5.2-6.7l13-4.4c2.3-0.8,3.5-3.3,2.7-5.6c-0.1-0.2-0.2-0.4-0.3-0.6l-0.1-0.1l0.1-0.1c0.9-1.4,2.4-2.9,4.2-2.7
	c0.6,0.1,1.1,0.3,1.6,0.6c5.5,3,9.1,5,12.3,8.2c1.1,1.1,1.3,2.7,0.6,4.1l-7.1,13.2l-1,11.3c-0.2,2.4-2.1,4.3-4.4,4.5l-8,0.8
	c-2.7,0.3-5.1,1.8-6.4,4.2l-3.1,5.5C235.1,256.9,234.2,257.5,233.2,257.4z M232.9,256.9c0.9,0.1,1.7-0.3,2.1-1.1l3.1-5.5
	c1.4-2.5,4-4.1,6.8-4.4l8-0.8c2.1-0.2,3.8-1.9,4-4l1-11.4l7.2-13.2c0.6-1.1,0.4-2.5-0.5-3.5c-3.1-3.1-6.7-5.1-12.2-8.1
	c-0.5-0.3-0.9-0.4-1.5-0.5c-1.5-0.2-2.8,1.1-3.7,2.3c1.2,2.4,0.2,5.4-2.3,6.6c-0.2,0.1-0.4,0.2-0.5,0.2l-12.9,4.5
	c-2.7,0.9-4.6,3.4-4.9,6.2l-2.3,27.4c-0.1,0.9,0.4,1.8,1.3,2.1l6.6,3C232.5,256.9,232.7,257,232.9,256.9L232.9,256.9z"/>
<path class="st2" d="M359.6,276.9l2.3,3.8c0.5,0.8,0.7,1.6,0.7,2.5l0.2,14c0,1.3-0.5,2.6-1.4,3.5l-4.9,5.2c-1.1,1.1-2.6,1.7-4.2,1.5
	l-25.3-2.9c-1.4-0.2-2.7-0.9-3.5-2.1l-10.9-15.3c-1.6-2.2-1.1-5.4,1.2-7c0.2-0.1,0.4-0.3,0.7-0.4l10-5c4.6-2.3,9.8-3.2,14.9-2.5
	l16.6,2.2C357.5,274.7,358.8,275.6,359.6,276.9z"/>
<path class="st15" d="M352.2,303.5H352l-25.3-2.9c-0.6-0.1-1.1-0.4-1.5-0.9l-10.9-15.3c-0.4-0.5-0.5-1.1-0.3-1.7
	c0.1-0.6,0.6-1.1,1.1-1.4l10-5c4.1-2.1,8.7-2.8,13.2-2.2l16.5,2.2c0.6,0.1,1.2,0.5,1.5,1l2.3,3.8c0.2,0.3,0.3,0.7,0.3,1.1l0.2,14
	c0,0.6-0.2,1.1-0.6,1.5l-4.9,5.2C353.3,303.2,352.8,303.5,352.2,303.5z M326.7,300l25.3,3c0.5,0.1,1-0.1,1.4-0.5l4.9-5.2
	c0.3-0.3,0.4-0.7,0.4-1.1l-0.2-14c0-0.3-0.1-0.6-0.2-0.8l-2.3-3.9c-0.3-0.4-0.7-0.7-1.2-0.8l-16.5-2.2c-4.4-0.6-8.9,0.2-12.9,2.2
	l-10,5c-0.8,0.4-1.1,1.4-0.7,2.2c0,0.1,0.1,0.1,0.1,0.2l10.9,15.3C325.9,299.7,326.3,299.9,326.7,300z"/>
<path class="st13" d="M334.3,359.5c-0.9,2.1,0,4.5,2.1,5.4c2.1,0.9,4.5,0,5.4-2.1c0.9-2.1,0-4.5-2.1-5.4
	C337.6,356.5,335.2,357.5,334.3,359.5z"/>
<path class="st2" d="M283.2,294.8c9.9-19.3,21-29.4,23-50.1c18-6.8,56.7,0.5,63.3-22.2l-31.9-18.8c0,0-49.2,11.3-54,27.2
	c-2,6.6-6.9,25-13.5,46.8c-2.4,7.9-6.6,18.2-7.3,23.9l13.8,7.9C280,302.1,281.2,298.7,283.2,294.8z"/>
<path class="st4" d="M283.2,294.8c9.9-19.3,21-29.4,23-50.1c18-6.8,56.7,0.5,63.3-22.2l-31.9-18.8c0,0-49.2,11.3-54,27.2
	c-2,6.6-6.9,25-13.5,46.8c-2.4,7.9-6.6,18.2-7.3,23.9l13.8,7.9C280,302.1,281.2,298.7,283.2,294.8z"/>
<path class="st2" d="M277.3,319l-1-0.7l-31.7-12.1c-1.4,0.6-1.8,4.3,2.4,5.8s10.9,3.8,15.3,5.3s8.1,3.1,12.2,4.6
	C275.8,322.3,277.3,320.9,277.3,319z"/>
<path class="st7" d="M277.3,319l-1-0.7l-31.7-12.1c-1.4,0.6-1.8,4.3,2.4,5.8s10.9,3.8,15.3,5.3s8.1,3.1,12.2,4.6
	C275.8,322.3,277.3,320.9,277.3,319z"/>
<path class="st16" d="M286.6,279.9l-0.4-0.3c6.9-9.9,15.9-37.6,14.3-39.5c-0.3-0.4-0.5-0.7-0.4-0.9s0.7-0.2,1.4,0
	c0.5,0.1,1.4,0.4,1.5,0.2s0-0.2-0.2-0.6c-0.1-0.2-0.1-0.5,0-0.7c1-1.8,9.6-2.9,19.9-4.2c2.6-0.3,4.8-0.6,6.2-0.8
	c3.2-0.5,6.4-2,9.4-3.5c2.8-1.3,5.4-2.5,7.6-2.8c4.9-0.6,9.7-4.2,13.4-10.2l0.4,0.3c-3.8,6.1-8.7,9.8-13.8,10.5
	c-2.1,0.3-4.7,1.5-7.4,2.8c-3.1,1.5-6.3,3-9.6,3.5c-1.4,0.2-3.6,0.5-6.2,0.8c-7,0.9-18.6,2.3-19.5,3.9c-0.1,0.1-0.1,0.2,0,0.3
	c0.2,0.4,0.4,0.9,0.1,1.2s-1.2,0.2-2,0c-0.2-0.1-0.5-0.1-0.7-0.2c0.1,0.1,0.1,0.2,0.2,0.3C302.8,242.1,293.3,270.4,286.6,279.9z"/>
<path class="st8" d="M282.3,306.9c-0.6,4-2.7,10.1-4.7,12.1c-0.3,0.8-1,0.6-1.9,0.3c-4.5-1.6-9.7-3.7-14.1-5.3
	c-5.1-1.9-8.6-2.6-14.6-4.9c-3.6-1.4-2.9-3.9-1.1-4.2c5.2-0.9,11.1,0.4,17-2.2c1-5.1,4.5-23.9,7.5-29.7c0.3-0.5,0.8-0.9,1.4-0.9
	c8.3,0,17.3,4.6,20.5,6.5c0.7,0.4,1,1.3,0.7,2.1C290.8,285.6,282.7,303.4,282.3,306.9z"/>
<path class="st17" d="M359,149.2c-7.3-13.9-18.6-14.9-35.5-6.5c-6.4,3.2-11.5,8-9.2,15.4c5.3,17.4,11.1,25,9.7,35.6
	c0.7,7.1,26.3,22.5,46.9,28.9C380.4,205.9,369.3,168.8,359,149.2z"/>
<path class="st7" d="M347,159.6c-11.4,5.3-20.2,12.9-25.9,17.4c1.9,5.2,3.2,9.5,3.1,14.3c3,0.2,6.2,0,8.1-1.6
	C339.4,183.5,347.1,166.9,347,159.6z"/>
<path class="st8" d="M333.6,126.5l-12.2,7.2c1.8,4.2,2.7,6.6,0.3,10c-1.8,2.2,1.2,5.8,6.5,4.4c4.6-1.2,11.8-5,13.4-7.5
	C339.6,136.9,336.2,131.6,333.6,126.5z"/>
<path class="st8" d="M303.2,106.8c-1.4,0.5-0.9,7.3-0.3,9c-1.3,8.3,2.3,10.1,2.3,10.1s-2.4,1.6,1,6.3c11.5-0.1,20.5-9.3,20-17.5
	S310.4,105.8,303.2,106.8z"/>
<path class="st2" d="M345.5,132.9c-7.4,6-37.1,11.1-45.1,12.4c-1.2,0.2-2.3-0.5-2.7-1.6l-2.3-6.5c-0.3-0.8-0.1-1.7,0.4-2.3l3.2-3.9
	c0.8-1,1.9-1.5,3.1-1.6c3.1-0.1,9.3-0.5,13.5-2.8c5.9-3.1,8.5-7.8,7.7-13.5s-34.7-5.5-34.7-5.5s-1.1-1.9,4.2-5s20.5-4.5,20.5-4.5
	s11.1-3.3,19.6-1.7s6.3,4.9,6.3,4.9s6.5,2.6,9.4,12.3S348.7,130.3,345.5,132.9z"/>
<path class="st6" d="M348.7,113.6c-1.1-4.1-3.4-7.7-6.6-10.5c-10.3,1.6-28.8,1.8-43.3-2.6c-2.1,0.4-4.1,1.2-5.9,2.1
	c-5.3,3.1-4.2,5-4.2,5s33.9-0.3,34.7,5.5s-1.9,10.4-7.7,13.5c-4.3,2.3-10.4,2.7-13.5,2.8c-1.2,0-2.4,0.6-3.1,1.6l-3.2,3.9
	c-0.1,0.1-0.1,0.2-0.2,0.3c14.6-2,33.6-16.7,54-10.9C350.1,120.6,349.8,117,348.7,113.6z"/>
<path class="st2" d="M302.4,113.9c-0.9,0.8-0.9,9.6,1.2,11.8s5,0.8,6,0.1s7-1.6,8-4.9s1.4-6.6-3.4-8.6
	C310.1,110.7,305.7,111.3,302.4,113.9z"/>
<path class="st8" d="M310.6,114c-0.5-0.2-1-0.3-1.5-0.4c-2.6-0.3-5.1,0.4-7.2,1.9c-0.3,2.8,0,8.5,1.6,10.2c0.2,0.2,0.4,0.4,0.7,0.6
	c0.7-0.2,1.4-0.5,1.9-0.9c0.6-0.4,1.2-0.7,1.8-0.9c1.7-0.7,4.5-1.9,5-3.8C313.9,117.2,313.8,115.2,310.6,114z"/>
<path class="st2" d="M314.9,114.1c0,0,21.3-8.4,31.9-7.9c1.2,1.9,2.2,3.9,2.9,6c-0.2,0.5-0.6,0.9-1,1.2c-0.6-0.9-1.3-0.9-2.5-0.7
	s-24,6.2-30.8,9.2C314.8,119.3,314.6,116.7,314.9,114.1z"/>
<path class="st18" d="M314.9,114.1c0,0,21.3-8.4,31.9-7.9c1.2,1.9,2.2,3.9,2.9,6c-0.2,0.5-0.6,0.9-1,1.2c-0.6-0.9-1.3-0.9-2.5-0.7
	s-24,6.2-30.8,9.2C314.8,119.3,314.6,116.7,314.9,114.1z"/>
<path class="st7" d="M347.1,128.9c-3.7-2.2-14.3,8.1-43.4,15.8c10.9-1.9,35.2-6.5,41.8-11.9c0.9-0.8,1.7-1.7,2.3-2.8
	C347.8,129.6,347.5,129.2,347.1,128.9z"/>
<path class="st17" d="M351.5,155.3c-0.4,0.8-0.8,1.4-1.2,2s-0.8,1.3-1.1,1.9c-0.8,1.2-1.6,2.4-2.4,3.6c-1.7,2.4-3.4,4.6-5.3,6.8
	c-0.9,1.1-1.9,2.2-2.9,3.3s-2,2.1-3.1,3.1c-2.1,2.1-4.3,4-6.6,5.8l-0.4,0.3c-0.7,0.5-1.4,0.9-2.2,1.1c-3.4,0.8-6.8,1.3-10.3,1.4
	c-3.3,0.1-6.6,0-9.8-0.3c-3.2-0.3-6.4-0.8-9.5-1.4c-3.1-0.6-6.3-1.3-9.3-2.3c-2-0.6-3.2-2.8-2.5-4.8c0.5-1.6,2-2.7,3.7-2.7h0.2
	c2.9,0,5.9,0,8.9,0s5.9-0.2,8.8-0.4s5.7-0.5,8.5-1c2.6-0.4,5.2-1,7.7-1.9l-2.6,1.4c1.7-1.8,3.5-3.5,5.1-5.4s3.2-3.9,4.7-5.9
	s3-4.1,4.4-6.1c0.7-1,1.4-2.1,2.1-3.1l1-1.6l0.9-1.4l0.2-0.3c2.2-3.7,6.9-4.9,10.5-2.7S353.7,151.6,351.5,155.3L351.5,155.3z"/>
<path class="st18" d="M312.6,179.6c-8.3-0.1-16.5-0.9-24.7-2.3l0.1-0.5c0.3,0,25.3,4.7,39.5,0.6c12.3-10.7,20.5-27.9,20.6-28.1
	l0.5,0.2c-0.1,0.2-8.4,17.5-20.8,28.3l-0.1,0.1C322.8,179.1,317.7,179.7,312.6,179.6z"/>
<path class="st8" d="M294.6,171.7c0,0,3,9.8,0.4,13.1c-6.5-1.2-12.9-3-19.2-5.2c0,0-3.1,5.1-9.7,0.6s0-9.4,5.2-9.7
	S294.6,171.7,294.6,171.7z"/>
<path class="st8" d="M295.9,219c-6,0.6-15.1,9-13.9,17.8c6.4-1.8,9.9-4.7,11.3-6.5C296.2,226.3,295.9,219,295.9,219z"/>
<path class="st2" d="M394.7,233.9c22.1,9.5,41.1,24,41.1,24l-5.9,2c0,0,18.7,11,31.2,15.2c-26-6.2-40.4-17.4-40.4-17.4l6.3-1.3
	C426.8,256.3,405.4,239.7,394.7,233.9z"/>
<path class="st2" d="M385.8,162.6c9-1,18.2-1.1,27.2-0.2l-2.4,2.7c0,0,12.4,0,19.8-1.6c-14.6,4.5-25,3.2-25,3.2l2.7-2.5
	C408.2,164.3,392.8,162.4,385.8,162.6z"/>
<path class="st2" d="M386.5,193.9c14.6,1.4,31.4,9.5,37.3,16C411.7,203.9,399.2,198.6,386.5,193.9z"/>
<path class="st2" d="M177,164.1c5.5-1.3,12.8-0.2,15.9,1.6C187.6,165.9,182.2,165.4,177,164.1z"/>
<path class="st2" d="M389.1,305.1c5,2.6,9.9,8.2,11,11.6C396,313.4,392.3,309.5,389.1,305.1z"/>
<path class="st2" d="M194.3,158c13.1-0.6,28.5,1.7,34.2,4.3C207.7,161.1,194.3,158,194.3,158z"/>
<g id="freepik--Smoke--inject-2">
	<g class="st19">
		<circle class="st2" cx="419.2" cy="341.4" r="9.4"/>
		<path class="st2" d="M431.7,398.8c7.3-9.2,5.7-22.6-3.5-29.9c-3.7-2.9-8.3-4.5-13-4.6c-8-13.7-25.5-18.3-39.1-10.3
			c-4,2.3-7.4,5.6-9.9,9.6l0,0c-17.5-5.1-36.3,1.1-47.3,15.6c-1.9-0.3-3.8-0.5-5.7-0.5c-8.5,0-16.7,3-23.2,8.6
			c-2.2-3.5-6.8-4.6-10.4-2.4c-2.2,1.4-3.5,3.8-3.5,6.4c0,0,0,0.1,0,0.1c-0.9-0.1-1.7-0.1-2.6-0.1c-10.2,0-19.6,5.3-24.9,14
			c-0.7-0.1-1.4-0.1-2.2-0.1c-4.6,0-9.1,1.4-12.9,4.1c-2.2,1.6-2.8,4.6-1.2,6.9c0.9,1.3,2.4,2.1,4,2.1h197.3c2.3,0,4.2-1.5,4.8-3.7
			C440,408.3,437.3,401.9,431.7,398.8L431.7,398.8z"/>
	</g>
</g>
</svg>
