<?xml version="1.0" encoding="utf-8"?>
<!-- Generator: Adobe Illustrator 24.2.3, SVG Export Plug-In . SVG Version: 6.00 Build 0)  -->
<svg version="1.1" id="Layer_1" xmlns="http://www.w3.org/2000/svg" xmlns:xlink="http://www.w3.org/1999/xlink" x="0px" y="0px"
	 viewBox="0 0 500 500" style="enable-background:new 0 0 500 500;" xml:space="preserve">
<style type="text/css">
	.st0{fill:#F5F5F5;}
	.st1{fill:#E0E0E0;}
	.st2{fill:#FFE400;}
	.st3{opacity:0.6;fill:#FFFFFF;enable-background:new    ;}
	.st4{opacity:0.4;fill:#FFFFFF;enable-background:new    ;}
	.st5{fill:#FFA8A7;}
	.st6{fill:#F28F8F;}
	.st7{fill:#EBEBEB;}
	.st8{fill:#263238;}
	.st9{fill:#455A64;}
	.st10{fill:#37474F;}
	.st11{opacity:0.2;enable-background:new    ;}
	.st12{fill:#FF9090;}
	.st13{fill:#FFAAA8;}
	.st14{opacity:0.4;enable-background:new    ;}
	.st15{fill:#FFFFFF;}
	.st16{opacity:0.5;fill:#FFFFFF;enable-background:new    ;}
	.st17{font-family:'Arial-BoldMT';}
	.st18{font-size:6.9086px;}
	.st19{opacity:0.5;}
</style>
<g id="freepik--Floor--inject-2">
	<ellipse class="st0" cx="250" cy="356.3" rx="229.9" ry="132.7"/>
</g>
<g id="freepik--Shadows--inject-2">
	<path class="st1" d="M257.3,295.6l-130,75.1c-3.7,2.1-10,1.9-14.3-0.6l-46.2-26.6c-4.2-2.4-4.7-6.1-1-8.2l130-75.1
		c3.7-2.1,10-1.8,14.3,0.6l46.2,26.6C260.5,289.8,261,293.5,257.3,295.6z"/>
	<ellipse class="st1" cx="328.8" cy="342.9" rx="91.1" ry="52.6"/>
	<ellipse class="st1" cx="244.8" cy="396.5" rx="43.1" ry="24.9"/>
	<path class="st1" d="M430.8,358.8c10.1,5.8,10.1,15.3,0,21.1s-26.4,5.8-36.5,0s-10.1-15.3,0-21.1S420.7,353,430.8,358.8z"/>
</g>
<g id="freepik--Character--inject-2">
	<path class="st2" d="M413.4,310.6c-5.8,37.3-43.4,76.8-100.9,65.8c-0.6-0.1-1.1-0.2-1.7-0.3c-1.2-0.3-2.4-0.5-3.6-0.8
		c-60.5-14.5-64.8-53.8-62.1-70.8s18.4-30.8,27.7-36.2s20.9-11.6,31.5-28.8c9.6-15.6,25.1-24.9,48.1-23.4l2,0.2
		c1.6,0.2,3.4,0.4,5.1,0.6C359.5,216.8,426.6,225.2,413.4,310.6z"/>
	<path class="st3" d="M413.4,310.6c-5.8,37.3-43.4,76.8-100.9,65.8c-0.6-0.1-1.1-0.2-1.7-0.3c-1.2-0.3-2.4-0.5-3.6-0.8
		c-60.5-14.5-64.8-53.8-62.1-70.8s18.4-30.8,27.7-36.2s20.9-11.6,31.5-28.8c9.6-15.6,25.1-24.9,48.1-23.4l2,0.2
		c1.6,0.2,3.4,0.4,5.1,0.6C359.5,216.8,426.6,225.2,413.4,310.6z"/>
	<path class="st2" d="M399.1,308.4c-5.5,35.7-37.8,73.8-86.7,68c-0.6-0.1-1.1-0.2-1.7-0.3c47.9,4.7,79.4-32.9,84.8-68.2
		c10.9-70.5-29-87.9-43.2-91.8c-1.3-0.4-2.4-0.6-3.2-0.8l1.9,0.3c1.1,0.2,2.3,0.4,3.4,0.7C367.1,219.3,410.5,235.3,399.1,308.4z"/>
	<path class="st4" d="M399.1,308.4c-5.5,35.7-37.8,73.8-86.7,68c-0.6-0.1-1.1-0.2-1.7-0.3c47.9,4.7,79.4-32.9,84.8-68.2
		c10.9-70.5-29-87.9-43.2-91.8c-1.3-0.4-2.4-0.6-3.2-0.8l1.9,0.3c1.1,0.2,2.3,0.4,3.4,0.7C367.1,219.3,410.5,235.3,399.1,308.4z"/>
	<path class="st2" d="M365.7,306.2c0,0,32.2-74.4-19.9-74.4c0,0-28.1-7.2-40.4,27.4s-47,25.6-47,53.1c0,16.6,7.1,35.6,13.1,47.9
		c5,3.3,10.2,6.1,15.8,8.4l0.2-0.2c0,0,2.1-17.2,14.6-25.6s40.6-16.7,49.8-23.6c8.7-6.5,26.7-4.3,29.6,0.2
		C380,316.4,374.4,305.3,365.7,306.2z"/>
	<path class="st4" d="M365.7,306.2c0,0,32.2-74.4-19.9-74.4c0,0-28.1-7.2-40.4,27.4s-47,25.6-47,53.1c0,16.6,7.1,35.6,13.1,47.9
		c5,3.3,10.2,6.1,15.8,8.4l0.2-0.2c0,0,2.1-17.2,14.6-25.6s40.6-16.7,49.8-23.6c8.7-6.5,26.7-4.3,29.6,0.2
		C380,316.4,374.4,305.3,365.7,306.2z"/>
	<path class="st2" d="M381.5,319.6c0.2,0.5,0.4,0.8,0.4,0.8C381.7,320.1,381.6,319.8,381.5,319.6z"/>
	<path class="st5" d="M258.7,324.3l2.5,38.1c0,0,15.6,1.7,13.8-10.5c0,0-0.8-1.3-0.6-4.3s3.7-18.6,3.8-23.5L258.7,324.3z"/>
	<polygon class="st6" points="260.7,355.5 262.6,357 277,327 274.9,324.1 273,324.2 269.4,327 260.1,346.6 	"/>
	<path class="st2" d="M260.2,362.5c0,0-3.2-6.3,1.4-7.9s7.5,0,7.9,1.7s0.5,4.3,0.5,4.3c2.5-2.3,4.2-5.4,4.9-8.7c0,0,7.2,6.3,6.6,9.6
		s-6.1,10.3-6.8,12.5s-2.4,15.8-9.1,17.8s-16.4,2-14-5.7c0.8-2.7,5-5.8,6-8.4S260.2,362.5,260.2,362.5z"/>
	<path class="st7" d="M272.2,383.8c-2.4-5.5-8.3-8.6-14.2-7.6c-0.1,0.6-0.3,1.1-0.4,1.4c-1,2.6-5.1,5.7-5.9,8.4
		c-2.4,7.7,7.3,7.7,14,5.7C268.8,390.9,270.8,387.4,272.2,383.8L272.2,383.8z"/>
	<path class="st8" d="M280.7,358.6c0.1,0.4,0.1,0.8,0.1,1.1c-0.6,3.4-6.5,10.7-7.3,13s-2.7,16.5-9.8,18.4c-3.3,1-6.7,1.2-10.1,0.9
		c2.9,1.4,7.9,0.9,12-0.3c6.8-2,8.4-15.5,9.1-17.8s6.2-9.2,6.8-12.5C281.6,360.5,281.3,359.5,280.7,358.6z"/>
	<path class="st7" d="M268.4,364.5c-0.1,0-0.2-0.1-0.3-0.1c-3.2-3.2-7.5-1.4-7.7-1.4c-0.2,0.1-0.5,0-0.6-0.2c-0.1-0.2,0-0.5,0.2-0.6
		l0,0c0,0,5.1-2.1,8.7,1.5c0.2,0.2,0.2,0.5,0,0.7C268.6,364.4,268.5,364.4,268.4,364.5L268.4,364.5z"/>
	<path class="st7" d="M268,368c-0.1,0-0.2,0-0.3-0.1c-3.2-3.2-7.5-1.4-7.7-1.4c-0.2,0.1-0.5,0-0.6-0.2c0,0,0,0,0,0
		c-0.1-0.2,0-0.5,0.3-0.6c0,0,5.1-2.1,8.7,1.5c0.2,0.2,0.2,0.5,0,0.6C268.2,368,268.1,368,268,368z"/>
	<path class="st7" d="M267.5,371.5c-0.1,0-0.2,0-0.3-0.1c-3.2-3.2-7.5-1.4-7.7-1.4c-0.2,0.1-0.5-0.1-0.6-0.3c-0.1-0.2,0-0.5,0.2-0.6
		c0,0,5.1-2.1,8.7,1.5c0.2,0.2,0.2,0.4,0,0.6c0,0,0,0,0,0C267.7,371.4,267.6,371.5,267.5,371.5z"/>
	<path class="st7" d="M266.8,375c-0.1,0-0.2-0.1-0.3-0.1c-3.2-3.2-7.5-1.4-7.7-1.4c-0.2,0.1-0.5,0-0.6-0.2c-0.1-0.2,0-0.5,0.2-0.6
		c0,0,5.1-2.1,8.7,1.5c0.2,0.2,0.2,0.5,0,0.7C267,375,266.9,375,266.8,375L266.8,375z"/>
	<path class="st9" d="M326.1,292.5l-15.1,7.8l-27.3,14.2c-2.5,1.3-4.3,3.5-5.1,6.2c-0.3,0.9-0.4,1.9-0.5,2.9v0.5
		c-0.6,0.4-1.2,0.8-1.9,1.1c-2.1,1.1-4.5,1.7-6.8,1.8c-3.8,0.1-7.5-0.9-10.7-2.7c0,0-0.1-4.5-0.3-11.9s6.1-10.8,11.9-15.1
		s36.7-17.4,36.7-17.4L326.1,292.5z"/>
	<polygon class="st10" points="307,297.7 323.8,292.7 326.1,295 308.4,301.7 	"/>
	<path class="st10" d="M312.5,301.6l-33.9,19.1l-0.4,0.2l-2,4.3c-2.1,1.1-4.5,1.7-6.8,1.8l3.7-7.8c0.9-1.9,2.4-3.5,4.2-4.5l29.7-17
		c0,0-0.2-5,0.8-7.2c0,0,0.2,6.3,3.3,9.8C311.4,300.8,311.9,301.3,312.5,301.6z"/>
	<path class="st5" d="M267,337l-21.6,45.6c0,0-1.7,9.2,4.3,9.2s7-3.1,7-3.1s0.6-3.9,5.7-11s20.9-21,24.3-30.9L267,337z"/>
	<path class="st9" d="M355.1,298.4c0,0-3,13.1-8.6,17.7s-10.2,7.6-29.1,11.6c-12.4,2.6-20.5,4.8-24.6,6c-1.9,0.6-3.3,2.1-3.7,4
		c-0.6,3-1.4,6-2.3,9c0,0-12.4,0.4-19.7-9.9l7.2-13.8c1.9-3.6,4.6-6.6,8.1-8.7c8.4-5.3,17.1-10.2,26.1-14.5
		c14.7-6.8,16.7-8.1,16.7-8.1L355.1,298.4z"/>
	<path class="st5" d="M307.3,247.9l-14,21.9l10.6,10.1l15.8-24.4C319.7,255.5,315,247.3,307.3,247.9z"/>
	<path class="st2" d="M307.3,247.9c0,0,8.4,2.2,10.4,7.6l16.9-20.4l-2.7-9.9c-5-0.8-10,1.1-13.2,5
		C314.9,234.5,307.3,247.9,307.3,247.9z"/>
	<path class="st11" d="M307.3,247.9c0,0,8.4,2.2,10.4,7.6l16.9-20.4l-2.7-9.9c-5-0.8-10,1.1-13.2,5
		C314.9,234.5,307.3,247.9,307.3,247.9z"/>
	<path class="st8" d="M335.8,176.9c0,0-4-3.3-8.6,1.8s-0.4,20-7.2,19.2c0,0,4.5,4.8,8.9,1.4c0.2-0.1,0.3-0.2,0.5-0.3
		c1.8-0.3,3.4,2.8,4.1,3.9c1.9,3.1,3.6,6.3,5.6,9.4s4.4,7.4,7.6,9.3c3.8,2.3,9.4,1.9,13.3,0.2c6.3-2.9,10.6-9.5,12.8-15.9
		c1-2.8,1.9-6.1,1.5-9.1c-0.6-4.7-4.1-6.3-4.1-6.1c0,0,1.5-11.9-14-14.8C341.7,173.1,335.8,176.9,335.8,176.9z"/>
	<path class="st5" d="M356.3,214.9l-1.6,14.4l4.7,2c0,0-23,11.6-28.3,9.8s5.6-15.7,5.6-15.7l2.7,0.3l0.4-6.7L356.3,214.9z"/>
	<path class="st12" d="M352.1,217.7l-6.2-0.1l-6.1,1.5l-0.3,4.8C349.4,221.7,352.1,217.7,352.1,217.7z"/>
	<path class="st5" d="M335.8,182.7c0,0-6.6,3-8.3,17.2s0.7,20.8,9.6,20.8c7.2,0,15.6-1,19.3-5.7c0.9-1.2,2.7-29.1-4.9-33
		S335.8,182.7,335.8,182.7z"/>
	<path class="st8" d="M335.8,181.4c0,0-0.3,15.2,16.9,19.9c0,0-1.3,8,3.6,8h4.7v-14c0-8.8-7.1-15.9-15.9-15.9l0,0h-7.2
		C336.7,179.4,335.8,180.3,335.8,181.4L335.8,181.4z"/>
	<polygon class="st12" points="336.9,199.3 336.9,207.9 331.8,206.4 	"/>
	<circle class="st8" cx="342.1" cy="202.2" r="1.3"/>
	<path class="st8" d="M333.5,200c0,0.7-0.6,1.3-1.3,1.3s-1.3-0.6-1.3-1.3c0-0.7,0.6-1.3,1.3-1.3c0,0,0,0,0,0
		C332.9,198.7,333.5,199.3,333.5,200z"/>
	<path class="st8" d="M330.6,195.1l3.3-0.9c0,0-0.8-1.4-2-1S330.6,195.1,330.6,195.1z"/>
	<path class="st13" d="M356.1,208c-0.1-1.4,0.2-2.9,0.8-4.2c0.6-1.7,2.1-2.9,3.8-3c4.4-0.1,5,4.1,5,5.6c-0.2,4-3.4,8.3-9.4,8.4
		L356.1,208z"/>
	<path class="st2" d="M336.8,225.5l-4.9-0.4c0,0-18.5,13.7-17.3,23.3c0.7,5.6,2.4,8.7,3.5,10.2c0.6,0.9,0.9,2,0.6,3.1
		c-0.7,3-2.1,8.6-4.2,11.2c-2.2,2.6-4.7,4.9-7.5,6.9c0,0,5.6,10.2,16.3,15.5s28,5.8,31.8,3l5-28.6l2.5-36.9l-4.1-1.9
		c0,0-19.8,9.3-26,8.8C329.3,239.4,336.8,225.5,336.8,225.5z"/>
	<path class="st11" d="M328.7,260.8c2.8,2,6.1,3.1,9.6,3c3.5,0.1,6.9-1.2,9.6-3.5c0,0-2.6,4.9-9.8,4.9S328.7,260.8,328.7,260.8z"/>
	<path class="st5" d="M351.6,266.1l-3,12.9c-6.1-1.4-12.2-2.4-18.4-3.1c-11.1-1.3-13.3-2-13.3-2l0.7,12.1c0,0,13.5,5.4,25.8,7.2
		s15.6,1.3,18.8-8.7s4.3-14,4.3-14L351.6,266.1z"/>
	<path class="st2" d="M362.6,232.9c0,0-9.2,6.6-8.1,21.2c0,0-2.5,11-2.8,12c0,0,5.4,4.2,14.9,4.4l6.1-21.9c1.4-4.8-0.5-10-4.7-12.8
		C366.2,234.6,364.4,233.7,362.6,232.9z"/>
	<path class="st11" d="M362.6,232.9c0,0-9.2,6.6-8.1,21.2c0,0-2.5,11-2.8,12c0,0,5.4,4.2,14.9,4.4l6.1-21.9c1.4-4.8-0.5-10-4.7-12.8
		C366.2,234.6,364.4,233.7,362.6,232.9z"/>
	<path class="st10" d="M314.9,290.4l-0.3-1.3l-5.5-25.8c0,0,0.4-0.8,0.7-1.4c0.2,0.1,0.3,0.2,0.4,0.4c0.3,0.3,0.5,0.7,0.6,1.1
		l5.6,24.5l0.1,0.4C316.9,289.7,314.9,290.4,314.9,290.4z"/>
	<path class="st9" d="M310.2,262.2l-1.1,1.1l-13.5-4.5l-1.1-0.4l0.6-0.6c0.1-0.1,0.2-0.2,0.3-0.3c0.4-0.3,0.9-0.4,1.4-0.2l12.4,4.2
		C309.6,261.7,310,261.9,310.2,262.2z"/>
	<path class="st8" d="M294.3,259.1l6.2,24.6c0.3,1,1,1.9,2,2.2l11.7,4.5c0.5,0.2,1.1,0,1.3-0.5c0.1-0.2,0.1-0.4,0-0.6l-5.8-24.8
		c-0.2-0.8-0.8-1.5-1.6-1.8l-12.9-4.4c-0.4-0.1-0.8,0-0.9,0.4C294.2,258.8,294.2,258.9,294.3,259.1z"/>
	<path class="st2" d="M256.6,388.8c-2,1.2-4.5,1.5-6.7,0.8c0,0,1.6-4.2-1.4-6s-6.1-1.8-6.9,0.8l-0.8,2.6c0,0-7.7,6.1-10.6,7.9
		s-5.7,3.3-7.9,4.7s-7.8,5.5-2.9,10.6s19.2,2.5,22.8-3.4s14.1-3,14.1-10.1S256.6,388.8,256.6,388.8z"/>
	<path class="st7" d="M228.8,395.6c-2.4,1.5-4.7,2.6-6.5,3.8c-2.2,1.4-7.8,5.5-2.9,10.6c3.7,3.9,13.1,3.3,18.9,0.1
		C238.4,398.4,231.2,396.3,228.8,395.6z"/>
	<path class="st8" d="M242.5,404.9c-3.8,6.1-19,8.9-24.1,3.5c-0.2-0.2-0.4-0.5-0.6-0.7c0.4,0.9,0.9,1.7,1.6,2.3
		c4.8,5.1,19.2,2.5,22.8-3.4c3.5-5.5,13.1-3.2,14.1-9.1C253.4,400.9,245.6,399.9,242.5,404.9z"/>
	<path class="st7" d="M246.7,393.2c-0.2,0-0.4-0.2-0.5-0.4c-0.8-4.5-5.5-5.5-5.5-5.5c-0.2-0.1-0.4-0.3-0.4-0.5
		c0.1-0.2,0.3-0.4,0.6-0.4c0.1,0,5.4,1.2,6.3,6.3C247.2,392.9,247,393.1,246.7,393.2L246.7,393.2z"/>
	<path class="st7" d="M244.1,395.2c-0.2,0-0.4-0.2-0.5-0.4c-0.8-4.5-5.5-5.5-5.5-5.5c-0.2-0.1-0.4-0.3-0.4-0.5
		c0-0.2,0.3-0.4,0.5-0.4c0,0,0,0,0,0c0.1,0,5.4,1.2,6.3,6.2C244.6,394.9,244.5,395.2,244.1,395.2
		C244.2,395.2,244.2,395.2,244.1,395.2L244.1,395.2z"/>
	<path class="st7" d="M241.2,397.5c-0.2,0-0.4-0.2-0.5-0.4c-0.8-4.4-5.3-5.5-5.5-5.5c-0.3-0.1-0.4-0.3-0.4-0.6
		c0.1-0.2,0.3-0.4,0.5-0.4c0,0,0,0,0,0c0.1,0,5.4,1.2,6.3,6.2C241.7,397.2,241.5,397.5,241.2,397.5
		C241.2,397.5,241.2,397.5,241.2,397.5L241.2,397.5z"/>
	<path class="st7" d="M238.6,399.4c-0.2,0-0.4-0.2-0.4-0.4c-0.8-4.4-5.4-5.5-5.5-5.5c-0.2-0.1-0.4-0.3-0.4-0.5
		c0-0.2,0.3-0.4,0.5-0.4c0,0,0,0,0,0c0,0,5.4,1.2,6.3,6.3C239.1,399.1,239,399.4,238.6,399.4C238.7,399.4,238.7,399.4,238.6,399.4
		L238.6,399.4z"/>
	<path class="st12" d="M335.8,210c1.8,0.1,3.5-0.4,5-1.4c0,0,0.3,2.6-1.9,3.1S335.8,210,335.8,210z"/>
	<path class="st5" d="M296.1,270.8c-0.2-0.4-0.1-0.9-0.2-1.4c-0.2-1-0.6-2-1.2-2.9c-0.2-0.5-0.6-0.9-1-1.3c-0.5-0.3-1.1-0.2-1.5,0.2
		c-0.1,0.3-0.2,0.6-0.2,0.9c-0.1,1.4,0,2.8,0.4,4.1c0.3,1-0.3,2.3-0.5,3.3c-0.2,1.5,0.4,2.2,0.7,3.7c0.8,3.4,3.6,5,7,4.4
		c7-1.3,6.7-10.7,5.8-12s-2.5-2.1-5.3,0.2c-0.9,0.7-2.3,1.7-3.6,1.2C296.4,271.1,296.2,271,296.1,270.8z"/>
	<path class="st5" d="M319.6,274.9c-1.7-3-4.4-5.3-7.6-6.4l1,4.2c0,0-4.9,0.9-8,0.4s-8.7-4.1-7.8-0.1s1.8,6.7,4.1,8.6
		c2.5,2.1,5.5,3.4,8.6,3.8c3.3,0.3,7.6,0.7,7.6,0.7L319.6,274.9z"/>
	<path class="st12" d="M301.4,281.9c-0.1,0-0.1,0-0.1,0c-2.3-1.9-3.3-4.5-4.2-8.7c-0.2-0.9-0.1-1.5,0.3-1.9c0.8-0.7,2.7,0,4.8,0.7
		c1,0.4,2,0.7,3,1c0.4,0.1,0.9,0.1,1.4,0.1c0.1,0,0.2,0.1,0.2,0.2c0,0.1-0.1,0.2-0.2,0.2c0,0,0,0,0,0c-0.5,0-0.9-0.1-1.4-0.1
		c-1.1-0.2-2.1-0.6-3.1-1c-1.7-0.6-3.7-1.4-4.3-0.8c-0.3,0.2-0.3,0.7-0.2,1.4c0.9,4.1,1.8,6.7,4,8.4c0.1,0.1,0.1,0.2,0,0.3
		C301.4,281.8,301.4,281.9,301.4,281.9z"/>
	<path class="st8" d="M369.6,191c4.2-2.4,9.3-2.2,13.3,0.5c3.9,2.8,6.3,7.1,6.6,11.9c0.7,9.7-2.9,12.5-6.6,24.1
		c-1.2,3.8,0,8.3,9.7,12.8c0,0-25.1,4.9-20.8-20.4c3.1-18.3-3.6-17.6-3.6-17.6L369.6,191z"/>
</g>
<g id="freepik--Plant--inject-2">
	<path class="st2" d="M417.1,342.1c0,0-12.6-12.3-5.4-32.9c4-11.5,17.3-20,24.9-20.8c-2.5,3-4.5,6.4-5.9,10l-9.5,6.3l8.8-2.7
		l-1.9,7.5c0,0-8.1,4.9-9.4,6l8.8-2.3C427.5,313.2,426.8,334.5,417.1,342.1z"/>
	<path class="st14" d="M417.1,342.1c0,0-12.6-12.3-5.4-32.9c4-11.5,17.3-20,24.9-20.8c-2.5,3-4.5,6.4-5.9,10l-9.5,6.3l8.8-2.7
		l-1.9,7.5c0,0-8.1,4.9-9.4,6l8.8-2.3C427.5,313.2,426.8,334.5,417.1,342.1z"/>
	<path class="st15" d="M417.1,342.1c0,0-6.5-25.7,3.1-40.7C420.3,301.4,409,314.6,417.1,342.1z"/>
	<path class="st10" d="M431.5,345.6l-15.4-0.2H416l-15.4,0.2c0,0-0.2,19,5.7,26.7l0,0c1.6,2,5.4,3.5,9.8,3.5s8.2-1.5,9.8-3.5
		C431.7,364.5,431.5,345.6,431.5,345.6z"/>
	<ellipse class="st9" cx="416.1" cy="345.6" rx="15.5" ry="8.3"/>
	<path class="st8" d="M416.1,343.4c5.3,0,9.8,1.7,11.4,4.1c0.4-0.5,0.6-1.2,0.6-1.9c0-3.3-5.4-5.9-12-5.9s-12,2.7-12,5.9
		c0,0.7,0.2,1.3,0.6,1.9C406.3,345.1,410.8,343.4,416.1,343.4z"/>
	<path class="st1" d="M416.1,343.4c-5.3,0-9.8,1.7-11.4,4.1c1.6,2.4,6.1,4.1,11.4,4.1s9.8-1.7,11.4-4.1
		C425.9,345.1,421.4,343.4,416.1,343.4z"/>
	<path class="st2" d="M416.3,348.5c0,0-6-0.2-11.1-8.1c-2.1-3.3-3.1-5-3.1-5l8.3-0.6l-9.3-2.3l-4.4-6.7l7.7-0.6c0,0-5.8-2-9.9-2
		c0,0-7.1-12.6-9.2-14.4c10.9,0.7,21,5.7,28.1,14C425.2,336.5,418,348.8,416.3,348.5z"/>
	<path class="st15" d="M416.3,348.5c0,0,3.7-22.5-20.1-36C396.2,312.5,420.9,324.4,416.3,348.5z"/>
	<path class="st2" d="M416.3,348.5c0,0,5.4,0.4,10.8-6.3c2.2-2.7,3.3-4.2,3.3-4.2l-7.4-1.3l8.6-1.2l4.6-5.6l-6.9-1.2
		c0,0,5.4-1.3,9.1-0.9c0,0,7.6-10.7,9.7-12.1c-9.9-0.4-19.5,3.2-26.7,10C409.4,336.8,414.7,348.6,416.3,348.5z"/>
	<path class="st11" d="M416.3,348.5c0,0,5.4,0.4,10.8-6.3c2.2-2.7,3.3-4.2,3.3-4.2l-7.4-1.3l8.6-1.2l4.6-5.6l-6.9-1.2
		c0,0,5.4-1.3,9.1-0.9c0,0,7.6-10.7,9.7-12.1c-9.9-0.4-19.5,3.2-26.7,10C409.4,336.8,414.7,348.6,416.3,348.5z"/>
	<path class="st15" d="M416.3,348.5c0,0-1.3-20.6,21.5-30.6C437.8,317.9,414.4,326.3,416.3,348.5z"/>
</g>
<g id="freepik--Device--inject-2">
	<path class="st9" d="M104.4,347.8l101.8-58.8c7.2-4.1,13-15.3,13-24.8V46.3c0-9.6-5.8-14-13-9.8L104.4,95.2
		c-7.2,4.2-13,15.3-13,24.8V338C91.4,347.6,97.2,352,104.4,347.8z"/>
	<path class="st10" d="M92.7,88.4l101.8-58.8c3.1-1.8,5.9-2,8.1-0.9l0,0c0.3,0.1,0.5,0.3,0.8,0.5l11.4,6.6c-2.3-1.4-5.3-1.3-8.6,0.6
		L104.4,95.2c-7.2,4.2-13,15.3-13,24.8V338c0,5.1,1.6,8.7,4.2,10.3l-11.3-6.5l0,0c-2.9-1.5-4.7-5.3-4.7-10.6V113.2
		C79.7,103.7,85.5,92.5,92.7,88.4z"/>
	<path class="st8" d="M91.4,120.1V338c0,5.1,1.6,8.7,4.2,10.3l-11.3-6.5l0,0c-2.9-1.5-4.7-5.3-4.7-10.6V113.2l0,0L91.4,120.1
		L91.4,120.1z"/>
	<polygon class="st10" points="79.7,130.1 91.4,136.9 91.4,142.2 79.7,135.4 	"/>
	<path class="st10" d="M84.8,165.3L84.8,165.3c1,0.6,1.9,0,1.9-1.4v-11.4c0-1.4-0.7-2.8-1.9-3.6l0,0c-1-0.6-1.9,0-1.9,1.4v11.4
		C82.9,163.1,83.6,164.5,84.8,165.3z"/>
	<path class="st9" d="M86.7,163.9v-11.4c0-1.4-0.7-2.8-1.9-3.6c-0.3-0.2-0.8-0.3-1.2-0.1l0,0L85,148l0,0c0.4-0.2,0.9-0.2,1.2,0.1
		c1.2,0.8,1.9,2.2,1.9,3.6v11.4c0.1,0.6-0.2,1.2-0.6,1.5l0,0l-1.5,0.8l0,0C86.5,165,86.8,164.5,86.7,163.9z"/>
	<path class="st10" d="M84.8,192.8L84.8,192.8c1,0.6,1.9,0,1.9-1.4V180c0-1.4-0.7-2.8-1.9-3.6l0,0c-1-0.6-1.9,0-1.9,1.4v11.4
		C82.9,190.6,83.6,192,84.8,192.8z"/>
	<path class="st9" d="M86.7,191.4V180c0-1.4-0.7-2.8-1.9-3.6c-0.3-0.2-0.8-0.3-1.2-0.1l0,0l1.4-0.7l0,0c0.4-0.2,0.9-0.2,1.2,0.1
		c1.2,0.8,1.9,2.2,1.9,3.6v11.4c0.1,0.6-0.2,1.2-0.6,1.5l0,0l-1.5,0.8l0,0C86.5,192.6,86.8,192,86.7,191.4z"/>
	<path class="st2" d="M107.9,101.3L208,43.6c1.3-0.7,3-0.2,3.7,1.1c0.2,0.4,0.3,0.8,0.3,1.3v218.2c0,7.3-5.2,16.2-11.5,19.9
		L103,340.4c-1.4,0.9-3.3,0.4-4.1-1c-0.3-0.5-0.5-1.1-0.4-1.6V117.7C98.5,111.7,102.7,104.4,107.9,101.3z"/>
	<path class="st16" d="M107.9,101.3L208,43.6c1.3-0.7,3-0.2,3.7,1.1c0.2,0.4,0.3,0.8,0.3,1.3v218.2c0,7.3-5.2,16.2-11.5,19.9
		L103,340.4c-1.4,0.9-3.3,0.4-4.1-1c-0.3-0.5-0.5-1.1-0.4-1.6V117.7C98.5,111.7,102.7,104.4,107.9,101.3z"/>
	<polygon class="st9" points="178,58.7 176.5,65.2 143.3,84.3 137.6,81.3 	"/>
	<path class="st8" d="M168.3,65c0,1.1,0.8,1.5,1.7,1c1-0.7,1.6-1.7,1.7-2.9c0-1.1-0.8-1.5-1.7-1C169,62.7,168.4,63.8,168.3,65z"/>
	<path class="st8" d="M146,78.8c0.2,0,0.4,0,0.5-0.1l16.9-9.5c0.5-0.3,0.7-0.9,0.4-1.4c0,0,0,0,0,0c-0.3-0.5-0.9-0.7-1.4-0.4
		l-16.9,9.5c-0.5,0.3-0.7,0.9-0.4,1.4C145.3,78.6,145.6,78.8,146,78.8z"/>
</g>
<g id="freepik--Screen--inject-2">
	<path class="st0" d="M232.2,299.6c-21.9,13-78.7,47-106.9,63.9c-2.6,1.6-6,0.7-7.6-1.9c-0.5-0.9-0.8-1.8-0.8-2.9V123.6
		c0-5.4,2.9-10.5,7.6-13.2l108.2-63.4c2.6-1.5,6-0.7,7.6,2c0.5,0.8,0.8,1.8,0.8,2.8V284C241,290.4,237.7,296.3,232.2,299.6z"/>
	<path class="st1" d="M231.7,298.8c-17.2,10.2-34.3,20.5-51.5,30.7l-30.5,18.2l-13.9,8.3l-6.1,3.7c-1.8,1.1-3.8,2.7-5.8,3.4
		c-3.2,1.1-6.1-1.5-6.2-4.6c0-0.5,0-1.1,0-1.6V141.3c0-5.7,0-11.5,0-17.2c-0.1-5.4,2.8-10.4,7.5-13.2c2.5-1.5,5-2.9,7.5-4.4
		L167.6,86l41.4-24.3c7.9-4.6,15.7-9.2,23.6-13.8c2.3-1.3,5.1-1.2,6.8,1.2c0.6,1,0.8,2.1,0.8,3.2c0,2,0,4.1,0,6.2v224.7
		C240.1,289.6,237.3,295.4,231.7,298.8c-0.9,0.6-0.1,2.1,0.9,1.5c5.9-3.6,9.4-10.1,9.3-17.1V68.7c0-5.6,0.1-11.2,0-16.8
		c0.1-3.6-2.8-6.6-6.4-6.6c-1.3,0-2.5,0.3-3.6,1c-2.6,1.5-5.2,3-7.8,4.6L188.2,72l-41.8,24.5c-7.4,4.3-14.8,8.6-22.2,13
		c-5.2,3-8.3,8.6-8.2,14.5c0,1.9,0,3.8,0,5.8v227.9c0,0.4,0,0.7,0,1.1c0,3.6,3,6.4,6.5,6.4c0.6,0,1.3-0.1,1.9-0.3
		c2-0.7,4-2.2,5.8-3.3l6.2-3.7l13.9-8.3c20.2-12.1,40.4-24.2,60.7-36.3l21.6-12.9c0.4-0.3,0.4-0.8,0.1-1.2
		C232.5,298.8,232.1,298.7,231.7,298.8z"/>
	<path class="st1" d="M175.9,326.2l7-4c1.4-1,2.3-2.7,2.3-4.4v-7.2c0-1.7-1-2.5-2.3-1.7l-7,4c-1.4,1-2.3,2.7-2.3,4.4v7.2
		C173.6,326.1,174.6,326.9,175.9,326.2z"/>
	<path class="st15" d="M179.3,320.9c0.4-0.3,0.7-0.7,0.7-1.3v-5.2c0-0.5-0.3-0.6-0.7-0.4c-0.4,0.3-0.7,0.7-0.7,1.3v5.2
		C178.6,321,178.9,321.1,179.3,320.9z"/>
	<path class="st15" d="M177.1,319.6l4.5-2.6c0.4-0.3,0.7-0.7,0.7-1.3c0-0.5-0.3-0.6-0.7-0.4l-4.5,2.6c-0.4,0.3-0.7,0.7-0.7,1.3
		C176.4,319.7,176.7,319.9,177.1,319.6z"/>
	<path class="st1" d="M157.6,325.4c0.7-0.6,1.8-0.6,2.4,0.1c0.4,0.4,0.5,0.9,0.4,1.5c0,1-0.3,1.9-0.8,2.7c-0.5,0.8-1.2,1.6-2,2.1
		c-0.6,0.4-1.3,0.5-2,0.2c-1.1-0.6-1.1-2.6,0-4.5C156,326.6,156.7,325.9,157.6,325.4 M157.6,323.7c-1.3,0.8-2.3,1.9-3,3.1
		c-1.6,2.9-1.6,5.9,0,6.9c1,0.4,2.1,0.3,3-0.3c1.3-0.8,2.3-1.9,3-3.1c1.6-2.9,1.6-5.9,0-6.9C159.6,323,158.4,323.1,157.6,323.7
		L157.6,323.7z"/>
	<path class="st1" d="M151.5,340c0.2-0.1,0.4-0.3,0.5-0.5l3.1-5.5c0.3-0.5,0.3-1,0-1.2s-0.7,0.1-1,0.6l-3.1,5.5
		c-0.3,0.5-0.3,1,0,1.2C151.2,340.1,151.3,340.1,151.5,340z"/>
	<path class="st1" d="M196.8,300.7c1.7-1,3.1,0.1,3.1,2.5c0-2.4,1.2-4.7,3.1-6.1c1.7-1,3.1,0.1,3.1,2.5c0,6-6.3,12.2-6.3,12.2
		s-6.3,1.1-6.3-5C193.7,304.4,194.9,302.1,196.8,300.7z"/>
	<path class="st1" d="M218.7,290c0,1.8,1.3,2.5,2.8,1.6c1.6-1.1,2.7-2.9,2.8-4.8c0-1.8-1.3-2.5-2.8-1.6
		C219.8,286.3,218.8,288.1,218.7,290z"/>
	<path class="st1" d="M221.5,291.7L221.5,291.7c2.3-1.3,4.1,0.1,4.1,3.1v0.9l-8.3,4.8v-1C217.3,296.5,219.2,293,221.5,291.7z"/>
	<path class="st1" d="M135.8,336.3l5.6,1.8v7.9l-4.3,2.4v-4.3c0-0.8-0.6-1.1-1.3-0.7c-0.7,0.5-1.2,1.3-1.3,2.2v4.2l-4.3,2.5v-7.8
		L135.8,336.3z"/>
	<path class="st1" d="M116.9,340.7c-0.2,0-0.4-0.1-0.5-0.3c-0.2-0.3-0.1-0.6,0.2-0.8c0,0,0,0,0,0L240.7,268c0.3-0.2,0.6-0.1,0.8,0.2
		c0.2,0.3,0.1,0.6-0.2,0.8c0,0,0,0,0,0l-124.1,71.6C117.1,340.7,117,340.7,116.9,340.7z"/>
	<path class="st1" d="M124.5,110.3l108.2-63.4c2.6-1.5,6-0.7,7.6,2c0.5,0.8,0.8,1.8,0.8,2.8v10.2l0,0l-124.1,71.6v-10
		C116.9,118.1,119.8,113.1,124.5,110.3z"/>
	<ellipse transform="matrix(0.5 -0.866 0.866 0.5 -52.9418 192.7076)" class="st2" cx="140.4" cy="142.2" rx="12.7" ry="7.3"/>
	<path class="st9" d="M154.4,140.4c-0.6,0-1-0.4-1-1c0-0.4,0.2-0.7,0.5-0.9l14.9-8.6c0.5-0.3,1.1-0.1,1.4,0.4
		c0.3,0.5,0.1,1.1-0.4,1.4l-14.9,8.6C154.8,140.3,154.6,140.4,154.4,140.4z"/>
	<path class="st9" d="M154.4,131.8c-0.6,0-1-0.4-1-1c0-0.4,0.2-0.7,0.5-0.9l40.8-23.6c0.5-0.3,1.1-0.1,1.3,0.4
		c0.2,0.5,0.1,1-0.3,1.3L155,131.7C154.8,131.8,154.6,131.8,154.4,131.8z"/>
	<path class="st2" d="M149.4,303.4c0,5.7-4,12.7-9,15.6s-9,0.5-9-5.2s4-12.7,9-15.6S149.4,297.6,149.4,303.4z"/>
	<path class="st9" d="M154.4,306.8c-0.6,0-1-0.4-1-1c0-0.4,0.2-0.7,0.5-0.9l14.9-8.6c0.5-0.3,1.1-0.2,1.4,0.3
		c0.3,0.5,0.2,1.1-0.3,1.4c0,0,0,0-0.1,0l-14.9,8.6C154.7,306.7,154.6,306.7,154.4,306.8z"/>
	<path class="st9" d="M154.4,298.2c-0.6,0-1-0.4-1-1c0-0.4,0.2-0.7,0.5-0.9l40.8-23.6c0.5-0.3,1.1-0.1,1.3,0.4
		c0.2,0.5,0.1,1-0.3,1.3L155,298C154.8,298.1,154.6,298.2,154.4,298.2z"/>
	<path class="st2" d="M149.4,251.5c0,5.7-4,12.7-9,15.6s-9,0.5-9-5.2s4-12.7,9-15.6S149.4,245.8,149.4,251.5z"/>
	<path class="st9" d="M154.4,254.9c-0.6,0-1-0.5-1-1c0-0.3,0.2-0.7,0.5-0.8l14.9-8.6c0.5-0.3,1.1-0.2,1.4,0.3
		c0.3,0.5,0.2,1.1-0.3,1.4c0,0,0,0-0.1,0l-14.9,8.6C154.7,254.8,154.6,254.9,154.4,254.9z"/>
	<path class="st9" d="M154.4,246.3c-0.4,0-0.7-0.2-0.9-0.5c-0.3-0.5-0.1-1.1,0.4-1.4l40.8-23.6c0.5-0.3,1.1-0.1,1.4,0.4
		c0.3,0.5,0.1,1.1-0.4,1.4c0,0,0,0,0,0L155,246.2C154.8,246.3,154.6,246.3,154.4,246.3z"/>
	<text transform="matrix(0.87 -0.5 0 1 131.4342 284.8765)" class="st9 st17 st18">Status upda</text>
	<text transform="matrix(0.87 -0.5 0 1 168.896 263.3468)" class="st9 st17 st18">t</text>
	<text transform="matrix(0.87 -0.5 0 1 171.5935 261.7965)" class="st9 st17 st18">ed</text>
	<path class="st2" d="M223.3,177l-87.9,50.8c-1.3,0.7-2.9,0.3-3.6-1c-0.2-0.4-0.4-0.9-0.4-1.3v-55.6c0-2.3,1.2-4.4,3.2-5.5
		l87.9-50.8c1.3-0.7,2.9-0.3,3.6,1c0.2,0.4,0.3,0.8,0.3,1.3v55.7C226.5,173.8,225.3,175.9,223.3,177z"/>
	<path class="st16" d="M223.3,177l-87.9,50.8c-1.3,0.7-2.9,0.3-3.6-1c-0.2-0.4-0.4-0.9-0.4-1.3v-55.6c0-2.3,1.2-4.4,3.2-5.5
		l87.9-50.8c1.3-0.7,2.9-0.3,3.6,1c0.2,0.4,0.3,0.8,0.3,1.3v55.7C226.5,173.8,225.3,175.9,223.3,177z"/>
	<ellipse transform="matrix(0.5 -0.866 0.866 0.5 -64.9664 245.2643)" class="st15" cx="179.9" cy="178.9" rx="24.8" ry="14.3"/>
	<path class="st2" d="M226.5,150.6v20.9c0,2.3-1.2,4.4-3.2,5.5l-87.9,50.8c-1.2,0.7-2.9,0.3-3.6-0.9c-0.2-0.4-0.4-0.9-0.4-1.3v-20
		L226.5,150.6z"/>
	<path class="st2" d="M157.7,206.4c-0.5,0-1-0.2-1.3-0.6c-0.4-0.3-0.6-0.4-1.1-0.1c-0.2,0.2-0.6,0.2-0.8,0c-0.2-0.2-0.2-0.6,0-0.8
		c0.1-0.1,0.2-0.1,0.2-0.1c0.8-0.5,1.8-0.4,2.4,0.2c0.4,0.3,0.6,0.4,1.1,0.1c0.7-0.5,1.2-1.2,1.5-2c0.4-1,1.1-1.9,2-2.5
		c0.8-0.5,1.8-0.4,2.4,0.2c0.4,0.3,0.6,0.4,1.1,0.1c0.7-0.5,1.2-1.2,1.5-2c0.4-1,1.1-1.9,2-2.5c0.8-0.5,1.8-0.4,2.4,0.2
		c0.4,0.3,0.6,0.4,1.1,0.1c0.3-0.2,0.7-0.1,0.8,0.2c0.2,0.3,0.1,0.7-0.2,0.8c0,0,0,0,0,0c-0.8,0.5-1.8,0.4-2.4-0.2
		c-0.4-0.3-0.6-0.4-1.1-0.1c-0.7,0.5-1.2,1.2-1.5,2c-0.4,1-1.1,1.9-2,2.5c-0.8,0.5-1.8,0.4-2.4-0.2c-0.4-0.3-0.6-0.4-1.1-0.1
		c-0.7,0.5-1.2,1.2-1.5,2c-0.4,1-1.1,1.9-2,2.5C158.5,206.3,158.1,206.4,157.7,206.4z"/>
	<g class="st19">
		<path class="st15" d="M157.7,206.4c-0.5,0-1-0.2-1.3-0.6c-0.4-0.3-0.6-0.4-1.1-0.1c-0.2,0.2-0.6,0.2-0.8,0c-0.2-0.2-0.2-0.6,0-0.8
			c0.1-0.1,0.2-0.1,0.2-0.1c0.8-0.5,1.8-0.4,2.4,0.2c0.4,0.3,0.6,0.4,1.1,0.1c0.7-0.5,1.2-1.2,1.5-2c0.4-1,1.1-1.9,2-2.5
			c0.8-0.5,1.8-0.4,2.4,0.2c0.4,0.3,0.6,0.4,1.1,0.1c0.7-0.5,1.2-1.2,1.5-2c0.4-1,1.1-1.9,2-2.5c0.8-0.5,1.8-0.4,2.4,0.2
			c0.4,0.3,0.6,0.4,1.1,0.1c0.3-0.2,0.7-0.1,0.8,0.2c0.2,0.3,0.1,0.7-0.2,0.8c0,0,0,0,0,0c-0.8,0.5-1.8,0.4-2.4-0.2
			c-0.4-0.3-0.6-0.4-1.1-0.1c-0.7,0.5-1.2,1.2-1.5,2c-0.4,1-1.1,1.9-2,2.5c-0.8,0.5-1.8,0.4-2.4-0.2c-0.4-0.3-0.6-0.4-1.1-0.1
			c-0.7,0.5-1.2,1.2-1.5,2c-0.4,1-1.1,1.9-2,2.5C158.5,206.3,158.1,206.4,157.7,206.4z"/>
	</g>
	<path class="st2" d="M201.8,181.5c-0.5,0-1-0.2-1.3-0.6c-0.4-0.3-0.6-0.4-1.1-0.1c-0.2,0.2-0.6,0.2-0.8,0c-0.2-0.2-0.2-0.6,0-0.8
		c0.1-0.1,0.2-0.1,0.2-0.1c0.8-0.5,1.8-0.4,2.4,0.2c0.4,0.3,0.6,0.4,1.1,0.1c0.7-0.5,1.2-1.2,1.5-2c0.4-1,1.1-1.9,2-2.5
		c0.8-0.5,1.8-0.4,2.4,0.2c0.4,0.3,0.6,0.4,1.1,0.1c0.7-0.5,1.2-1.2,1.5-2c0.4-1,1.1-1.9,2-2.5c0.8-0.5,1.8-0.4,2.4,0.2
		c0.4,0.3,0.6,0.4,1.1,0.1c0.3-0.2,0.7-0.1,0.8,0.2c0,0,0,0,0,0c0.2,0.3,0.1,0.6-0.2,0.8c0,0,0,0,0,0c-0.8,0.5-1.8,0.4-2.4-0.2
		c-0.4-0.3-0.6-0.4-1.1-0.1c-0.7,0.5-1.2,1.2-1.5,2c-0.4,1-1.1,1.9-2,2.5c-0.8,0.5-1.8,0.4-2.4-0.2c-0.4-0.3-0.6-0.4-1.1-0.1
		c-0.7,0.5-1.2,1.2-1.5,2c-0.4,1-1.1,1.9-2,2.5C202.6,181.4,202.2,181.5,201.8,181.5z"/>
	<g class="st19">
		<path class="st15" d="M201.8,181.5c-0.5,0-1-0.2-1.3-0.6c-0.4-0.3-0.6-0.4-1.1-0.1c-0.2,0.2-0.6,0.2-0.8,0c-0.2-0.2-0.2-0.6,0-0.8
			c0.1-0.1,0.2-0.1,0.2-0.1c0.8-0.5,1.8-0.4,2.4,0.2c0.4,0.3,0.6,0.4,1.1,0.1c0.7-0.5,1.2-1.2,1.5-2c0.4-1,1.1-1.9,2-2.5
			c0.8-0.5,1.8-0.4,2.4,0.2c0.4,0.3,0.6,0.4,1.1,0.1c0.7-0.5,1.2-1.2,1.5-2c0.4-1,1.1-1.9,2-2.5c0.8-0.5,1.8-0.4,2.4,0.2
			c0.4,0.3,0.6,0.4,1.1,0.1c0.3-0.2,0.7-0.1,0.8,0.2c0,0,0,0,0,0c0.2,0.3,0.1,0.6-0.2,0.8c0,0,0,0,0,0c-0.8,0.5-1.8,0.4-2.4-0.2
			c-0.4-0.3-0.6-0.4-1.1-0.1c-0.7,0.5-1.2,1.2-1.5,2c-0.4,1-1.1,1.9-2,2.5c-0.8,0.5-1.8,0.4-2.4-0.2c-0.4-0.3-0.6-0.4-1.1-0.1
			c-0.7,0.5-1.2,1.2-1.5,2c-0.4,1-1.1,1.9-2,2.5C202.6,181.4,202.2,181.5,201.8,181.5z"/>
	</g>
	<path class="st2" d="M173.8,191.9c-0.5,0-1-0.2-1.3-0.6c-0.4-0.3-0.6-0.4-1.1-0.1c-0.3,0.2-0.7,0.1-0.8-0.2
		c-0.2-0.3-0.1-0.6,0.2-0.8c0,0,0,0,0,0c0.8-0.5,1.8-0.4,2.4,0.2c0.4,0.3,0.6,0.4,1.1,0.1c0.7-0.5,1.2-1.2,1.5-2
		c0.4-1,1.1-1.9,2-2.5c0.8-0.5,1.8-0.4,2.4,0.2c0.4,0.3,0.6,0.4,1.1,0.1c0.7-0.5,1.2-1.2,1.5-2c0.4-1,1.1-1.9,2-2.5
		c0.8-0.5,1.8-0.4,2.4,0.2c0.4,0.3,0.6,0.4,1.1,0.1c0.2-0.2,0.6-0.2,0.8,0c0.2,0.2,0.2,0.6,0,0.8c-0.1,0.1-0.2,0.1-0.2,0.1
		c-0.8,0.5-1.8,0.4-2.4-0.2c-0.4-0.3-0.6-0.4-1.1-0.1c-0.7,0.5-1.2,1.2-1.5,2c-0.4,1-1.1,1.9-2,2.5c-0.8,0.5-1.8,0.4-2.4-0.2
		c-0.4-0.3-0.6-0.4-1.1-0.1c-0.7,0.5-1.2,1.2-1.5,2c-0.4,1-1.1,1.9-2,2.5C174.6,191.7,174.2,191.8,173.8,191.9z"/>
	<g class="st19">
		<path class="st15" d="M173.8,191.9c-0.5,0-1-0.2-1.3-0.6c-0.4-0.3-0.6-0.4-1.1-0.1c-0.3,0.2-0.7,0.1-0.8-0.2
			c-0.2-0.3-0.1-0.6,0.2-0.8c0,0,0,0,0,0c0.8-0.5,1.8-0.4,2.4,0.2c0.4,0.3,0.6,0.4,1.1,0.1c0.7-0.5,1.2-1.2,1.5-2
			c0.4-1,1.1-1.9,2-2.5c0.8-0.5,1.8-0.4,2.4,0.2c0.4,0.3,0.6,0.4,1.1,0.1c0.7-0.5,1.2-1.2,1.5-2c0.4-1,1.1-1.9,2-2.5
			c0.8-0.5,1.8-0.4,2.4,0.2c0.4,0.3,0.6,0.4,1.1,0.1c0.2-0.2,0.6-0.2,0.8,0c0.2,0.2,0.2,0.6,0,0.8c-0.1,0.1-0.2,0.1-0.2,0.1
			c-0.8,0.5-1.8,0.4-2.4-0.2c-0.4-0.3-0.6-0.4-1.1-0.1c-0.7,0.5-1.2,1.2-1.5,2c-0.4,1-1.1,1.9-2,2.5c-0.8,0.5-1.8,0.4-2.4-0.2
			c-0.4-0.3-0.6-0.4-1.1-0.1c-0.7,0.5-1.2,1.2-1.5,2c-0.4,1-1.1,1.9-2,2.5C174.6,191.7,174.2,191.8,173.8,191.9z"/>
	</g>
	<path class="st2" d="M144.8,208.1c-0.8,0.5-1.8,0.4-2.4-0.2c-0.4-0.3-0.6-0.4-1.1-0.1c-0.7,0.5-1.2,1.2-1.6,2c-0.4,1-1.1,1.9-2,2.5
		c-0.8,0.5-1.8,0.4-2.4-0.2c-0.4-0.3-0.6-0.4-1.1-0.1c-0.7,0.5-1.2,1.2-1.5,2c-0.3,0.7-0.7,1.3-1.2,1.8v-2.1l0.1-0.2
		c0.4-1,1.1-1.9,2-2.5c0.8-0.5,1.8-0.4,2.4,0.2c0.4,0.3,0.6,0.4,1.1,0.1c0.7-0.5,1.2-1.2,1.5-2c0.4-1,1.1-1.9,2-2.5
		c0.8-0.5,1.8-0.4,2.4,0.2c0.4,0.3,0.6,0.4,1.1,0.1c0.3-0.2,0.6-0.1,0.8,0.2C145.1,207.6,145,208,144.8,208.1z"/>
	<g class="st19">
		<path class="st15" d="M144.8,208.1c-0.8,0.5-1.8,0.4-2.4-0.2c-0.4-0.3-0.6-0.4-1.1-0.1c-0.7,0.5-1.2,1.2-1.6,2
			c-0.4,1-1.1,1.9-2,2.5c-0.8,0.5-1.8,0.4-2.4-0.2c-0.4-0.3-0.6-0.4-1.1-0.1c-0.7,0.5-1.2,1.2-1.5,2c-0.3,0.7-0.7,1.3-1.2,1.8v-2.1
			l0.1-0.2c0.4-1,1.1-1.9,2-2.5c0.8-0.5,1.8-0.4,2.4,0.2c0.4,0.3,0.6,0.4,1.1,0.1c0.7-0.5,1.2-1.2,1.5-2c0.4-1,1.1-1.9,2-2.5
			c0.8-0.5,1.8-0.4,2.4,0.2c0.4,0.3,0.6,0.4,1.1,0.1c0.3-0.2,0.6-0.1,0.8,0.2C145.1,207.6,145,208,144.8,208.1z"/>
	</g>
	<path class="st2" d="M226.5,157.5v1.5c-0.5,0.5-0.8,1-1.1,1.6c-0.4,1-1.1,1.9-2,2.5c-0.8,0.5-1.8,0.4-2.4-0.2
		c-0.4-0.3-0.6-0.4-1.1-0.1c-0.7,0.5-1.2,1.2-1.5,2c-0.4,1-1.1,1.9-2,2.5c-0.3,0.2-0.7,0.3-1.1,0.3c-0.5,0-1-0.2-1.3-0.6
		c-0.4-0.3-0.6-0.4-1.1-0.1c-0.3,0.1-0.7-0.1-0.7-0.4c-0.1-0.2,0-0.4,0.2-0.6c0.8-0.5,1.8-0.4,2.4,0.2c0.4,0.3,0.6,0.4,1.1,0.1
		c0.7-0.5,1.2-1.2,1.5-2c0.4-1,1.1-1.8,2-2.5c0.8-0.5,1.8-0.4,2.4,0.2c0.4,0.3,0.6,0.4,1.1,0.1c0.7-0.5,1.2-1.2,1.5-2
		c0.4-1,1.1-1.9,2-2.5L226.5,157.5z"/>
	<g class="st19">
		<path class="st15" d="M226.5,157.5v1.5c-0.5,0.5-0.8,1-1.1,1.6c-0.4,1-1.1,1.9-2,2.5c-0.8,0.5-1.8,0.4-2.4-0.2
			c-0.4-0.3-0.6-0.4-1.1-0.1c-0.7,0.5-1.2,1.2-1.5,2c-0.4,1-1.1,1.9-2,2.5c-0.3,0.2-0.7,0.3-1.1,0.3c-0.5,0-1-0.2-1.3-0.6
			c-0.4-0.3-0.6-0.4-1.1-0.1c-0.3,0.1-0.7-0.1-0.7-0.4c-0.1-0.2,0-0.4,0.2-0.6c0.8-0.5,1.8-0.4,2.4,0.2c0.4,0.3,0.6,0.4,1.1,0.1
			c0.7-0.5,1.2-1.2,1.5-2c0.4-1,1.1-1.8,2-2.5c0.8-0.5,1.8-0.4,2.4,0.2c0.4,0.3,0.6,0.4,1.1,0.1c0.7-0.5,1.2-1.2,1.5-2
			c0.4-1,1.1-1.9,2-2.5L226.5,157.5z"/>
	</g>
	<path class="st15" d="M152.9,170.1l-2.5,1.4v-0.9c0-0.1,0-0.1,0-0.2s0-0.1,0-0.2l0,0l0,0c-0.1-1.1-1-1.6-2-1
		c-0.5,0.3-0.9,0.7-1.2,1.2c-0.2-1.6-1.5-2.1-3.1-1.2c-1.8,1.2-3,3.2-3.1,5.4v1.9c0,0.3-0.2,0.6-0.4,0.7l-1.4,0.9
		c-0.6,0.4-1,1.1-1,1.8c0,0.5,0.4,0.9,0.9,0.9c0.1,0,0.3,0,0.4-0.1l13.4-7.8c0.7-0.4,1.2-1.2,1.2-2c0-0.4-0.3-0.8-0.7-0.8
		C153.2,169.9,153,169.9,152.9,170.1z"/>
	<path class="st15" d="M213,137.6l-2.5,1.4v-1.3l0,0c-0.1-1.2-1-1.6-2-1c-0.5,0.3-0.9,0.7-1.2,1.2c-0.2-1.6-1.5-2.1-3.1-1.2
		c-1.8,1.2-3,3.2-3.1,5.4v1.9c0,0.3-0.2,0.6-0.4,0.7l-1.4,0.8c-0.6,0.4-1,1.1-1,1.8c0,0.5,0.4,0.9,0.9,0.9c0.2,0,0.3,0,0.4-0.1
		l13.4-7.8c0.7-0.4,1.2-1.2,1.2-2c0-0.4-0.3-0.8-0.7-0.8C213.3,137.4,213.1,137.5,213,137.6z"/>
	<path class="st15" d="M157.8,179.5l-1.7,1v-0.9l0,0c-0.1-0.8-0.7-1.1-1.4-0.7c-0.3,0.2-0.6,0.5-0.8,0.8c-0.2-1.1-1-1.5-2.1-0.9
		c-1.3,0.8-2.1,2.2-2.1,3.7v1.3c0,0.2-0.1,0.4-0.3,0.5l-1,0.6c-0.4,0.3-0.7,0.7-0.7,1.2c0,0.3,0.3,0.6,0.6,0.6c0.1,0,0.2,0,0.3-0.1
		l9.2-5.3c0.5-0.3,0.8-0.8,0.8-1.4c0-0.3-0.2-0.5-0.5-0.6C158,179.4,157.9,179.4,157.8,179.5z"/>
	<path class="st1" d="M131.7,243.6c-0.2,0-0.4-0.1-0.5-0.3c-0.2-0.3-0.1-0.6,0.2-0.8l94.5-54.6c0.3-0.2,0.6-0.1,0.8,0.2
		c0.2,0.3,0.1,0.6-0.2,0.8c0,0,0,0,0,0L132,243.5C131.9,243.5,131.8,243.6,131.7,243.6z"/>
	<path class="st1" d="M131.7,295.3c-0.3,0-0.6-0.3-0.6-0.6c0-0.2,0.1-0.4,0.3-0.5l94.5-54.6c0.3-0.2,0.6-0.1,0.8,0.2
		c0.2,0.3,0.1,0.6-0.2,0.8c0,0,0,0,0,0L132,295.2C131.9,295.2,131.8,295.2,131.7,295.3z"/>
</g>
<g id="freepik--speech-bubbles--inject-2">
	<circle class="st2" cx="290.9" cy="156.8" r="31.1"/>
	<path class="st2" d="M269.6,172.6c0,0,3.4,15.3-8.6,15.3c0,0,14.1,6.1,19.2-6.4L269.6,172.6z"/>
	<path class="st15" d="M293.3,157.7c3.9-1.3,6.1-5.6,4.8-9.5c-1.3-3.9-5.6-6.1-9.5-4.8s-6.1,5.6-4.8,9.5c0.8,2.2,2.5,4,4.8,4.8
		c-6.1,1.2-10.5,6.5-10.5,12.7c0,0.1,0,0.1,0,0.2h25.9c0-0.1,0-0.1,0-0.2C303.9,164.2,299.4,158.8,293.3,157.7z"/>
	<circle class="st2" cx="258.4" cy="91.1" r="24.4"/>
	<path class="st2" d="M241.7,103.5c0,0,2.6,12-6.8,12c0,0,11.1,4.8,15.1-5L241.7,103.5z"/>
	<path class="st15" d="M264.9,82.1c-3.6,0-6.6,2.9-6.6,6.6c0-3.6-2.9-6.6-6.6-6.6c-3.6,0-6.6,2.9-6.6,6.6
		c0,10.7,13.1,14.9,13.1,14.9s13.1-4.2,13.1-14.9C271.5,85.1,268.6,82.1,264.9,82.1z"/>
	
		<ellipse transform="matrix(0.7071 -0.7071 0.7071 0.7071 -168.4553 134.1402)" class="st2" cx="77.7" cy="270.4" rx="30.2" ry="30.2"/>
	<path class="st2" d="M98.3,285.7c0,0-3.3,14.9,8.4,14.9c0,0-13.7,5.9-18.7-6.2L98.3,285.7z"/>
	<path class="st15" d="M89.2,259.7H66.1c-2.2,0-4,1.8-4,4v13.6c0,2.2,1.8,4,4,4h8.5l3.3,7.3l3-7.3h8.3c2.2,0,4-1.8,4-4v-13.6
		C93.2,261.4,91.4,259.7,89.2,259.7z M85.9,274.2H69.4c-0.6,0-1-0.5-1-1c0-0.6,0.5-1,1-1h16.5c0.6,0,1,0.5,1,1
		C86.9,273.7,86.5,274.2,85.9,274.2z M85.9,267.4H69.4c-0.6,0-1-0.5-1-1c0-0.6,0.5-1,1-1h16.5c0.6,0,1,0.5,1,1
		C86.9,267,86.5,267.4,85.9,267.4z"/>
</g>
</svg>
