<?xml version="1.0" encoding="utf-8"?>
<!-- Generator: Adobe Illustrator 24.2.3, SVG Export Plug-In . SVG Version: 6.00 Build 0)  -->
<svg version="1.1" id="Layer_1" xmlns="http://www.w3.org/2000/svg" xmlns:xlink="http://www.w3.org/1999/xlink" x="0px" y="0px"
	 viewBox="0 0 500 500" style="enable-background:new 0 0 500 500;" xml:space="preserve">
<style type="text/css">
	.st0{fill:#E0E0E0;}
	.st1{fill:#F5F5F5;}
	.st2{fill:#EBEBEB;}
	.st3{fill:#455A64;}
	.st4{fill:#263238;}
	.st5{fill:#FFE400;}
	.st6{fill:#FFFFFF;}
	.st7{fill:#FFBE9D;}
	.st8{fill:#EB996E;}
	.st9{opacity:0.3;}
	.st10{fill:#8B5D54;}
	.st11{fill:#C78976;}
</style>
<g id="freepik--background-complete--inject-2">
	<path class="st0" d="M467.9,327.9c0,0.1-97.6,0.3-217.9,0.3S32.1,328,32.1,327.9s97.6-0.3,217.9-0.3S467.9,327.8,467.9,327.9z"/>
	<path class="st0" d="M98.9,97.4c-7.1,24.7,2.6,50.8,12.2,74.7l81.7,203.6l23.4,10.8C177.6,289.8,121.6,199.1,98.9,97.4z"/>
	<path class="st0" d="M38.6,145.8c12.6,27.3,34.6,48.8,53.6,72.2c23.2,28.7,42.1,60.6,56.1,94.7l7.3-27.2
		C126.5,231.4,86.7,183.9,38.6,145.8z"/>
	<path class="st0" d="M277.7,286l5.1,33.3c9.4-79.2,23.4-157.8,41.8-235.4C293.7,146.2,284.6,216.8,277.7,286z"/>
	<path class="st0" d="M375.3,288.3c-20,14.8-32.5,37.3-44.5,59l-0.1,23.9c15-18,19-43.5,35.3-60.4c7.2-7.5,16.4-12.9,25.5-18
		l49.5-28.5C417.7,268.5,394.1,274.3,375.3,288.3z"/>
	<path class="st0" d="M281.7,393.6c-2.7-2.6-6.8-3-10.5-3.2l-28.8-1.7c-7.6-0.5-15.5-0.8-22.5,2.3c-7.9,3.5-13.2,10.8-19.8,16.4
		c-9.5,7.9-21.5,12-33.8,11.6c-3.9-0.1-7.8-0.7-11.5,0.4s-7.1,4.5-6.5,8.3l4.9,3.5c6,6.7,16.1,8,25,6.9s17.6-4.1,26.6-4.6
		c9.5-0.5,20.9,1.2,27-6.1c17.3,9.6,39.2,3.3,48.8-14c1.1-2,2-4.1,2.7-6.2C284.8,402.6,285.1,397,281.7,393.6z"/>
	<path class="st1" d="M382,393.7c-2.4-6.3-6.5-12.1-12.5-15.1c-3.8-1.9-8-2.6-12.2-3.3c-9.3-1.5-22.1,2.1-31.4,0.6l0.5,13.3
		c8.4-3,25.7-3,33.5-2.9c2.5,0,5,1.1,6.7,2.9c5,5.1,15.3,16.3,19.2,24.1C385.1,406.6,384.3,399.9,382,393.7z"/>
	<path class="st1" d="M104,363.7c-8.2-1.2-16.7,0.8-24.2,4.3s-14.3,8.5-21,13.4c16.4-3.2,33.2-6.4,49.7-3.9
		c10.8,1.6,21.1,5.7,30.6,11l9-6.5C138.9,373.8,116.1,365.5,104,363.7z"/>
	<path class="st0" d="M291.6,477.9c-6.4,0.5-13.3-0.7-18.1-4.6s-7-10.9-4-16.1c0.6-1,1.4-2.1,1.1-3.2s-1.4-1.7-2.5-2.2
		c-11.2-5.2-23-9-35.1-11.5l-0.8,1.9c-0.6,0.6-0.7,1.6-0.1,2.2c0.6,0.6,1.3,1.1,2.2,1.3l28.9,11.7c-3.3,5.7-2,13.2,2.4,18.2
		s11.5,7.7,18.5,8s13.9-1.6,20.2-4.5c2.8-1.3,5.8-3.2,5.8-6.1C304.1,475.2,298,477.3,291.6,477.9z"/>
	<path class="st1" d="M361.6,33.7c0.6-4.3-5.4-7.8-10-8.2c-2.2-0.2-4.4,0.2-6.5-0.6c-4.4-1.5-6.2-7.3-10.5-9.1
		c-3.2-1.4-7-0.1-10.1,1.4s-6.3,3.6-9.8,3.8c-3,0.2-6.4-0.9-9,0.5c-2,1.1-3,3.4-4.9,4.8s-4.1,1.6-6.4,1.7s-4.5,0.1-6.5,1.1
		s-3.7,3.1-3.3,5.3L361.6,33.7z"/>
	<path class="st1" d="M453,184c0.4-3.1-4-5.7-7.3-5.9c-1.6-0.1-3.2,0.1-4.7-0.4c-3.2-1.1-4.5-5.3-7.7-6.6c-2.4-1-5.1-0.1-7.4,1
		s-4.5,2.6-7.1,2.8c-2.2,0.1-4.6-0.7-6.6,0.4c-1.5,0.8-2.2,2.5-3.5,3.5c-1.4,0.9-3,1.3-4.6,1.3c-1.6,0-3.2,0.2-4.8,0.8
		c-1.6,0.6-2.5,2.2-2.4,3.8L453,184z"/>
	<path class="st2" d="M448.7,89.4c0.7-4.9-6.3-9-11.5-9.4c-2.5-0.2-5.1,0.2-7.4-0.6c-5.1-1.8-7.1-8.4-12.1-10.5
		c-3.7-1.6-8-0.2-11.6,1.6s-7.2,4.1-11.2,4.4c-3.5,0.2-7.3-1.1-10.4,0.6c-2.3,1.3-3.5,3.9-5.6,5.5s-4.8,1.8-7.3,2s-5.2,0.2-7.5,1.2
		s-4.3,3.5-3.8,6L448.7,89.4z"/>
	<path class="st1" d="M152.4,60.7c0.8-5.4-6.9-9.9-12.7-10.4c-2.8-0.2-5.6,0.2-8.2-0.7c-5.7-2-7.9-9.3-13.4-11.6
		c-4.1-1.7-8.9-0.2-12.9,1.8s-7.9,4.5-12.4,4.8c-3.9,0.3-8.1-1.2-11.5,0.7c-2.5,1.4-3.9,4.3-6.2,6s-5.3,2-8.1,2.2s-5.8,0.2-8.3,1.4
		s-4.7,3.9-4.2,6.7L152.4,60.7z"/>
	<path class="st0" d="M318.7,402c-4.4-0.7-8.9-0.5-13.2,0.6c-1.4,0.2-2.8,0.8-3.9,1.6c-1.2,0.9-1.8,2.3-1.5,3.8
		c0.4,1.3,1.4,2.3,2.7,2.8c3.6,1.7,7.8,0.9,11.7,0.2c1.7-0.2,3.4-0.8,5-1.6c1.6-0.9,2.6-2.5,2.7-4.2
		C322.1,403.3,320.6,402.1,318.7,402z"/>
</g>
<g id="freepik--Leaves--inject-2">
	<path class="st3" d="M158.1,394.6c0,0-27.7-75.2-41.3-89.4c-16.1-16.9-32.6-17.9-38.1-7.2s-20,51.5-20,51.5s4.2-3.6,10.5-12.5
		S90,301.5,90,301.5s9.7-2.2,22.4,12.6c11.4,13.3,35.8,86.7,35.8,86.7L158.1,394.6z"/>
	<path class="st3" d="M171,386.8c0,0-45.7-131.7-64.4-145.8S42,217.2,42,217.2s49.6,18,58.1,28.9s59.1,143.8,59.1,143.8L171,386.8z"
		/>
	<path class="st3" d="M312.6,383c0,0,71.4-46.5,77.2-41.7s18.7,55.9,18.7,55.9s-13.4-7.8-17.4-19.3c-2.6-7.2-6-14.1-10.3-20.4
		l-58.8,28.2L312.6,383z"/>
	<path class="st3" d="M296.8,383.1c0.9-2.5,52.6-251.4,52.6-251.4s-5.6,89-12.6,109.3S304,387.5,304,387.5L296.8,383.1z"/>
	<path class="st4" d="M349.4,133.3c0,0.1,0,0.3,0,0.4c0,0.3,0,0.7-0.1,1.3c-0.1,1.1-0.2,2.7-0.4,4.8c-0.3,4.2-1,10.2-2,17.6
		c-1.9,14.8-5.3,35.2-9.8,57.5s-9.3,42.5-12.8,57c-1.8,7.3-3.2,13.1-4.1,17.2c-0.5,2-0.9,3.6-1.1,4.7c-0.1,0.5-0.2,0.9-0.3,1.2
		c0,0.1-0.1,0.3-0.1,0.4c0,0,0-0.1,0.1-0.4l0.3-1.2c0.2-1.1,0.6-2.7,1-4.7c0.9-4.1,2.3-10,4-17.2c3.4-14.5,8-34.7,12.6-57
		s8-42.7,10-57.5c1-7.4,1.7-13.4,2.1-17.6l0.5-4.8c0.1-0.5,0.1-0.9,0.1-1.3C349.3,133.5,349.4,133.4,349.4,133.3z"/>
	<path class="st3" d="M388.8,310.4c-12.6,3.8-23.3,12.4-32.4,21.9s-16.9,20.2-26.1,29.7l-6,7.3c21-10.3,36.5-29.2,56.6-41.1
		c4.9-3,10.1-5.3,15.6-6.8c9.6-2.5,19.6-1.7,29.5-2.4s20.3-3.1,27-10.5C431.7,311.6,409.4,304.2,388.8,310.4z"/>
	<path class="st4" d="M404.4,314.8c-0.3,0-0.6,0-0.9-0.1c-0.6-0.1-1.4-0.1-2.5-0.2c-3.1-0.1-6.2,0.3-9.2,1.1
		c-4.4,1.2-8.7,3-12.5,5.4c-4.7,3-9.1,6.5-13.1,10.5c-4.3,4.1-8.2,8.3-11.9,12c-3.2,3.3-6.6,6.4-10.2,9.3c-2.4,1.9-5,3.7-7.7,5.2
		c-1,0.5-1.7,0.9-2.2,1.2c-0.3,0.1-0.5,0.3-0.8,0.4c0.2-0.2,0.5-0.3,0.8-0.5c0.5-0.3,1.3-0.7,2.2-1.3c2.6-1.6,5.2-3.4,7.6-5.4
		c3.5-2.9,6.9-6,10.1-9.3c3.6-3.7,7.5-7.9,11.8-12c4-4,8.5-7.5,13.2-10.5c3.9-2.4,8.2-4.2,12.7-5.4c3-0.7,6.1-1.1,9.3-0.9
		c0.8,0,1.7,0.1,2.5,0.3C403.8,314.7,404.1,314.7,404.4,314.8z"/>
	<path class="st3" d="M302.6,387.1c0,0,34.6-97.3,59.4-118.5c15.1-12.8,31.2-24.3,48.3-34.4c0,0-18.4,20.8-26.9,29.9
		s-25.2,17-31.8,35.8s-35.9,87.1-35.9,87.1L302.6,387.1z"/>
	<path class="st4" d="M379.5,259.6c0,0-0.1,0.1-0.2,0.2l-0.6,0.6l-2.3,2.1l-8.5,7.7c-1.8,1.6-3.8,3.3-5.8,5.3
		c-2.1,2.1-4.1,4.4-5.9,6.8c-2,2.7-3.8,5.5-5.3,8.5c-1.6,3.2-3,6.5-4.3,9.8l-14.2,35c-1.8,4.4-3.3,8-4.4,10.6l-1.2,2.8
		c-0.1,0.3-0.2,0.5-0.3,0.7c0,0.1-0.1,0.2-0.1,0.3c0-0.1,0-0.2,0.1-0.3c0.1-0.2,0.2-0.5,0.3-0.8c0.3-0.7,0.6-1.7,1.1-2.9l4.2-10.6
		c3.6-9,8.6-21.4,14.1-35c1.3-3.4,2.7-6.7,4.3-9.9c3-5.7,6.8-10.9,11.4-15.4c2-2,4.1-3.7,5.9-5.3l8.6-7.5l2.4-2l0.6-0.5L379.5,259.6
		z"/>
	<path class="st3" d="M301.9,389.1c0,0,58.8-192,64.4-209.6s13.2-54.3,13.2-54.3s-1.5,38.2-9.1,69.3s-16.6,52.4-26.7,86.8
		S310.2,390,310.2,390L301.9,389.1z"/>
	<path class="st4" d="M379.5,127.8c0,0,0,0.2-0.1,0.6l-0.3,1.6c-0.3,1.5-0.6,3.6-1.1,6.3c-1,5.5-2.4,13.4-4.2,23.2l-1.4,7.7
		c-0.5,2.7-1,5.5-1.6,8.3c-1.3,6.1-3,12.1-5,18c-4.1,12.5-8.4,26.4-12.8,40.9c-8.9,29.1-16.7,55.5-22.2,74.6
		c-2.8,9.6-5,17.3-6.5,22.7c-0.8,2.7-1.4,4.7-1.8,6.2c-0.2,0.7-0.4,1.2-0.5,1.6s-0.2,0.5-0.2,0.5s0-0.2,0.1-0.6l0.4-1.6l1.7-6.2
		c1.5-5.4,3.6-13.1,6.4-22.7c5.5-19.2,13.2-45.6,22.1-74.7c4.5-14.5,8.8-28.4,12.9-40.9c2-5.9,3.7-11.9,5.1-18
		c0.6-2.9,1.1-5.6,1.6-8.3l1.4-7.7c1.8-9.8,3.3-17.7,4.4-23.2c0.5-2.7,0.9-4.8,1.2-6.3c0.1-0.7,0.3-1.3,0.3-1.6
		S379.5,127.8,379.5,127.8z"/>
</g>
<g id="freepik--Character--inject-2">
	<path class="st5" d="M313.1,353.1c-4.2,0.5-7.6,3.7-10.2,7c-3.2,4-5.4,8.7-6.4,13.7c-1.3,6.5,0.8,13.3,5.6,17.9
		c1.4,1.3,2.9,2.3,4.6,3.2c5.1,2.5,11.2,2.2,16-0.8c4.2-2.8,6.2-6.9,7.4-11.9c1.3-5.4,0.2-11-1.5-15.8c-1.3-3.5-3.2-6.7-5.8-9.4
		C320.3,354.3,316.7,352.9,313.1,353.1z"/>
	<path class="st6" d="M328.4,365.9c-0.6-0.4-1.1-0.9-1.6-1.4l-4.1-3.8h0.3l-4.5,6l-0.2,0.2l-0.2-0.2l-3-2.7l-3.6-3.2h0.3l-6.5,5.6
		l-0.2,0.1l-0.1-0.2l-2.4-3.6c-0.3-0.4-0.6-0.9-0.8-1.4c0.4,0.4,0.7,0.8,1,1.2l2.6,3.5h-0.3l6.4-5.7l0.2-0.1l0.2,0.2l3.6,3.2l3,2.7
		h-0.4l4.6-5.9l0.1-0.2l0.2,0.2l4,4C327.5,364.9,328,365.4,328.4,365.9z"/>
	<path class="st6" d="M312,364.8c0-0.1,0.4-0.2,0.9,0.2c0.3,0.3,0.4,0.7,0.3,1.1c-0.1,0.5-0.5,0.9-1,0.9c-0.5,0.1-1-0.2-1.2-0.6
		c-0.2-0.3-0.2-0.8,0-1.1c0.4-0.6,0.8-0.5,0.8-0.5s-0.3,0.2-0.5,0.6c-0.1,0.2-0.1,0.5,0.1,0.7c0.2,0.4,0.7,0.5,1,0.3
		c0.2-0.1,0.3-0.3,0.3-0.4c0.1-0.2,0-0.5-0.1-0.7C312.3,364.9,312,364.9,312,364.8z"/>
	<path class="st6" d="M304.9,359.9c0-0.1,0.4-0.2,0.9,0.2c0.3,0.3,0.4,0.7,0.3,1.1c-0.1,0.5-0.5,0.8-1,0.9c-0.5,0.1-1-0.2-1.2-0.6
		c-0.2-0.3-0.2-0.8,0-1.1c0.4-0.5,0.8-0.5,0.8-0.5s-0.3,0.2-0.5,0.6c-0.1,0.2-0.1,0.5,0.1,0.7c0.2,0.2,0.4,0.4,0.7,0.4
		c0.3-0.1,0.5-0.3,0.6-0.5c0.1-0.2,0-0.5-0.1-0.7C305.2,360,304.9,360,304.9,359.9z"/>
	<path class="st6" d="M317.6,360.1c0,0,0.4-0.2,0.9,0.2c0.3,0.3,0.4,0.7,0.3,1.1c-0.1,0.5-0.5,0.8-1,0.9c-0.5,0.1-1-0.2-1.2-0.6
		c-0.2-0.3-0.2-0.8,0-1.1c0.4-0.5,0.8-0.5,0.8-0.5s-0.3,0.2-0.5,0.6c-0.1,0.2-0.1,0.5,0.1,0.7c0.2,0.3,0.6,0.5,1,0.3
		c0.2-0.1,0.3-0.3,0.3-0.5c0.1-0.2,0-0.5-0.1-0.7C318,360.2,317.6,360.2,317.6,360.1z"/>
	<path class="st6" d="M301.3,364.8c0-0.1,0.4-0.2,0.9,0.2c0.3,0.3,0.4,0.7,0.3,1.1c-0.1,0.6-0.8,1.1-1.4,0.9
		c-0.3-0.1-0.6-0.3-0.8-0.6c-0.2-0.3-0.2-0.8,0-1.1c0.4-0.6,0.8-0.5,0.8-0.5s-0.3,0.2-0.5,0.6c-0.1,0.2-0.1,0.5,0.1,0.7
		c0.2,0.2,0.4,0.4,0.7,0.4c0.3-0.1,0.5-0.3,0.6-0.5c0.1-0.2,0-0.5-0.1-0.7C301.6,364.9,301.3,364.9,301.3,364.8z"/>
	<path class="st6" d="M323.1,365.2c0,0,0.4-0.2,0.9,0.2c0.3,0.3,0.4,0.7,0.3,1.1c-0.1,0.6-0.8,1.1-1.4,0.9c-0.3-0.1-0.6-0.3-0.8-0.6
		c-0.2-0.3-0.2-0.8,0-1.1c0.4-0.6,0.8-0.5,0.8-0.5s-0.3,0.2-0.5,0.6c-0.1,0.2-0.1,0.5,0.1,0.7c0.2,0.2,0.4,0.4,0.7,0.4
		c0.3-0.1,0.5-0.3,0.6-0.5c0.1-0.2,0-0.5-0.1-0.7C323.4,365.3,323.1,365.3,323.1,365.2z"/>
	<path class="st6" d="M297,381.8c0.2,0.1,0.3,0.2,0.4,0.3c0.3,0.3,0.7,0.6,1.2,1l4.1,3.8h-0.3l7-6l0.2-0.1l0.2,0.2l2.8,2.7l3.3,3.2
		h-0.3l5.8-5.1l0.1-0.1l0.1,0.1l4.8,3.8l1.3,1.1c0.2,0.1,0.3,0.3,0.4,0.4c-0.2-0.1-0.4-0.2-0.5-0.3l-1.4-1l-4.9-3.7h0.3l-5.8,5.2
		l-0.2,0.2l-0.2-0.2l-3.3-3.2l-2.8-2.8h0.4l-7,5.9l-0.1,0.1l-0.1-0.1l-4-4l-1.1-1.1C297.3,382.1,297.1,382,297,381.8z"/>
	<path class="st6" d="M315.2,383.5c0,0-0.4,0.2-0.9-0.2c-0.3-0.3-0.4-0.7-0.3-1.1c0.1-0.5,0.5-0.8,1-0.9c0.5-0.1,1,0.2,1.2,0.6
		c0.2,0.3,0.2,0.8,0,1.1c-0.4,0.5-0.8,0.5-0.8,0.4s0.3-0.2,0.5-0.6c0.1-0.2,0.1-0.5-0.1-0.7c-0.2-0.3-0.6-0.5-1-0.3
		c-0.2,0.1-0.3,0.3-0.3,0.5c-0.1,0.2,0,0.5,0.1,0.7C314.9,383.5,315.2,383.5,315.2,383.5z"/>
	<path class="st6" d="M322.2,387.9c0,0-0.4,0.2-0.9-0.2c-0.3-0.3-0.4-0.7-0.3-1.1c0.1-0.5,0.5-0.9,1-0.9c0.5-0.1,1,0.2,1.2,0.6
		c0.2,0.3,0.2,0.8,0,1.1c-0.4,0.6-0.8,0.5-0.8,0.5s0.3-0.2,0.5-0.6c0.1-0.2,0.1-0.5-0.1-0.7c-0.2-0.4-0.7-0.5-1-0.3
		c-0.2,0.1-0.3,0.3-0.3,0.4c-0.1,0.2,0,0.5,0.1,0.7C321.9,387.8,322.2,387.8,322.2,387.9z"/>
	<path class="st6" d="M309.3,387.4c0,0-0.4,0.2-0.9-0.2c-0.3-0.3-0.4-0.7-0.3-1.1c0.1-0.5,0.5-0.9,1-0.9c0.5-0.1,1,0.2,1.2,0.6
		c0.2,0.3,0.2,0.8,0,1.1c-0.4,0.6-0.8,0.5-0.8,0.5s0.3-0.2,0.5-0.6c0.1-0.2,0.1-0.5-0.1-0.7c-0.2-0.4-0.7-0.5-1-0.3
		c-0.2,0.1-0.3,0.3-0.3,0.4c-0.1,0.2,0,0.5,0.1,0.7C309,387.3,309.3,387.3,309.3,387.4z"/>
	<path class="st6" d="M327.2,383.5c0,0-0.4,0.2-0.9-0.2c-0.3-0.3-0.4-0.7-0.3-1.1c0.1-0.6,0.8-1.1,1.4-0.9c0.3,0.1,0.6,0.3,0.8,0.6
		c0.2,0.3,0.2,0.8,0,1.1c-0.4,0.5-0.8,0.5-0.8,0.4s0.3-0.2,0.5-0.6c0.1-0.2,0.1-0.5-0.1-0.7c-0.2-0.2-0.4-0.4-0.7-0.4
		c-0.3,0.1-0.5,0.3-0.6,0.5c-0.1,0.2,0,0.5,0.1,0.7C326.9,383.5,327.2,383.5,327.2,383.5z"/>
	<path class="st6" d="M302,383.1c0,0.1-0.4,0.2-0.9-0.2c-0.3-0.3-0.4-0.7-0.3-1.1c0.1-0.5,0.5-0.8,1-0.9c0.5-0.1,1,0.2,1.2,0.6
		c0.2,0.3,0.2,0.8,0,1.1c-0.4,0.5-0.8,0.5-0.8,0.5s0.3-0.2,0.5-0.6c0.1-0.2,0.1-0.5-0.1-0.7c-0.2-0.2-0.4-0.4-0.7-0.4
		c-0.3,0.1-0.5,0.3-0.6,0.5c-0.1,0.2,0,0.5,0.1,0.7C301.6,383,302,383,302,383.1z"/>
	<path class="st6" d="M329.5,370c-0.4,0.2-0.8,0.4-1.2,0.5c-1.1,0.5-2.2,0.8-3.3,1.2c-1.7,0.5-3.3,0.9-5.1,1.1
		c-2.1,0.3-4.2,0.5-6.3,0.4c-2.1,0-4.2-0.2-6.3-0.6c-1.7-0.3-3.4-0.7-5-1.2c-1.1-0.3-2.2-0.8-3.3-1.2c-0.4-0.2-0.8-0.3-1.1-0.6
		c0-0.1,1.7,0.6,4.5,1.5c1.6,0.5,3.3,0.8,5,1.1c4.1,0.7,8.4,0.7,12.5,0.1c1.7-0.2,3.4-0.6,5-1C327.8,370.6,329.5,369.9,329.5,370z"
		/>
	<path class="st6" d="M330.3,372.7c-0.4,0.2-0.8,0.4-1.2,0.6c-0.5,0.2-1,0.4-1.5,0.6c-0.6,0.2-1.3,0.4-2,0.6
		c-1.8,0.5-3.6,0.9-5.4,1.2c-2.2,0.3-4.5,0.5-6.7,0.5c-2.2,0-4.5-0.2-6.7-0.5c-1.8-0.3-3.6-0.7-5.4-1.2c-0.8-0.2-1.4-0.4-2-0.6
		c-0.5-0.2-1-0.4-1.5-0.6c-0.4-0.2-0.8-0.4-1.2-0.6c0-0.1,1.8,0.7,4.8,1.5c1.8,0.4,3.5,0.8,5.3,1c2.2,0.3,4.4,0.4,6.6,0.4
		c2.2,0,4.4-0.2,6.6-0.5c1.8-0.2,3.6-0.6,5.3-1c0.8-0.2,1.4-0.4,2-0.6s1.1-0.3,1.5-0.5C329.4,372.9,329.8,372.8,330.3,372.7z"/>
	<path class="st6" d="M330.3,375.8c-0.4,0.2-0.8,0.4-1.2,0.6c-0.4,0.2-0.9,0.4-1.5,0.6s-1.3,0.4-2,0.6c-1.8,0.5-3.5,0.9-5.4,1.2
		c-2.2,0.3-4.5,0.5-6.7,0.5c-2.2,0-4.5-0.2-6.7-0.5c-1.8-0.3-3.6-0.7-5.4-1.2c-0.8-0.2-1.4-0.4-2-0.6c-0.5-0.2-1-0.4-1.5-0.6
		c-0.4-0.2-0.8-0.4-1.2-0.6c0-0.1,1.8,0.7,4.8,1.5c1.8,0.4,3.5,0.8,5.3,1c2.2,0.3,4.4,0.4,6.6,0.4c2.2,0,4.4-0.2,6.6-0.5
		c1.8-0.2,3.6-0.6,5.3-1c0.8-0.2,1.4-0.4,2-0.6s1.1-0.3,1.5-0.5C329.4,376,329.8,375.9,330.3,375.8z"/>
	<path class="st7" d="M298.4,336.8c0,0-4.2,8.3-3.1,14.4c1,5.3,2.4,10.4,4.2,15.5c0.8,2.7,1.5,5.4,2.1,8.2c0,0,1.6,2.6,3.8-0.6
		c1.7-2.3,2.7-5,2.7-7.9c-0.3-2.4-0.8-4.7-1.5-7c0,0,0.3-4.3,2.2-2.9c1.4,0.9,2.7,2,4,3.1c0,0,0.5,10.3,3.3,11.7
		c2.3,1.2,4.6,0.8,4.6-2.4c0.2-3,0.5-5.9,1.1-8.9c0,0,1.7,2.4,1.5,4.4s1.1,11.6,1.2,12.4c0.4,2.8,4.2,2.4,4.2,2.4
		c0.8,0.6,1.9,0.7,2.8,0.2c1.3-0.9,2.2-14,2.2-14l-2.3-7.1l-8-12.8l-2.6-10L298.4,336.8z"/>
	<path class="st8" d="M301.7,350.3c0.6,0.4,1.2,0.8,1.7,1.3l4,3.2c3.1,2.5,5.5,4.7,5.3,4.8c-0.6-0.4-1.2-0.8-1.7-1.3l-4-3.2
		C304,352.6,301.6,350.4,301.7,350.3z"/>
	<path class="st8" d="M314.9,345.9c0.7,0.7,1.3,1.4,1.9,2.1c1.5,1.7,2.8,3.6,3.9,5.6c1,2.1,1.3,4.5,1,6.8c-0.1,0.9-0.2,1.9-0.6,2.8
		c-0.1,0,0.1-1.1,0.2-2.8c0.2-2.2-0.2-4.5-1.1-6.5c-1.1-2-2.3-3.8-3.8-5.6C315.8,347.5,315.3,346.7,314.9,345.9z"/>
	<path class="st8" d="M325.9,352.3c0.3,0.3,0.5,0.6,0.7,0.9c0.4,0.6,1,1.5,1.6,2.6c0.7,1.3,1.4,2.7,1.9,4.1c0.3,0.8,0.5,1.7,0.7,2.6
		c0.1,0.9,0.3,1.8,0.5,2.8c0.2,1,0.2,1.9,0.2,2.9c-0.1,1-0.2,1.8-0.4,2.6c-0.3,1.7-0.6,3.2-0.9,4.4c-0.2,1-0.6,1.9-0.9,2.9
		c-0.1,0.4-0.3,0.7-0.5,1c-0.1,0,0.5-1.5,1.1-4c0.3-1.2,0.5-2.7,0.8-4.4c0.1-0.8,0.3-1.7,0.3-2.6c0-0.9,0-1.9-0.2-2.8
		c-0.2-1.8-0.6-3.6-1.1-5.3c-0.5-1.4-1.1-2.8-1.7-4.1C326.7,353.7,325.9,352.3,325.9,352.3z"/>
	<path class="st8" d="M324.8,351c-1.1-0.6-2.1-1.4-2.8-2.4c-0.8-0.9-1.4-2-1.7-3.3c0.1-0.1,0.9,1.4,2.1,2.9S324.9,350.9,324.8,351z"
		/>
	<path class="st4" d="M132.1,146.5c2.5-10.4,8.9-19.3,14.4-28.4c6.5-10.7,12-22,16.3-33.8c2.5-6.7,5.7-14.7,12.7-16.2l50.9-8.1
		c9.3-9.7,20.7,2.2,27.3,10.2c2.5,3,4.4,6.4,5.9,10c4.5,11.2,4.6,23.7,4.9,35.8s0.9,24.7,6.4,35.5c1.9,3.8,4.5,7.6,4.8,11.9
		c0.3,5.3-1.1,7.8-4.5,11.8c-4,4.7,2.6,16.6-1.5,19.3c-5.8,3.9-23.3-1.7-30.2-0.9l-21.6,2.3c-6.2,0.7-12.8,1.3-18.6-1.1
		c-5.2-2.2-9.4-6.8-14.9-7.9c-6.7-1.4-13.2,2.6-20,3.4c-10,1.2-20.4-5.8-23.1-15.5C132.2,169.4,129.6,156.9,132.1,146.5z"/>
	<path class="st7" d="M251.3,94.8c-1.4-14.8-17.9-29.1-32.6-27L171,78.4l0.4,8l6.1,98.7l0,0c0,0,5.1,31.7,32,29
		c24.1-2.4,21.9-27.9,21.9-27.9l-1.3-18.6c0,0,19.5-1.4,22.6-26.3C254.3,129,252.8,111.3,251.3,94.8z"/>
	<path class="st4" d="M243.7,118.8c0.1,1.7-1.2,3.2-2.9,3.3c-1.6,0.2-3.1-1-3.3-2.6c0,0,0-0.1,0-0.1c-0.1-1.7,1.3-3.2,3-3.3
		C242,115.9,243.5,117.1,243.7,118.8C243.7,118.8,243.7,118.8,243.7,118.8z"/>
	<path class="st4" d="M247.3,108.1c-0.4,0.4-2.8-1.3-6.3-1.2s-5.9,1.9-6.2,1.5c-0.2-0.2,0.2-0.9,1.3-1.8c1.4-1.1,3.2-1.7,5-1.7
		c1.8-0.1,3.5,0.4,5,1.4C247.1,107.2,247.5,107.9,247.3,108.1z"/>
	<path class="st4" d="M215.4,120c0.1,1.7-1.2,3.2-2.9,3.3c-1.6,0.2-3.1-1-3.3-2.6c0,0,0-0.1,0-0.1c-0.1-1.7,1.2-3.2,2.9-3.3
		c1.6-0.2,3.1,1,3.3,2.6C215.4,119.9,215.4,119.9,215.4,120z"/>
	<path class="st4" d="M216,109.7c-0.4,0.4-2.9-1.3-6.3-1.2s-5.9,1.9-6.2,1.5c-0.2-0.2,0.2-0.9,1.3-1.8c1.5-1.1,3.2-1.7,5-1.7
		c1.8-0.1,3.5,0.4,5,1.4C215.8,108.7,216.1,109.5,216,109.7z"/>
	<path class="st4" d="M227,134.1c0-0.2,2.1-0.6,5.5-1.1c0.9-0.1,1.7-0.3,1.8-0.8s-0.2-1.3-0.6-2.2c-0.9-1.8-1.8-3.6-2.7-5.5
		c-1-2-6.1-13.4-6.1-14.5c0.4-0.1,3.7,6.1,7.5,14c0.9,1.9,1.8,3.8,2.6,5.6c0.4,0.8,0.9,1.8,0.5,2.9c-0.3,0.6-0.8,1-1.4,1.1
		c-0.5,0.1-1,0.2-1.5,0.2C229.2,134.2,227,134.3,227,134.1z"/>
	<path class="st8" d="M230.3,167.8c-11.6,0.5-23.2-2.1-33.3-7.8c0,0,9,17,33.7,13.9L230.3,167.8z"/>
	<path class="st4" d="M216.8,134.7c0.6,0,0.7,3.6,3.9,6.2s7.2,2,7.2,2.5c0.1,0.2-0.9,0.8-2.5,0.8c-2.2,0.1-4.3-0.6-6-1.9
		c-1.7-1.3-2.8-3.1-3.1-5.2C216.1,135.6,216.5,134.7,216.8,134.7z"/>
	<path class="st4" d="M214.4,98.3c-0.4,1.1-3.3,0.4-6.9,0.7s-6.5,1.5-6.9,0.5c-0.2-0.5,0.4-1.5,1.6-2.4c1.5-1.2,3.3-1.8,5.2-2
		c1.8-0.2,3.7,0.2,5.3,1.1C214,96.9,214.6,97.8,214.4,98.3z"/>
	<path class="st4" d="M247.1,96.4c-0.5,1-3.1,0.3-6,0.6s-5.4,1.2-6.1,0.3c-0.3-0.4,0-1.4,1-2.4c1.3-1.2,3-1.9,4.8-2
		c1.8-0.1,3.5,0.3,5,1.3C246.8,95,247.3,95.9,247.1,96.4z"/>
	<path class="st5" d="M184,174c-1.1-1.5-36.9,22.5-36.9,31.7s47.1,80.5,47.1,80.5s-7.8,9.2-4.6,15l76.3-3.5l22.6-31.9L250.4,171
		l-19.2-1C220.2,195.8,194.5,188.9,184,174z"/>
	<g class="st9">
		<path d="M220.6,291c-3-12.1-4.2-24.9,0.4-36.5s16.5-21,28.9-19.4c6.7,0.9,12.6,4.6,18,8.6c1.9,1.4,4,3,4.7,5.3
			c0.7,2,0.2,4.2-0.4,6.3c-3.3,11.1-10.4,20.8-20,27.4C242.7,289.1,232.5,294.8,220.6,291"/>
	</g>
	<path class="st5" d="M250.4,171c0,0,28.9,0.4,42.1,28.2c5.2,10.8,24.4,50.4,25.6,58.5c2.1,13.3,6.6,80.9,6.6,80.9l-29.8-0.1
		l-10.4-66.4l-23.3-53.3l-16.2-20.6L250.4,171z"/>
	<path class="st5" d="M148.6,203.9h-1.6l-14.3,73.7c-1,5.4-0.5,11.1,1.4,16.3l19.2,50.9l27.4-8.8c0,0-10.5-50.5-11.8-53.6
		s9.2-43,9.2-43L148.6,203.9z"/>
	<path class="st4" d="M160.2,221c0.1,0.2,0.2,0.4,0.3,0.7l0.8,1.9c0.6,1.7,1.6,4.1,2.8,7.1c2.4,6,6.1,14.1,10.7,22.8
		c4.6,8.7,9.3,16.3,12.7,21.8l4.1,6.5c0.5,0.7,0.8,1.3,1.1,1.8c0.1,0.2,0.3,0.4,0.4,0.6c-0.2-0.2-0.3-0.4-0.4-0.6l-1.2-1.7
		c-1-1.5-2.4-3.7-4.2-6.4c-3.5-5.4-8.2-13-12.8-21.7c-4-7.4-7.5-15.1-10.6-22.9c-1.2-3-2.1-5.5-2.6-7.2c-0.3-0.8-0.5-1.5-0.6-2
		C160.3,221.5,160.3,221.2,160.2,221z"/>
	<path class="st4" d="M270.9,243.3c-0.3-0.5-0.5-1-0.7-1.6l-1.9-4.4l-6.3-14.3c-2.5-5.6-4.6-10.7-6.1-14.4c-0.7-1.9-1.3-3.4-1.7-4.4
		c-0.2-0.5-0.4-1.1-0.5-1.6c0.3,0.5,0.5,1,0.7,1.6c0.5,1.1,1.1,2.6,1.9,4.4c1.6,3.7,3.8,8.8,6.3,14.3s4.6,10.7,6.1,14.4
		c0.8,1.9,1.3,3.4,1.7,4.4C270.5,242.2,270.7,242.8,270.9,243.3z"/>
	<path class="st4" d="M214.7,276.2c-1.1,0.4-2.2,0.8-3.3,1.1c-2.6,0.9-5.2,1.9-7.7,3c-2.5,1.2-5,2.5-7.3,3.9c-1,0.6-2,1.2-3,1.8
		c0,0,0.2-0.2,0.7-0.6s1.2-0.9,2.1-1.5c2.3-1.5,4.8-2.9,7.3-4c2.5-1.2,5.2-2.1,7.9-2.9c1-0.3,1.9-0.5,2.5-0.6
		C214.1,276.3,214.4,276.2,214.7,276.2z"/>
	<path class="st4" d="M264.8,174.4c0,0.1-1.3,0.3-3.3,1.1c-5.2,2.2-8.8,7.1-9.2,12.8c-0.2,2.1,0.1,3.4,0,3.5
		c-0.1-0.3-0.2-0.6-0.2-0.9c-0.1-0.8-0.2-1.7-0.1-2.6c0.2-5.9,3.9-11,9.4-13.1c0.8-0.3,1.6-0.5,2.5-0.7
		C264.2,174.4,264.5,174.3,264.8,174.4z"/>
	<path class="st4" d="M169,281.5c-0.1,0.1-1.1-0.5-2.9-1.2c-4.8-1.8-9.9-2.1-14.9-1c-1.9,0.4-3,0.8-3.1,0.8s0.3-0.2,0.8-0.4
		c0.7-0.3,1.5-0.5,2.2-0.7c5-1.3,10.3-0.9,15.1,1c0.7,0.3,1.4,0.6,2.1,1C168.7,281.3,169,281.5,169,281.5z"/>
	<g class="st9">
		<path d="M161.4,224.2c-0.9,11.5,4.3,22.5,13.3,29.8C169.2,244.5,164.8,234.5,161.4,224.2z"/>
	</g>
	<path class="st3" d="M222,259.6c0,0,0,0.4-0.1,1.2c-0.1,1.2-0.1,2.3-0.1,3.5c0.2,4.3,0.8,8.5,1.6,12.7c1.9,10.6,5.5,25.1,9.9,41
		s8.8,30.2,11.9,40.5c1.6,5.1,2.9,9.3,3.8,12.2l1,3.3c0.1,0.4,0.2,0.8,0.3,1.2c0,0-0.1-0.4-0.4-1.1s-0.6-1.9-1.1-3.3
		c-0.9-2.9-2.3-7-3.9-12.2c-3.3-10.3-7.7-24.6-12.1-40.5s-7.9-30.4-9.8-41.1c-0.8-4.2-1.3-8.5-1.4-12.7c0-1.2,0-2.3,0.1-3.5
		c0-0.4,0.1-0.7,0.1-0.9C221.9,259.8,222,259.7,222,259.6z"/>
	<path class="st4" d="M246.6,370c-5.1-7.4-5.3-7.9-5.3-7.9l-28.7,20.8c-0.9,1.1-5.2,9.7-8.3,15.2s-6.2,19.1,2.1,24s16.1,5.8,23.3-1
		c5.2-4.7,18.5-33.1,18.5-33.1S253.6,380.2,246.6,370z"/>
	<path class="st3" d="M245.5,367.1c-5.1-7.4-5.3-7.9-5.3-7.9L211.5,380c-0.9,1.1-5.2,9.7-8.3,15.2s-6.2,19.1,2.1,24s16.1,5.8,23.4-1
		c5.1-4.7,18.5-33.1,18.5-33.1S252.5,377.3,245.5,367.1z"/>
	<path class="st4" d="M209,291.1c0,0-16,1.2-20.7,6.1s-23,24.4-23.9,38.5s15.7,25.6,18,27.8s22.1,15.5,22.1,15.5s28.3,5.8,35.6-10.1
		c0.2-1.4,0.2-2.9,0-4.3c-0.4-1.3-3-11.8-6.4-19.7c-1.8-4.1-6.4-8.3-6.4-8.3l16.2-14.1c0,0,13.7-12.6,9.3-21.2
		S217.7,289.9,209,291.1z"/>
	<path class="st3" d="M194,371.7c0.7,0.4,14.6,13.9,15,13.9s19,7.1,25.4,0s9.1-21.2,9.1-21.2l-9.4-21.3c0,0-3.3,18.3-17.5,25.1
		C209.5,371.4,201.7,372.6,194,371.7z"/>
	<path class="st4" d="M224.9,386.4c-0.6,0.5-1.3,0.8-2.1,1c-3.6,1.1-7.6,0.7-10.9-1c-0.7-0.3-1.3-0.8-1.9-1.4c0.7,0.3,1.4,0.6,2.1,1
		c1.7,0.7,3.4,1.2,5.3,1.4c1.8,0.2,3.6,0,5.4-0.4C224.1,386.6,224.9,386.3,224.9,386.4z"/>
	<path class="st3" d="M217.9,353c-0.1,0,0.5-1.6,1.1-4.3c0.3-1.6,0.5-3.2,0.6-4.8c0.2-3.9-0.4-7.8-1.7-11.5c-0.5-1.5-1.2-3-1.9-4.4
		c-1.3-2.4-2.4-3.7-2.3-3.8c0.3,0.3,0.6,0.6,0.8,0.9c0.2,0.3,0.5,0.7,0.8,1.1c0.4,0.5,0.7,1,1,1.6c0.8,1.4,1.5,2.9,2.1,4.4
		c0.7,1.9,1.2,3.8,1.5,5.8c0.3,2,0.4,4,0.3,6c-0.1,1.6-0.3,3.2-0.7,4.8c-0.1,0.7-0.3,1.3-0.5,1.8c-0.1,0.5-0.3,0.9-0.5,1.3
		C218.2,352.3,218.1,352.7,217.9,353z"/>
	<path class="st4" d="M249.3,383.9c-0.3-0.4-0.5-0.8-0.7-1.2l-1.9-3.3c-1.6-2.8-3.8-6.5-6.4-10.7s-5-7.8-6.8-10.4l-2.1-3.1
		c-0.3-0.4-0.5-0.8-0.7-1.2c0.3,0.3,0.6,0.7,0.9,1.1c0.6,0.7,1.3,1.7,2.3,3c1.9,2.6,4.4,6.2,7,10.3s4.8,8,6.3,10.8
		c0.8,1.4,1.3,2.5,1.7,3.4C249,383.1,249.2,383.5,249.3,383.9z"/>
	<g class="st9">
		<path d="M236,329c-3.1-12-6.5-24.7-9.6-36.6c-0.1-0.2-0.1-0.5-0.1-0.7c0,0.1-3.8-0.4-3.9-0.4c-0.8,0.1,1.2,2.7,1.5,3.4
			c3.6,8.1,5.8,16.7,6.6,25.5c0.3,2.9,0.4,5.9-0.8,8.6s-3.9,4.9-6.7,4.5c1.6,1.2,2.8,2,4.4,3.3L236,329z"/>
	</g>
	<path class="st10" d="M133.2,388.7l-7-0.3c0.6-8.7,2.5-17.2,5.6-25.3c6.9-17.4,18.8-27.9,34.4-30.1c10-1.4,18.9,0.9,26.4,7
		c16,12.8,21.3,39.2,21.9,47.4l-7,0.5c-0.4-6-5-31-19.3-42.5c-5.9-4.8-13.5-6.8-21-5.5C135.5,344.6,133.2,388.3,133.2,388.7z"/>
	<ellipse class="st10" cx="170.4" cy="389.1" rx="44.4" ry="17.4"/>
	<path class="st5" d="M147,372.2c-4.2,1.1-7.1,4.9-9.3,8.7c-2.6,4.5-4.1,9.7-4.4,14.9c-0.3,6.8,2.9,13.4,8.4,17.4
		c1.6,1.1,3.3,1.9,5.1,2.5c5.6,1.8,11.7,0.5,16.2-3.3c3.9-3.5,5.3-8,5.7-13.2c0.5-5.6-1.5-11.2-4-15.9c-1.8-3.4-4.3-6.3-7.4-8.7
		C154.5,372.3,150.7,371.4,147,372.2z"/>
	<path class="st6" d="M164.6,382.9c-0.2-0.1-0.3-0.2-0.5-0.3l-1.3-0.9l-4.8-3.3l0.3-0.1c-1.1,2-2.3,4.3-3.6,6.8l-0.1,0.2l-0.2-0.1
		l-3.5-2.3l-4.1-2.7h0.3l-5.7,6.7l-0.1,0.2L141,387l-3-3.3c-0.4-0.4-0.7-0.8-1.1-1.2c0.4,0.3,0.8,0.7,1.2,1.1l3.1,3.1H141l5.6-6.8
		l0.1-0.2l0.2,0.1l4.1,2.7l3.5,2.3l-0.4,0.1c1.4-2.5,2.6-4.8,3.7-6.7l0.1-0.2l0.2,0.1l4.7,3.4l1.3,1
		C164.5,382.8,164.6,382.9,164.6,382.9z"/>
	<path class="st6" d="M147.7,384.3c0,0,0.4-0.3,0.9,0.1c0.3,0.2,0.5,0.6,0.5,1c0,0.7-0.6,1.2-1.3,1.2c-0.4,0-0.7-0.2-0.9-0.5
		c-0.2-0.3-0.3-0.8-0.1-1.1c0.3-0.6,0.8-0.6,0.8-0.6s-0.3,0.2-0.4,0.7c-0.1,0.2,0,0.5,0.2,0.7c0.2,0.2,0.5,0.3,0.8,0.3
		c0.3-0.1,0.5-0.4,0.5-0.6c0-0.3,0-0.5-0.2-0.7C148.1,384.3,147.7,384.4,147.7,384.3z"/>
	<path class="st6" d="M139.7,380.4c0,0,0.4-0.3,0.9,0.1c0.3,0.2,0.5,0.6,0.5,1c0,0.7-0.6,1.2-1.3,1.2c-0.4,0-0.7-0.2-0.9-0.5
		c-0.2-0.3-0.3-0.8-0.1-1.1c0.3-0.6,0.8-0.6,0.8-0.6s-0.3,0.2-0.4,0.7c-0.1,0.2,0,0.5,0.2,0.7c0.2,0.2,0.5,0.3,0.8,0.3
		c0.3-0.1,0.5-0.4,0.5-0.7c0-0.3-0.1-0.5-0.2-0.7C140.1,380.4,139.8,380.5,139.7,380.4z"/>
	<path class="st6" d="M152.7,378.7c0,0,0.4-0.3,0.9,0.1c0.3,0.2,0.5,0.6,0.5,1c0,0.5-0.4,0.9-0.9,1.1c-0.5,0.1-1,0-1.3-0.4
		c-0.2-0.3-0.3-0.7-0.1-1.1c0.3-0.6,0.8-0.6,0.8-0.6s-0.3,0.2-0.4,0.7c-0.1,0.2,0,0.5,0.2,0.7c0.2,0.2,0.5,0.3,0.8,0.3
		c0.3-0.1,0.5-0.4,0.5-0.7c0-0.3-0.1-0.5-0.2-0.7C153.1,378.7,152.8,378.8,152.7,378.7z"/>
	<path class="st6" d="M136.9,385.9c0,0,0.4-0.3,1,0.1c0.3,0.2,0.5,0.6,0.5,1c0,0.5-0.4,0.9-0.9,1.1c-0.5,0.1-1,0-1.3-0.4
		c-0.3-0.3-0.3-0.7-0.2-1.1c0.3-0.6,0.8-0.6,0.8-0.6s-0.3,0.2-0.4,0.7c-0.1,0.2,0,0.5,0.2,0.7c0.2,0.2,0.5,0.3,0.8,0.3
		c0.3-0.1,0.5-0.4,0.5-0.7c0-0.3-0.1-0.5-0.2-0.7C137.2,386,136.9,386,136.9,385.9z"/>
	<path class="st6" d="M159,383c0,0,0.4-0.3,1,0.1c0.3,0.2,0.5,0.6,0.5,1c0,0.7-0.6,1.2-1.3,1.2c-0.4,0-0.7-0.2-0.9-0.5
		c-0.3-0.3-0.3-0.8-0.1-1.1c0.3-0.6,0.8-0.6,0.8-0.6s-0.3,0.2-0.4,0.7c-0.1,0.2,0,0.5,0.2,0.7c0.2,0.2,0.5,0.3,0.8,0.3
		c0.3-0.1,0.5-0.4,0.5-0.7c0-0.3,0-0.5-0.2-0.7C159.4,383,159.1,383,159,383z"/>
	<path class="st6" d="M135.1,403.9c0,0,0.2,0.1,0.5,0.3l1.3,0.9l4.8,3.3h-0.3l6.2-7.2l0.1-0.2l0.2,0.1l3.3,2.4l3.8,2.8h-0.3l5.1-6.1
		l0.2-0.1l0.1,0.1l5.5,3.2l1.5,0.9c0.2,0.1,0.4,0.2,0.5,0.4c-0.2,0-0.4-0.1-0.6-0.2l-1.6-0.8l-5.6-3h0.3l-5.1,6.2l-0.1,0.2l-0.2-0.1
		l-3.9-2.8l-3.3-2.4h0.3l-6.2,7.1l-0.1,0.1l-0.1-0.1l-4.7-3.4l-1.3-1C135.4,404.2,135.2,404,135.1,403.9z"/>
	<path class="st6" d="M153.9,402.8c0,0-0.4,0.3-0.9-0.1c-0.3-0.2-0.5-0.6-0.5-1c0-0.7,0.6-1.2,1.3-1.2c0.4,0,0.7,0.2,0.9,0.5
		c0.3,0.3,0.3,0.7,0.1,1.1c-0.3,0.6-0.8,0.6-0.8,0.6s0.3-0.2,0.4-0.7c0.1-0.2,0-0.5-0.2-0.7c-0.2-0.2-0.5-0.3-0.8-0.3
		c-0.3,0.1-0.5,0.4-0.5,0.6c0,0.3,0,0.5,0.2,0.7C153.5,402.8,153.9,402.8,153.9,402.8z"/>
	<path class="st6" d="M161.6,406.2c0,0-0.4,0.3-1-0.1c-0.3-0.2-0.5-0.6-0.5-1c0-0.7,0.6-1.2,1.3-1.1c0.4,0,0.7,0.2,0.9,0.5
		c0.3,0.3,0.3,0.7,0.2,1.1c-0.3,0.6-0.8,0.6-0.8,0.6s0.3-0.2,0.4-0.7c0.1-0.2,0-0.5-0.2-0.7c-0.3-0.3-0.8-0.4-1.1-0.1
		c-0.2,0.1-0.3,0.3-0.3,0.5c0,0.3,0.1,0.5,0.2,0.7C161.3,406.1,161.6,406.1,161.6,406.2z"/>
	<path class="st6" d="M148.5,407.7c0,0-0.4,0.3-1-0.1c-0.3-0.2-0.5-0.6-0.5-1c0-0.7,0.6-1.2,1.3-1.2c0.4,0,0.7,0.2,0.9,0.5
		c0.2,0.3,0.3,0.7,0.1,1.1c-0.3,0.6-0.8,0.6-0.8,0.6s0.3-0.2,0.4-0.7c0.1-0.2,0-0.5-0.2-0.7c-0.3-0.3-0.7-0.4-1.1-0.1
		c-0.2,0.1-0.3,0.3-0.3,0.5c0,0.3,0,0.5,0.2,0.7C148.1,407.6,148.4,407.6,148.5,407.7z"/>
	<path class="st6" d="M166.1,401c0,0-0.4,0.3-0.9-0.1c-0.3-0.2-0.5-0.6-0.5-1c0-0.7,0.6-1.2,1.3-1.1c0.4,0,0.7,0.2,0.9,0.5
		c0.2,0.3,0.3,0.7,0.1,1.1c-0.3,0.6-0.8,0.6-0.8,0.6s0.3-0.2,0.4-0.7c0.1-0.2,0-0.5-0.2-0.7c-0.3-0.3-0.7-0.4-1.1-0.1
		c-0.2,0.1-0.3,0.3-0.3,0.5c0,0.3,0.1,0.5,0.2,0.7C165.7,401,166.1,400.9,166.1,401z"/>
	<path class="st6" d="M140.3,404.5c0.1,0-0.4,0.3-0.9-0.1c-0.3-0.2-0.5-0.6-0.5-1c0-0.7,0.6-1.2,1.3-1.1c0.4,0,0.7,0.2,0.9,0.5
		c0.3,0.3,0.3,0.8,0.2,1.1c-0.3,0.6-0.8,0.6-0.8,0.6s0.3-0.2,0.4-0.7c0.1-0.2,0-0.5-0.2-0.7c-0.2-0.2-0.5-0.3-0.8-0.3
		c-0.3,0.1-0.5,0.4-0.5,0.7c0,0.3,0.1,0.5,0.2,0.7C140,404.4,140.3,404.4,140.3,404.5z"/>
	<path class="st6" d="M166.4,386.9c-0.3,0.3-0.7,0.5-1.1,0.7c-0.4,0.2-0.8,0.5-1.3,0.8s-1.1,0.6-1.8,0.9c-1.6,0.7-3.3,1.4-5,1.9
		c-2.1,0.6-4.2,1.1-6.4,1.4c-2.2,0.3-4.3,0.4-6.5,0.4c-1.8,0-3.6-0.2-5.3-0.5c-0.8-0.1-1.4-0.3-2-0.4s-1.1-0.3-1.5-0.4
		c-0.4-0.1-0.8-0.2-1.3-0.4c0-0.1,1.8,0.4,4.8,0.8c1.7,0.2,3.5,0.3,5.3,0.4c2.2,0,4.3-0.1,6.4-0.4c2.1-0.3,4.2-0.8,6.3-1.4
		c1.7-0.5,3.4-1.1,5-1.8C164.7,387.8,166.3,386.8,166.4,386.9z"/>
	<path class="st6" d="M167.5,389.5c-0.4,0.3-0.7,0.6-1.1,0.8c-0.4,0.2-0.9,0.5-1.4,0.8s-1.2,0.6-1.9,1c-1.7,0.8-3.5,1.5-5.3,2
		c-2.2,0.7-4.4,1.2-6.7,1.5c-2.3,0.3-4.6,0.5-6.9,0.6c-1.9,0-3.8-0.1-5.6-0.4c-0.8-0.1-1.5-0.2-2.1-0.4c-0.5-0.1-1.1-0.2-1.6-0.4
		c-0.5-0.1-0.9-0.2-1.3-0.4c0-0.1,1.9,0.4,5.1,0.8c1.9,0.2,3.7,0.3,5.6,0.2c2.3-0.1,4.5-0.3,6.8-0.6c2.3-0.4,4.5-0.9,6.7-1.5
		c1.8-0.5,3.5-1.2,5.3-1.9c0.7-0.3,1.4-0.6,2-0.9s1.1-0.5,1.5-0.7C166.7,389.8,167.1,389.6,167.5,389.5z"/>
	<path class="st6" d="M168,392.7c-0.4,0.3-0.7,0.6-1.1,0.8c-0.4,0.2-0.9,0.5-1.4,0.8s-1.2,0.6-1.9,1c-1.7,0.8-3.5,1.5-5.3,2
		c-2.2,0.7-4.4,1.2-6.7,1.5c-2.3,0.3-4.6,0.5-6.9,0.6c-1.9,0-3.7-0.1-5.6-0.3c-0.8-0.1-1.5-0.2-2.1-0.4c-0.5-0.1-1.1-0.2-1.6-0.4
		c-0.5-0.1-0.9-0.2-1.3-0.4c0-0.1,1.9,0.4,5.1,0.8c1.9,0.2,3.7,0.3,5.6,0.2c2.3-0.1,4.5-0.3,6.8-0.6c2.3-0.4,4.5-0.9,6.7-1.5
		c1.8-0.5,3.5-1.2,5.3-1.9c0.7-0.3,1.4-0.6,2-0.9s1.1-0.5,1.5-0.7C167.2,393.1,167.6,392.8,168,392.7z"/>
	<path class="st0" d="M198.9,380.9c-4-1.7-8.7-0.5-12.7,1.2c-4.9,2-9.2,5.1-12.6,9.2c-4.4,5.2-5.9,12.3-3.9,18.9
		c0.6,1.8,1.4,3.6,2.5,5.1c3.3,4.8,8.9,7.6,14.8,7.3c5.2-0.4,9.1-3.1,12.6-7c3.8-4.2,5.7-9.8,6.5-15c0.6-3.8,0.4-7.7-0.5-11.4
		C204.7,385.6,202.4,382.3,198.9,380.9z"/>
	<path class="st6" d="M206.3,400.1c-0.1-0.2-0.2-0.3-0.2-0.5c-0.1-0.4-0.3-0.9-0.5-1.5c-0.5-1.4-1.1-3.3-1.8-5.5l0.3,0.1l-7,3.1
		l-0.3,0.1l-0.1-0.3c-0.4-1.3-0.9-2.6-1.4-4c-0.6-1.6-1.1-3.2-1.6-4.7l0.3,0.2l-8.6,1.8h-0.2v-0.2c-0.2-1.8-0.3-3.3-0.4-4.4
		c-0.1-0.5-0.1-1.1-0.1-1.6c0.1,0.5,0.2,1.1,0.3,1.6c0.1,1.1,0.3,2.6,0.6,4.4l-0.2-0.2l8.6-1.9l0.2,0l0.1,0.2c0.5,1.5,1,3.1,1.6,4.7
		l1.3,4l-0.3-0.1l7.1-3.1l0.2-0.1l0.1,0.2c0.7,2.3,1.2,4.1,1.6,5.5c0.2,0.6,0.3,1.1,0.4,1.5C206.3,399.7,206.3,399.9,206.3,400.1z"
		/>
	<path class="st6" d="M192.1,390.8c0-0.1,0.5,0,0.7,0.6c0.1,0.4,0,0.8-0.2,1.1c-0.4,0.5-1.2,0.6-1.7,0.1c-0.3-0.2-0.4-0.6-0.4-0.9
		c0-0.4,0.2-0.8,0.6-1c0.6-0.3,1,0,1,0s-0.4,0-0.8,0.3c-0.2,0.2-0.3,0.4-0.3,0.7c0,0.4,0.4,0.8,0.8,0.7c0.2,0,0.4-0.1,0.5-0.2
		c0.2-0.2,0.3-0.4,0.2-0.7C192.4,391.1,192,390.9,192.1,390.8z"/>
	<path class="st6" d="M188.2,382.9c0-0.1,0.5,0,0.7,0.6c0.1,0.4,0,0.8-0.2,1.1c-0.4,0.5-1.2,0.6-1.7,0.1c-0.3-0.2-0.4-0.6-0.4-0.9
		c0-0.4,0.2-0.8,0.6-1c0.6-0.3,1,0,1,0s-0.4,0-0.7,0.3c-0.2,0.2-0.3,0.4-0.3,0.7c0,0.3,0.2,0.6,0.5,0.7c0.3,0.1,0.6,0,0.8-0.2
		c0.2-0.2,0.3-0.4,0.2-0.7C188.5,383.1,188.1,382.9,188.2,382.9z"/>
	<path class="st6" d="M199.5,389.5c0-0.1,0.5,0,0.7,0.6c0.1,0.4,0,0.8-0.2,1.1c-0.4,0.4-0.9,0.5-1.4,0.3c-0.5-0.2-0.8-0.7-0.8-1.2
		c0-0.4,0.2-0.8,0.6-1c0.6-0.3,1,0,0.9,0s-0.4,0-0.7,0.3c-0.2,0.2-0.3,0.4-0.3,0.7c0,0.4,0.4,0.8,0.8,0.7c0.2,0,0.4-0.1,0.5-0.2
		c0.2-0.2,0.3-0.4,0.2-0.7C199.8,389.7,199.5,389.5,199.5,389.5z"/>
	<path class="st6" d="M182.5,385.5c0-0.1,0.5,0,0.7,0.6c0.1,0.4,0,0.8-0.2,1.1c-0.3,0.4-0.9,0.5-1.4,0.3c-0.5-0.2-0.8-0.7-0.8-1.2
		c0-0.4,0.2-0.8,0.6-1c0.6-0.3,1,0,1,0s-0.4,0-0.8,0.3c-0.2,0.2-0.3,0.4-0.3,0.7c0,0.3,0.2,0.6,0.5,0.7c0.3,0.1,0.6,0,0.8-0.2
		c0.2-0.2,0.3-0.4,0.2-0.7C182.8,385.8,182.4,385.6,182.5,385.5z"/>
	<path class="st6" d="M201.9,396.7c0-0.1,0.5,0,0.7,0.6c0.1,0.4,0,0.8-0.2,1.1c-0.3,0.4-0.9,0.5-1.4,0.3c-0.5-0.2-0.8-0.7-0.8-1.2
		c0-0.4,0.2-0.8,0.6-1c0.6-0.3,1,0,0.9,0s-0.4,0-0.8,0.3c-0.2,0.2-0.3,0.4-0.3,0.7c0,0.4,0.4,0.8,0.8,0.7c0.2,0,0.4-0.1,0.5-0.2
		c0.2-0.2,0.3-0.4,0.2-0.7C202.1,397,201.8,396.8,201.9,396.7z"/>
	<path class="st6" d="M170.2,398.7c0.1,0.2,0.2,0.3,0.2,0.5c0.1,0.4,0.3,0.9,0.5,1.5l1.8,5.5l-0.2-0.1l9.3-1.9l0.2,0l0.1,0.2
		c0.4,1.2,0.8,2.5,1.1,3.9l1.3,4.5l-0.3-0.2l7.8-1.7h0.2l0.1,0.2l2.4,5.9c0.3,0.6,0.5,1.2,0.6,1.6c0.1,0.2,0.2,0.4,0.2,0.6
		c-0.1-0.2-0.2-0.3-0.3-0.5c-0.2-0.4-0.4-1-0.7-1.6c-0.7-1.5-1.5-3.4-2.6-5.8l0.2,0.1l-7.8,1.8l-0.2,0.1l-0.1-0.2
		c-0.4-1.5-0.9-3-1.4-4.5c-0.4-1.3-0.8-2.6-1.1-3.9l0.3,0.2l-9.3,1.8h-0.2v-0.2c-0.7-2.3-1.2-4.1-1.6-5.5c-0.2-0.6-0.3-1.1-0.4-1.5
		C170.2,399,170.2,398.9,170.2,398.7z"/>
	<path class="st6" d="M185.7,409.3c0,0.1-0.5,0-0.7-0.6c-0.1-0.4,0-0.8,0.2-1.1c0.3-0.4,0.9-0.5,1.4-0.3c0.5,0.2,0.8,0.7,0.8,1.2
		c0,0.4-0.2,0.8-0.6,1c-0.6,0.3-1,0-1,0s0.4,0,0.8-0.3c0.2-0.2,0.3-0.4,0.3-0.7c0-0.3-0.2-0.6-0.5-0.7c-0.3-0.1-0.6,0-0.8,0.2
		c-0.2,0.2-0.3,0.4-0.2,0.7C185.4,409,185.7,409.2,185.7,409.3z"/>
	<path class="st6" d="M189.8,416.7c0,0.1-0.5,0-0.7-0.6c-0.1-0.4,0-0.8,0.2-1.1c0.5-0.5,1.2-0.5,1.7-0.1c0.3,0.2,0.4,0.6,0.4,0.9
		c0,0.4-0.2,0.8-0.6,1c-0.6,0.3-1,0-0.9,0s0.4,0,0.8-0.3c0.2-0.2,0.3-0.4,0.3-0.7c0-0.3-0.2-0.6-0.5-0.7c-0.3-0.1-0.6,0-0.8,0.2
		c-0.2,0.2-0.3,0.4-0.2,0.7C189.5,416.4,189.8,416.6,189.8,416.7z"/>
	<path class="st6" d="M178.4,409.8c0,0.1-0.5,0-0.7-0.6c-0.1-0.4,0-0.8,0.2-1.1c0.3-0.4,0.9-0.5,1.4-0.3c0.5,0.2,0.8,0.7,0.8,1.2
		c0,0.4-0.2,0.8-0.6,1c-0.6,0.3-1,0-1,0s0.4,0,0.8-0.3c0.2-0.2,0.3-0.4,0.3-0.7c0-0.3-0.2-0.6-0.5-0.7c-0.3-0.1-0.6,0-0.8,0.2
		c-0.2,0.2-0.3,0.4-0.2,0.7C178.1,409.5,178.5,409.7,178.4,409.8z"/>
	<path class="st6" d="M196.5,415.3c0,0.1-0.5,0-0.7-0.6c-0.1-0.4,0-0.8,0.2-1.1c0.3-0.4,0.9-0.5,1.4-0.3c0.5,0.2,0.8,0.7,0.8,1.2
		c0,0.4-0.2,0.8-0.6,1c-0.6,0.3-1,0-1,0s0.4,0,0.8-0.3c0.2-0.2,0.3-0.4,0.3-0.7c0-0.3-0.2-0.6-0.5-0.7c-0.3-0.1-0.6,0-0.8,0.2
		c-0.2,0.2-0.3,0.4-0.2,0.7C196.2,415,196.5,415.2,196.5,415.3z"/>
	<path class="st6" d="M173.9,402.3c0,0.1-0.5,0-0.7-0.6c-0.1-0.4,0-0.8,0.2-1.1c0.3-0.4,0.9-0.5,1.4-0.3c0.5,0.2,0.8,0.7,0.8,1.2
		c0,0.4-0.2,0.8-0.6,1c-0.6,0.3-1,0-1,0s0.4,0,0.7-0.3c0.2-0.2,0.3-0.4,0.3-0.7c0-0.3-0.2-0.6-0.5-0.7c-0.3-0.1-0.6,0-0.8,0.2
		c-0.2,0.2-0.3,0.4-0.2,0.7C173.7,402,174,402.2,173.9,402.3z"/>
	<path class="st6" d="M205.3,404.3c-0.4,0-0.9,0-1.3-0.1c-0.4,0-0.9-0.1-1.5-0.2s-1.3-0.2-2-0.4c-1.7-0.4-3.4-0.9-5.1-1.5
		c-4.1-1.5-7.9-3.7-11.3-6.4c-1.4-1.1-2.7-2.3-3.9-3.6c-0.5-0.5-1-1.1-1.4-1.5c-0.4-0.4-0.7-0.8-1-1.2c-0.3-0.3-0.5-0.7-0.7-1.1
		c0.1-0.1,1.2,1.4,3.3,3.6c1.3,1.2,2.6,2.4,4,3.5c1.7,1.3,3.5,2.5,5.4,3.6c1.9,1.1,3.8,2,5.8,2.8c1.6,0.6,3.3,1.2,5,1.6
		C203.4,404,205.3,404.2,205.3,404.3z"/>
	<path class="st6" d="M204.6,407c-0.5,0-0.9,0-1.4-0.1c-0.5-0.1-1.1-0.1-1.6-0.2c-0.6-0.1-1.4-0.2-2.1-0.4c-1.8-0.4-3.6-1-5.4-1.6
		c-2.2-0.8-4.2-1.8-6.3-2.9c-2-1.1-4-2.4-5.8-3.7c-1.5-1.1-2.9-2.4-4.2-3.7c-0.6-0.5-1.1-1.1-1.5-1.6s-0.8-0.9-1-1.3
		c-0.3-0.4-0.6-0.7-0.8-1.1c0.1-0.1,1.3,1.5,3.6,3.7c1.4,1.3,2.8,2.5,4.3,3.6c1.8,1.3,3.8,2.6,5.8,3.7c2,1.1,4.1,2,6.2,2.9
		c1.7,0.7,3.5,1.3,5.3,1.7c0.8,0.2,1.5,0.4,2.1,0.5s1.1,0.3,1.6,0.3C203.7,406.8,204.2,406.9,204.6,407z"/>
	<path class="st6" d="M203.1,409.9c-0.5,0-0.9,0-1.4-0.1c-0.5-0.1-1.1-0.1-1.6-0.2c-0.6-0.1-1.4-0.2-2.1-0.4c-1.8-0.4-3.6-1-5.4-1.6
		c-4.3-1.6-8.4-3.8-12.1-6.6c-1.5-1.1-2.9-2.4-4.2-3.7c-0.6-0.5-1-1.1-1.5-1.6c-0.4-0.4-0.7-0.8-1-1.3c-0.3-0.4-0.6-0.7-0.8-1.1
		c0.1-0.1,1.3,1.5,3.6,3.7c1.3,1.3,2.8,2.5,4.3,3.6c1.8,1.3,3.8,2.6,5.8,3.7c2,1.1,4.1,2.1,6.2,2.9c1.7,0.7,3.5,1.2,5.3,1.7
		c0.8,0.2,1.5,0.4,2.1,0.5s1.1,0.3,1.6,0.3C202.2,409.6,202.6,409.7,203.1,409.9z"/>
	<path class="st11" d="M170.3,406.7c-21.7,0.1-40.1-8.1-44-16.1c0.8,12.4,7.2,38,41.8,39.7c39.7,2,45.5-29.5,46.4-39.6
		C212.5,399.5,193.5,406.6,170.3,406.7z"/>
	<path class="st7" d="M150.2,340.4c-1.4-2.3-1.6-5.1-0.6-7.6c0.4-0.9,1-1.7,1.9-2.3c1.6-0.9,3.6-0.5,4.7,0.9c0,0,0.7-4.7,8.5-5.4
		s11.1-1.9,16.7,3.2s6.7,14.6,6.7,14.6s0.5,6.3-0.9,8.5c-1.7,2.6-2.5,2-4.3,1.2s-2.6-5.2-2.6-5.2s-1,1.6-4.2,2.2
		c-1.7,0.3-5.8-3.1-5.8-3.1s-1.8,3.5-5.2,3c-2.1-0.3-5-4.4-5-4.4s-0.2,4-3.2,2.7C155,347.9,152,343.3,150.2,340.4z"/>
	<path class="st8" d="M160.3,346.8c-0.2,0-0.6-2.6-1.7-5.6s-2.4-5.4-2.3-5.4c1.2,1.6,2.2,3.3,2.8,5.3
		C159.9,342.9,160.3,344.8,160.3,346.8z"/>
	<path class="st8" d="M170.3,347.5c-1.7-3.8-3-7.8-4.1-11.9c0.9,1.9,1.7,3.8,2.3,5.9C169.3,343.4,169.9,345.5,170.3,347.5z"/>
	<path class="st8" d="M180.4,348.9c-0.2,0-0.9-3.1-2.4-6.7s-3.2-6.4-3.1-6.5c0.5,0.5,0.9,1.1,1.2,1.7c1.8,2.9,3.1,6.1,3.9,9.4
		C180.3,347.5,180.4,348.2,180.4,348.9z"/>
	<path class="st4" d="M162.2,96.8h1c-0.5-6.2-0.1-12.3,2.1-18.1c4-10.3,13.4-17.4,23.4-20.4c10.2-3,20.9-3.7,31.4-2.1
		c4.9,0.8,10.3,4,11.8,9c0.8,2.6,0.1,5.4-0.8,7.9c-4.2,11.7-14.5,20.7-26.2,22.8c-2.6,0.5-5.5,0.7-7.6,2.3c-2.6,2.1-4.2,5.4-5.1,8.9
		c-0.3,1.5-0.5,3.1-0.6,4.6c-0.3,4.5,0.3,9-0.8,13.4c-1.3,5.4-6.1,9.8-6.1,15.4c0.1,8.9,12.2,14,12.4,22.9c0.1,3.9-2.1,7.4-4,10.8
		s-3.3,7.6-1.6,11.1c0.9,1.8,2.5,3.1,3.6,4.8c3.5,5.5,0.1,13.6-5.9,16.1s-13.3,0.4-18.2-3.8s-8-10.3-10.4-16.4
		C149.2,157.3,149.8,125.1,162.2,96.8z"/>
	<path class="st5" d="M228,59.2c-0.1,0-0.2,0-0.3-0.1l-0.7-0.3l-2.6-1.1c-3.3-1.2-6.8-1.9-10.3-2.1c-1.1,0-2.3,0-3.5,0.2
		c-1.2,0.1-2.5,0.4-3.7,0.7c-2.7,0.7-5.2,1.9-7.5,3.5c-5.3,3.7-9.4,8.6-12.1,14.5c-1.4,3-2.4,6.1-3.2,9.3c-0.7,3-1.2,6-1.3,9.1
		c0,2.8,0.2,5.6,0.7,8.3c0.4,2.4,0.9,4.8,1.5,7.1c0.9,3.4,2.2,6.7,3.8,9.8c0.6,1.1,1.1,1.9,1.4,2.5l0.4,0.6c0.1,0.2,0.1,0.2,0.1,0.2
		c-0.1-0.1-0.1-0.1-0.2-0.2c-0.1-0.2-0.3-0.4-0.4-0.6c-0.6-0.8-1.1-1.6-1.5-2.4c-1.7-3.1-3.1-6.4-4-9.8c-0.6-2.4-1.2-4.7-1.5-7.2
		c-0.5-2.8-0.8-5.6-0.8-8.4c0.1-3.1,0.5-6.2,1.3-9.2c0.7-3.3,1.8-6.4,3.2-9.5c2.7-5.9,7-11,12.3-14.6c2.3-1.6,4.9-2.8,7.7-3.5
		c1.2-0.3,2.5-0.6,3.8-0.7c1.2-0.1,2.4-0.1,3.5-0.2c3.5,0.2,7,0.9,10.4,2.2l2.6,1.2l0.7,0.3C227.8,59.1,227.9,59.1,228,59.2z"/>
	<path class="st5" d="M187.4,71.7c0,0-0.1,0.2-0.4,0.4c-0.4,0.4-0.8,0.7-1.2,1c-1.6,1.2-3.2,2.2-5,3c-2.6,1.2-5.4,2.1-8.2,2.6
		c-1.7,0.3-3.3,0.6-5,0.7c-0.9,0.1-1.8,0.1-2.7,0.1c-0.5,0-1-0.2-1.4-0.5c-0.4-0.4-0.7-0.9-0.6-1.4c0.2-1,0.8-1.8,1.6-2.4
		c0.4-0.3,0.7-0.6,1-0.9l1.1-0.8c1.4-1,2.9-1.8,4.5-2.3c2.7-1,5.6-1.4,8.5-1.3c1.9,0.1,3.9,0.5,5.7,1.1c0.5,0.2,1,0.4,1.5,0.6
		c0.2,0.1,0.3,0.1,0.5,0.3c0,0-0.7-0.3-2-0.7c-1.8-0.6-3.7-0.9-5.6-0.9c-2.8-0.1-5.7,0.4-8.3,1.4c-1.6,0.6-3.1,1.3-4.4,2.3l-1.1,0.8
		c-0.4,0.3-0.7,0.6-1,0.9c-0.7,0.5-1.2,1.2-1.4,2.1c0,0.4,0.1,0.8,0.4,1c0.3,0.2,0.7,0.4,1.1,0.4c0.9,0.1,1.7,0,2.6-0.1
		c1.8-0.2,3.4-0.4,5-0.7c2.8-0.5,5.5-1.4,8.1-2.5c1.8-0.8,3.4-1.7,5-2.8C186.8,72.1,187.3,71.6,187.4,71.7z"/>
	<path class="st5" d="M187.4,71.8c-0.3-0.5-0.6-0.9-0.8-1.4c-0.5-1-1.2-2.3-2-4.1c-0.9-2.1-1.6-4.3-2-6.5c-0.2-1.3-0.3-2.7-0.2-4
		c0-0.7,0.1-1.4,0.3-2.1c0.2-0.8,0.8-1.4,1.6-1.7c0.4-0.1,0.9-0.1,1.3,0.2c0.3,0.2,0.6,0.5,0.8,0.9c0.3,0.6,0.5,1.3,0.7,2
		c0.4,1.3,0.7,2.6,1,3.9c0.4,2.2,0.6,4.5,0.5,6.8c0,1.5-0.3,3-0.6,4.5c-0.1,0.4-0.2,0.8-0.4,1.2C187.5,71.7,187.4,71.8,187.4,71.8
		c0,0,0.2-0.6,0.4-1.6c0.3-1.5,0.4-3,0.5-4.5c0-2.2-0.2-4.5-0.6-6.7c-0.3-1.3-0.6-2.6-1-3.8c-0.2-0.7-0.4-1.3-0.7-1.9
		c-0.2-0.6-0.8-1-1.4-0.8c-0.6,0.2-1.1,0.7-1.2,1.3c-0.2,0.7-0.3,1.3-0.3,2c-0.1,1.3,0,2.6,0.2,3.9c0.4,2.2,1,4.4,1.9,6.4
		c0.7,1.8,1.4,3.2,1.8,4.2C187,70.8,187.2,71.3,187.4,71.8z"/>
	<path class="st4" d="M244.7,236.2c-9.1,1.5-24.1,11.9-23.3,31.2s28.9,107.9,28.9,107.9l36.2,0.6l4.7-55.2l2-32.2
		c0.7-10.8-4.4-20.4-9.7-29.9C275.4,244,263.7,233,244.7,236.2z"/>
	<path class="st3" d="M288.7,334.9c0-0.3,0-0.6,0-0.8c0-0.6,0-1.4,0-2.4s0.1-2.3,0-3.8s0-3.2-0.1-5c0-0.9-0.1-1.9-0.1-2.9
		c0-1-0.2-2.1-0.2-3.2c-0.1-2.2-0.4-4.5-0.7-6.9c-0.7-5.3-1.7-10.5-3-15.7c-1.3-5.2-2.9-10.3-4.8-15.3c-0.9-2.3-1.7-4.5-2.7-6.5
		c-0.5-1-0.9-2-1.3-2.9s-0.9-1.8-1.3-2.6c-0.8-1.7-1.6-3.1-2.3-4.5s-1.3-2.4-1.8-3.3l-1.2-2.1c-0.1-0.2-0.3-0.5-0.4-0.7
		c0.2,0.2,0.3,0.4,0.5,0.7l1.3,2c0.6,0.9,1.2,2,1.9,3.3s1.6,2.8,2.4,4.4l1.3,2.6c0.5,0.9,0.9,1.9,1.3,2.9c0.9,2,1.8,4.2,2.7,6.5
		c1.9,5,3.6,10.1,4.9,15.3c1.3,5.2,2.3,10.5,3,15.8c0.3,2.5,0.6,4.8,0.7,7c0.1,1.1,0.2,2.1,0.2,3.2s0.1,2,0.1,2.9c0.1,1.9,0,3.6,0,5
		s-0.1,2.8-0.1,3.8s-0.1,1.8-0.1,2.4C288.8,334.3,288.8,334.6,288.7,334.9z"/>
	<path class="st4" d="M287.4,388.8c-0.2-1.6-1.4,0.1-3.1,0c-1.2,0.1-2.4,0.5-3.3,1.3l-40.7,27.1l-1.1-0.5c0.3,4.9,4.2,8.3,8.8,10
		c4.5,1.9,9.6,1.9,14.1,0c4.5-2,8.6-4.9,12-8.5c5.6-6,9.5-13.5,12.4-21.1C287.3,394.3,287.5,391.6,287.4,388.8z"/>
	<path class="st3" d="M289.6,340.1c-17.6,3.9-34.4,4.1-50.4,0l12,44.4v0.7c0,0-9.4,13.4-13,24.6c-1.9,6,1.2,10.9,7.1,12.9
		c5.4,2.1,11.5,2.1,16.9-0.1c9.2-3.2,15.4-13.7,17.7-18.6s7.5-12.9,7.5-16.9c0.1-7.9-0.1-19.3-0.1-19.3L289.6,340.1z"/>
	<path class="st4" d="M264.6,385.1c-0.3,0-0.6,0-0.9-0.1c-0.6-0.1-1.5-0.2-2.7-0.3c-3.2-0.2-6.4,0-9.5,0.5h-0.2l-0.1-0.2l-4-15
		c-2-7.7-3.8-14.6-5.1-19.7c-0.6-2.5-1.1-4.5-1.5-6c-0.1-0.7-0.3-1.2-0.4-1.6c-0.1-0.2-0.1-0.4-0.1-0.6c0.1,0.2,0.2,0.4,0.2,0.5
		l0.5,1.6c0.4,1.5,1,3.5,1.6,5.9l5.3,19.7l3.9,15l-0.3-0.2c3.2-0.6,6.4-0.7,9.6-0.4c1.2,0.1,2,0.3,2.7,0.4
		C264,384.9,264.3,385,264.6,385.1z"/>
	<path class="st4" d="M282.3,342.2c0.1,0-0.1,13.8-0.6,30.8s-1,30.8-1.1,30.8s0.1-13.8,0.6-30.8S282.2,342.2,282.3,342.2z"/>
	<path class="st4" d="M251.9,384.4c-0.2,0.5-0.5,0.9-0.8,1.4l-2.4,3.6c-2,3.1-4.6,7.4-7.1,12.4c-1.3,2.3-2.3,4.7-3.1,7.1
		c-0.6,2-0.8,4.2-0.4,6.2c0.3,1.4,0.9,2.7,1.7,3.9c0.6,0.8,1.1,1.1,1.1,1.1s-0.1-0.1-0.4-0.2c-0.3-0.2-0.6-0.5-0.9-0.8
		c-1-1.1-1.7-2.5-2-3.9c-0.5-2.1-0.4-4.4,0.3-6.5c0.8-2.5,1.8-5,3.1-7.3c2.2-4.2,4.6-8.4,7.3-12.3c1-1.5,1.9-2.7,2.5-3.5
		C251.1,385.2,251.5,384.8,251.9,384.4z"/>
</g>
<g id="freepik--Grass--inject-2">
	<path class="st3" d="M156.3,434.3c-3.4-8.2-12.7-22.4-20.3-27.1c-5.7-3.5-12.7-4.1-19.3-3.1s-12.8,3.5-18.9,6
		c6.1,1.6,12.4,2,18.6,2.9s13.1,0.5,15.9,2.1c3.4,2,7.8,5.5,21.4,19.2L156.3,434.3z"/>
	<path class="st4" d="M111.1,408.6c0.2,0,0.4-0.1,0.6-0.1c0.4,0,0.9-0.1,1.6-0.1c1.9-0.1,3.9-0.1,5.8,0c2.9,0.1,5.7,0.5,8.5,1.2
		c3.4,0.8,6.7,2.3,9.7,4.2c2.9,2,5.5,4.5,7.6,7.3c2,2.5,3.7,4.9,5.2,6.8l3.4,4.7l0.9,1.3c0.2,0.3,0.3,0.5,0.3,0.5
		c-0.1-0.1-0.3-0.3-0.4-0.4c-0.3-0.3-0.6-0.7-1-1.2c-0.9-1.1-2.1-2.6-3.6-4.6s-3.2-4.3-5.3-6.8c-2.1-2.8-4.7-5.2-7.5-7.1
		c-2.9-1.9-6.1-3.3-9.5-4.2c-2.8-0.7-5.6-1.1-8.4-1.3c-2.4-0.2-4.4-0.1-5.8-0.1h-1.6C111.5,408.7,111.3,408.7,111.1,408.6z"/>
	<path class="st4" d="M332.8,430.4c0.4,0,0.8,0,1.1,0c0.4,0,0.9,0.1,1.3,0.1c0.6,0.1,1.2,0.2,1.8,0.3c1.5,0.4,3,0.9,4.4,1.5
		c3.4,1.6,6.5,4,8.8,7c0.9,1.2,1.8,2.5,2.5,3.9c0.3,0.5,0.5,1.1,0.7,1.6c0.2,0.4,0.3,0.8,0.4,1.3c0.1,0.4,0.2,0.7,0.3,1.1
		c-0.1,0-0.5-1.5-1.8-3.8c-0.7-1.3-1.6-2.6-2.5-3.8c-1.2-1.4-2.5-2.7-3.9-3.9c-1.5-1.1-3-2.1-4.7-3c-1.4-0.7-2.8-1.2-4.3-1.6
		C334.4,430.6,332.8,430.5,332.8,430.4z"/>
	<path class="st4" d="M353.7,420.8c0.1,0.4,0.1,0.7,0.1,1.1c0,0.8,0.1,1.8,0.1,2.9c0.1,2.5,0.3,5.9,0.8,9.6s1.1,7.1,1.5,9.5l0.6,2.9
		c0.1,0.3,0.2,0.7,0.2,1.1c-0.2-0.3-0.3-0.7-0.4-1c-0.2-0.7-0.5-1.6-0.8-2.8c-1.5-6.3-2.3-12.7-2.3-19.1c0-1.2,0-2.2,0-2.9
		C353.5,421.5,353.6,421.2,353.7,420.8z"/>
	<path class="st4" d="M368.5,421.3c0.1,0-0.8,1.2-1.8,3.2c-0.6,1.2-1.1,2.4-1.6,3.7c-0.5,1.6-0.9,3.1-1.2,4.8
		c-0.3,1.6-0.4,3.3-0.4,4.9c0,1.3,0.1,2.7,0.3,4c0.3,2.3,0.7,3.6,0.6,3.7c-0.2-0.3-0.3-0.6-0.4-0.9c-0.3-0.9-0.5-1.8-0.6-2.7
		c-0.2-1.3-0.4-2.7-0.4-4.1c0-1.7,0.1-3.3,0.4-5c0.3-1.6,0.7-3.3,1.3-4.8c0.5-1.3,1.1-2.5,1.7-3.7c0.4-0.8,0.9-1.6,1.5-2.3
		C368,421.8,368.2,421.5,368.5,421.3z"/>
	<path class="st4" d="M53.3,428.2c-0.1,0-0.7-1.3-2-3.3c-1.6-2.7-3.5-5.1-5.7-7.4c-2.1-2.3-4.5-4.3-7-6.2c-2-1.4-3.2-2.1-3.2-2.2
		c0.3,0.1,0.7,0.3,1,0.5c0.8,0.5,1.7,1,2.4,1.5c2.6,1.7,5,3.8,7.2,6.1c2.2,2.3,4,4.9,5.6,7.6c0.6,1,1,1.9,1.3,2.5
		C53.1,427.5,53.2,427.8,53.3,428.2z"/>
	<path class="st4" d="M44.1,382.3c0,0,0.1,0.1,0.2,0.4s0.3,0.8,0.5,1.3l1.7,4.6c1.4,3.9,3.3,9.4,5.6,15.3s4.4,11.3,6,15.2l1.9,4.6
		c0.2,0.5,0.4,0.9,0.5,1.3s0.2,0.4,0.1,0.5s-0.1-0.1-0.2-0.4s-0.3-0.7-0.6-1.2c-0.5-1.1-1.2-2.6-2-4.5c-1.7-3.8-3.9-9.2-6.1-15.1
		s-4.2-11.4-5.5-15.4c-0.7-2-1.2-3.6-1.5-4.7c-0.2-0.5-0.3-0.9-0.4-1.3C44.2,382.6,44.1,382.5,44.1,382.3z"/>
	<path class="st4" d="M69.3,404.8c0,0.9-0.2,1.8-0.3,2.7c-0.3,2.2-0.5,4.4-0.5,6.6c0,2.2,0,4.4,0.2,6.6c0.1,0.9,0.2,1.8,0.2,2.8
		c-0.3-0.9-0.5-1.8-0.6-2.7c-0.3-2.2-0.5-4.4-0.4-6.7c0-2.2,0.3-4.4,0.7-6.6C68.7,406.6,68.9,405.7,69.3,404.8z"/>
	<path class="st4" d="M177.2,472.6c-0.1,0-0.3-1.2-0.8-3.1c-1.3-5-3.6-9.6-6.9-13.5c-1.3-1.5-2.1-2.4-2.1-2.4
		c0.3,0.1,0.5,0.3,0.7,0.5c0.6,0.5,1.1,1.1,1.7,1.6c3.5,3.9,5.9,8.6,7,13.7c0.2,0.8,0.3,1.5,0.4,2.3
		C177.2,472,177.2,472.3,177.2,472.6z"/>
	<path class="st4" d="M183.8,469.5c-0.3-1-0.6-2-0.8-3.1c-0.4-1.9-1.1-4.5-1.9-7.4s-1.8-5.4-2.4-7.2c-0.4-1-0.8-2-1.1-3
		c0.6,0.9,1,1.8,1.4,2.8c2,4.7,3.5,9.6,4.4,14.7C183.6,467.4,183.8,468.4,183.8,469.5z"/>
	<path class="st4" d="M190.4,455.8c-2.1,5.3-2.8,11.1-1.9,16.8c-0.3-0.8-0.5-1.6-0.6-2.5c-0.3-2-0.3-4.1-0.1-6.1
		c0.2-2,0.7-4,1.4-5.9C189.5,457.3,189.9,456.5,190.4,455.8z"/>
	<path class="st4" d="M434.7,397.8c-0.1,0.4-0.2,0.9-0.4,1.3c-0.3,0.8-0.7,2-1.1,3.4s-0.9,3.2-1.2,5.2c-0.4,2.2-0.6,4.3-0.8,6.5
		c-0.1,2.2-0.1,4.4,0,6.5c0.1,2,0.4,3.8,0.6,5.3s0.5,2.7,0.7,3.5c0.1,0.4,0.2,0.9,0.2,1.3c-0.2-0.4-0.3-0.8-0.4-1.3
		c-0.3-0.8-0.6-2-0.9-3.5c-0.4-1.8-0.6-3.5-0.8-5.3c-0.2-2.2-0.2-4.4-0.1-6.6c0.1-2.2,0.4-4.4,0.8-6.5c0.3-1.8,0.8-3.5,1.3-5.2
		c0.4-1.2,0.8-2.3,1.3-3.4C434.3,398.6,434.4,398.2,434.7,397.8z"/>
	<path class="st4" d="M443.5,406.7c0.1,0.1-0.7,0.9-1.8,2.6c-0.6,1-1.1,2-1.5,3c-0.5,1.3-0.9,2.6-1.2,3.9c-0.3,1.3-0.4,2.7-0.4,4.1
		c0,1.1,0.1,2.2,0.3,3.4c0.3,1.9,0.7,3,0.6,3c-0.2-0.2-0.3-0.5-0.4-0.8c-0.3-0.7-0.5-1.5-0.6-2.2c-0.2-1.1-0.4-2.3-0.4-3.4
		c0-1.4,0.1-2.8,0.4-4.2c0.3-1.4,0.7-2.7,1.3-4c0.5-1.1,1-2.1,1.7-3c0.4-0.6,0.9-1.2,1.5-1.8C443.3,406.8,443.5,406.6,443.5,406.7z"
		/>
	<path class="st4" d="M97,383.1c0.5,0,1.1,0,1.6,0c0.6,0,1.2,0.1,1.8,0.1c0.8,0.1,1.6,0.2,2.4,0.4c1,0.2,2,0.4,2.9,0.6
		c1,0.3,2.1,0.6,3.3,1c2.5,0.9,4.8,2.1,7.1,3.4c2.2,1.4,4.3,3,6.2,4.8c0.8,0.9,1.7,1.6,2.4,2.5c0.7,0.7,1.3,1.5,1.9,2.3
		c0.6,0.7,1,1.4,1.4,2c0.4,0.5,0.7,1.1,1,1.7c0.3,0.5,0.5,0.9,0.7,1.4c-0.3-0.4-0.6-0.9-0.9-1.3c-0.3-0.5-0.6-1-1-1.5
		c-0.4-0.6-0.9-1.3-1.4-2c-0.6-0.8-1.2-1.5-1.9-2.3c-0.7-0.8-1.5-1.6-2.4-2.4c-1.9-1.7-4-3.3-6.2-4.7c-2.2-1.3-4.6-2.5-7-3.4
		c-1.1-0.4-2.2-0.8-3.2-1.1s-2-0.5-2.9-0.7s-1.7-0.3-2.4-0.4c-0.6-0.1-1.2-0.2-1.8-0.2C98.1,383.3,97.5,383.3,97,383.1z"/>
	<path class="st4" d="M109.7,362.2c0.4,0.4,0.8,0.8,1.2,1.2c0.7,0.8,1.7,2,2.9,3.5c6.1,7.9,10.6,17,13.2,26.7c0.5,1.9,0.8,3.4,1,4.4
		c0.1,0.5,0.2,1.1,0.2,1.6c-0.2-0.5-0.4-1.1-0.4-1.6c-0.2-1-0.6-2.5-1.2-4.4c-1.4-4.8-3.2-9.4-5.4-13.9c-2.2-4.4-4.8-8.7-7.7-12.7
		c-1.1-1.5-2.1-2.8-2.8-3.6C110.3,363.1,110,362.6,109.7,362.2z"/>
</g>
<g id="freepik--magnifying-glass--inject-2">
	<path class="st3" d="M271.9,456.3c-0.2,0-0.5,0-0.7-0.1l-38.3-14c-1-0.4-1.6-1.5-1.2-2.6s1.5-1.6,2.6-1.2l0,0l38.3,14
		c1,0.4,1.6,1.5,1.2,2.6C273.5,455.8,272.7,456.3,271.9,456.3L271.9,456.3z"/>
	<path class="st3" d="M290.8,480.6c-14,0-25.4-7.8-25.4-17.3s11.4-17.3,25.4-17.3s25.4,7.8,25.4,17.3S304.8,480.6,290.8,480.6z
		 M290.8,450c-11.8,0-21.4,6-21.4,13.3s9.6,13.3,21.4,13.3s21.4-6,21.4-13.3S302.6,450,290.8,450L290.8,450z"/>
	<path class="st4" d="M290.1,474.8c-0.4,0.1-0.7,0.1-1.1,0.1c-1,0-2-0.1-3-0.2c-3.3-0.4-6.5-1.5-9.3-3.2c-2.9-1.8-4.8-4.8-5.2-8.2
		c-0.1-1,0.1-2,0.4-3c0.1-0.3,0.2-0.5,0.4-0.7c0.1-0.2,0.1-0.3,0.2-0.2c-0.1,0.3-0.2,0.7-0.3,1c-0.3,0.9-0.4,1.9-0.3,2.9
		c0.5,3.2,2.4,6.1,5.2,7.8c2.8,1.7,5.9,2.8,9.1,3.3C288.5,474.7,290.1,474.7,290.1,474.8z"/>
	<path class="st4" d="M296.7,471.2c-2.1-2-4.1-4.2-6-6.5c-2-2.2-3.8-4.4-5.6-6.8c2.1,2,4.1,4.2,6,6.5
		C293.1,466.6,295,468.8,296.7,471.2z"/>
	<path class="st4" d="M294.1,461.7c-1.2-0.9-2.2-2-3.1-3.1c-1-1-2-2.2-2.7-3.5c1.2,0.9,2.2,2,3.1,3.1
		C292.4,459.3,293.3,460.4,294.1,461.7z"/>
	<path class="st4" d="M277.7,448.5c-0.6,0.4-1.3,0.8-2,1.1c-1.6,0.9-3.2,2-4.5,3.2c-1.4,1.2-2.7,2.6-3.7,4.1c-0.8,1.2-1.2,2-1.3,1.9
		c0.2-0.8,0.5-1.5,1-2.1c1-1.6,2.3-3,3.7-4.3c1.4-1.3,3-2.3,4.7-3.1C276.2,448.9,276.9,448.6,277.7,448.5z"/>
</g>
</svg>
