<?xml version="1.0" encoding="utf-8"?>
<!-- Generator: Adobe Illustrator 24.2.3, SVG Export Plug-In . SVG Version: 6.00 Build 0)  -->
<svg version="1.1" id="Layer_1" xmlns="http://www.w3.org/2000/svg" xmlns:xlink="http://www.w3.org/1999/xlink" x="0px" y="0px"
	 viewBox="0 0 684.7 164.4" style="enable-background:new 0 0 684.7 164.4;" xml:space="preserve">
<style type="text/css">
	.st0{fill:#FFFFFF;}
	.st1{fill:#ED3851;}
</style>
<path class="st0" d="M101.1,82.2c0,5.2,4.2,9.4,9.4,9.4s9.4-4.2,9.4-9.4s-4.2-9.4-9.4-9.4C105.3,72.8,101.1,77,101.1,82.2z"/>
<path class="st0" d="M128.6,69.8l16.2-5.3c-5.6-10.8-16-18.3-28-20.3v17C121.5,62.6,125.7,65.7,128.6,69.8z"/>
<path class="st0" d="M132.4,82.2c0,4.8-1.6,9.5-4.5,13.3l10,13.8c8.6-8.6,12.5-20.8,10.7-32.9l-16.2,5.3
	C132.4,81.8,132.4,82,132.4,82.2z"/>
<path class="st0" d="M110.5,0h-76c-3.4-0.1-6.4,2.5-6.5,6c-0.1,3.4,2.5,6.4,6,6.5c0.2,0,0.3,0,0.5,0H67c-6.8,4.3-13,9.5-18.3,15.6
	H6.2c-3.4,0.1-6.1,3-6,6.5c0.1,3.3,2.7,5.9,6,6h33.4c-16.4,27.8-14.9,62.7,3.8,89.1H25.7c-3.4,0.1-6.1,3-6,6.5c0.1,3.3,2.7,5.9,6,6
	h28.6c3.9,3.7,8.1,7,12.7,9.8H6.9c-3.4-0.1-6.4,2.5-6.5,6s2.5,6.4,6,6.5c0.2,0,0.3,0,0.5,0h103.6c45.4,0,82.2-36.8,82.2-82.2
	S156,0,110.5,0z M140.9,123.2l-0.4,0.3l-0.4,0.3c-17.7,12.6-41.4,12.6-59.1,0l-0.4-0.3c-0.1-0.1-0.2-0.2-0.4-0.3
	c-22.6-16.8-27.4-48.7-10.7-71.3s48.7-27.4,71.3-10.7s27.4,48.7,10.7,71.3C148.5,116.6,144.9,120.2,140.9,123.2z"/>
<path class="st0" d="M104.3,61.2v-17c-12,2-22.4,9.5-28,20.3l16.2,5.3C95.3,65.7,99.5,62.6,104.3,61.2z"/>
<path class="st0" d="M110.5,104.1c-2.5,0-5-0.4-7.3-1.3l-10,13.8c10.9,5.5,23.7,5.5,34.6,0l-10-13.8
	C115.5,103.7,113,104.1,110.5,104.1z"/>
<path class="st0" d="M88.6,81.7l-16.2-5.3c-1.8,12,2.1,24.2,10.7,32.9l10-13.8c-2.9-3.8-4.5-8.5-4.5-13.3
	C88.6,82,88.6,81.8,88.6,81.7z"/>
<path class="st0" d="M250.8,133.7h-13.6c-2.2,0-3.4-1.1-3.4-3.4V34.1c0-2.2,1.1-3.4,3.4-3.4h38.1c8.3,0,14.8,2.3,19.5,6.9
	s7,11,7,19.4v12.5c0,12-4.7,20-14.2,24v0.6l17.1,35.7c1,2.6,0.1,3.8-2.7,3.8h-13c-1.4,0.1-2.8-0.1-4.2-0.6c-1-0.6-1.7-1.6-2.1-2.7
	l-16-34.6H256c-1.3,0-1.9,0.6-1.9,1.8v32.8C254.2,132.5,253,133.7,250.8,133.7z M255.9,79.4h15.7c3.4,0,5.9-0.7,7.5-2.2
	s2.4-3.8,2.4-7V57.8c0-3.3-0.8-5.7-2.4-7.2s-4.1-2.2-7.5-2.2h-15.7c-0.9-0.1-1.6,0.5-1.8,1.3c0,0.1,0,0.3,0,0.4v27.5
	c-0.1,0.9,0.5,1.6,1.3,1.8C255.6,79.4,255.8,79.4,255.9,79.4z"/>
<path class="st0" d="M342.5,34.1v96.2c0,2.2-1.1,3.4-3.4,3.4h-13.6c-2.2,0-3.4-1.1-3.4-3.4V34.1c0-2.2,1.1-3.4,3.4-3.4h13.6
	C341.4,30.8,342.5,31.9,342.5,34.1z"/>
<path class="st0" d="M364.1,130.3V34.1c0-2.2,1.1-3.4,3.4-3.4H407c8.3,0,14.8,2.3,19.4,6.8s7,11,7,19.3v50.7c0,8.3-2.3,14.7-7,19.3
	c-4.7,4.5-11.1,6.8-19.4,6.8h-39.6C365.2,133.7,364.1,132.5,364.1,130.3z M386.2,116.1h17.4c3.4,0,5.8-0.7,7.3-2.2s2.2-3.9,2.2-7.3
	V57.8c0-3.4-0.7-5.8-2.2-7.3s-3.9-2.2-7.3-2.2h-17.4c-0.9-0.1-1.6,0.5-1.8,1.3c0,0.1,0,0.3,0,0.4v64.2c-0.1,0.9,0.5,1.6,1.3,1.8
	C385.9,116.1,386,116.1,386.2,116.1L386.2,116.1z"/>
<path class="st0" d="M508.2,133.7h-52.3c-2.2,0-3.4-1.1-3.4-3.4V34.1c0-2.2,1.1-3.4,3.4-3.4h52.3c2.1,0,3.2,1.1,3.2,3.4V45
	c0,2.2-1.1,3.4-3.2,3.4h-33.4c-1.3,0-1.9,0.6-1.9,1.8V71c0,1.2,0.6,1.8,1.9,1.8h27.4c2.2,0,3.4,1.1,3.4,3.4v10.9
	c0,2.2-1.1,3.4-3.4,3.4h-27.4c-1.3,0-1.9,0.6-1.9,1.8v22.2c0,1.2,0.6,1.8,1.9,1.8h33.4c2.1,0,3.2,1.1,3.2,3.4v10.9
	C511.4,132.5,510.4,133.7,508.2,133.7z"/>
<path class="st1" d="M540.9,133.7H525c-0.9,0.1-1.7-0.3-2.2-1c-0.4-0.8-0.4-1.7,0-2.5L547.6,81l-24-46.7c-0.4-0.7-0.4-1.7,0-2.4
	c0.5-0.8,1.3-1.2,2.2-1.1h15.4c2.7,0,4.4,1.1,5.3,3.4l15.2,34.4h0.6l15-34.4c0.8-2.1,2.9-3.4,5.1-3.4h15.7c0.9-0.1,1.8,0.4,2.3,1.2
	s0.5,1.7,0.1,2.5L576.2,81l24.8,49c0.5,0.8,0.6,1.8,0.2,2.6c-0.6,0.7-1.5,1.1-2.4,1h-16c-2.1,0.1-4-1.2-4.6-3.2l-15.8-34.5h-0.6
	l-16,34.6C544.9,132.4,543,133.7,540.9,133.7z"/>
<path class="st0" d="M658.3,133.7h-17.9c-8.4,0-14.9-2.2-19.5-6.7s-6.9-10.9-6.9-19.4V56.9c0-8.4,2.3-14.9,6.9-19.4
	s11.1-6.7,19.5-6.7h17.9c8.4,0,14.9,2.2,19.5,6.7s6.9,10.9,6.9,19.4v50.7c0,8.4-2.3,14.9-6.9,19.4
	C673.2,131.5,666.7,133.7,658.3,133.7z M643.6,116.1H655c3.4,0,5.8-0.7,7.3-2.2s2.2-3.9,2.2-7.3V57.8c0-3.4-0.7-5.8-2.2-7.3
	s-3.9-2.2-7.3-2.2h-11.4c-3.4,0-5.8,0.7-7.2,2.2s-2.1,3.9-2.1,7.3v48.8c0,3.4,0.7,5.8,2.1,7.3C637.8,115.3,640.2,116.1,643.6,116.1
	L643.6,116.1z"/>
</svg>
