<svg xmlns="http://www.w3.org/2000/svg" viewBox="0 0 684.72 164.44"><defs><style>.cls-1{fill:#231f20;}.cls-2{fill:#ef3a51;}</style></defs><g id="Layer_2" data-name="Layer 2"><g id="Layer_1-2" data-name="Layer 1"><path class="cls-1" d="M101.1,82.22a9.43,9.43,0,1,0,9.43-9.43A9.44,9.44,0,0,0,101.1,82.22Z"/><path class="cls-1" d="M128.57,69.79l16.17-5.25a38.64,38.64,0,0,0-28-20.33v17A22,22,0,0,1,128.57,69.79Z"/><path class="cls-1" d="M132.45,82.22a21.76,21.76,0,0,1-4.53,13.31l10,13.75a38.46,38.46,0,0,0,10.7-32.87l-16.18,5.26C132.44,81.85,132.45,82,132.45,82.22Z"/><path class="cls-1" d="M110.53,0h-76a6.25,6.25,0,1,0,0,12.49H67A82.84,82.84,0,0,0,48.69,28.1H6.24a6.25,6.25,0,0,0,0,12.49H39.66a82,82,0,0,0,3.77,89.09H25.71a6.25,6.25,0,0,0,0,12.49H54.33A82.74,82.74,0,0,0,67,152H6.89a6.25,6.25,0,1,0,0,12.49H110.53A82.22,82.22,0,0,0,110.53,0Zm30.33,123.2-.35.29-.43.28a50.9,50.9,0,0,1-59.11,0l-.42-.28c-.13-.09-.24-.19-.36-.29a51,51,0,1,1,60.67,0Z"/><path class="cls-1" d="M104.28,61.21v-17a38.64,38.64,0,0,0-28,20.33l16.17,5.25A22,22,0,0,1,104.28,61.21Z"/><path class="cls-1" d="M110.53,104.14a21.83,21.83,0,0,1-7.3-1.26l-10,13.75a38.4,38.4,0,0,0,34.57,0l-10-13.75A21.72,21.72,0,0,1,110.53,104.14Z"/><path class="cls-1" d="M88.62,81.67,72.45,76.41a38.46,38.46,0,0,0,10.7,32.87l10-13.75a21.76,21.76,0,0,1-4.53-13.31C88.61,82,88.62,81.85,88.62,81.67Z"/><path class="cls-1" d="M250.8,133.66H237.2q-3.36,0-3.36-3.36V34.14q0-3.36,3.36-3.36h38.08q12.48,0,19.52,6.88t7,19.36V69.5q0,18.07-14.24,24v.64l17.12,35.68c1,2.56.06,3.84-2.72,3.84H289a9.88,9.88,0,0,1-4.16-.64,4.8,4.8,0,0,1-2.08-2.72l-16-34.56H256.08c-1.28,0-1.92.59-1.92,1.76v32.8Q254.16,133.66,250.8,133.66Zm5.12-54.24H271.6c3.42,0,5.92-.72,7.52-2.16s2.4-3.76,2.4-7V57.82q0-5-2.4-7.2c-1.6-1.49-4.1-2.24-7.52-2.24H255.92a1.56,1.56,0,0,0-1.76,1.76V77.66A1.56,1.56,0,0,0,255.92,79.42Z"/><path class="cls-1" d="M342.48,34.14V130.3q0,3.36-3.36,3.36h-13.6q-3.36,0-3.36-3.36V34.14q0-3.36,3.36-3.36h13.6Q342.48,30.78,342.48,34.14Z"/><path class="cls-1" d="M364.08,130.3V34.14q0-3.36,3.36-3.36H407q12.48,0,19.44,6.8t7,19.28v50.72q0,12.48-7,19.28T407,133.66H367.44Q364.08,133.66,364.08,130.3Zm22.08-14.24H403.6q5.11,0,7.28-2.16t2.16-7.28V57.82q0-5.12-2.16-7.28t-7.28-2.16H386.16a1.56,1.56,0,0,0-1.76,1.76V114.3A1.56,1.56,0,0,0,386.16,116.06Z"/><path class="cls-1" d="M508.24,133.66H455.92q-3.36,0-3.36-3.36V34.14q0-3.36,3.36-3.36h52.32q3.19,0,3.2,3.36V45q0,3.36-3.2,3.36H474.8c-1.28,0-1.92.59-1.92,1.76v20.8c0,1.17.64,1.76,1.92,1.76h27.36q3.36,0,3.36,3.36V86.94q0,3.36-3.36,3.36H474.8c-1.28,0-1.92.59-1.92,1.76V114.3c0,1.17.64,1.76,1.92,1.76h33.44q3.19,0,3.2,3.36V130.3Q511.44,133.66,508.24,133.66Z"/><path class="cls-2" d="M540.88,133.66H525a2.41,2.41,0,0,1-2.24-1,2.53,2.53,0,0,1,0-2.48L547.6,81l-24-46.72a2.39,2.39,0,0,1,0-2.4,2.34,2.34,0,0,1,2.24-1.12H541.2q4,0,5.28,3.36l15.2,34.4h.64l15-34.4a5.33,5.33,0,0,1,5.12-3.36h15.68a2.51,2.51,0,0,1,2.32,1.2,2.45,2.45,0,0,1,.08,2.48L576.24,81,601,130a2.66,2.66,0,0,1,.16,2.64,2.6,2.6,0,0,1-2.4,1h-16a4.64,4.64,0,0,1-4.64-3.2L562.32,95.9h-.64l-16,34.56A4.93,4.93,0,0,1,540.88,133.66Z"/><path class="cls-1" d="M658.32,133.66H640.4q-12.64,0-19.52-6.72T614,107.58V56.86q0-12.64,6.88-19.36t19.52-6.72h17.92q12.63,0,19.52,6.72t6.88,19.36v50.72q0,12.65-6.88,19.36T658.32,133.66Zm-14.72-17.6H655q5.12,0,7.28-2.16t2.16-7.28V57.82q0-5.12-2.16-7.28T655,48.38H643.6q-5.13,0-7.2,2.16t-2.08,7.28v48.8q0,5.11,2.08,7.28T643.6,116.06Z"/></g></g></svg>