<?xml version="1.0" encoding="utf-8"?>
<!-- Generator: Adobe Illustrator 24.2.3, SVG Export Plug-In . SVG Version: 6.00 Build 0)  -->
<svg version="1.1" id="Layer_1" xmlns="http://www.w3.org/2000/svg" xmlns:xlink="http://www.w3.org/1999/xlink" x="0px" y="0px"
	 viewBox="0 0 684.7 164.4" style="enable-background:new 0 0 684.7 164.4;" xml:space="preserve">
<style type="text/css">
	.st0{fill:#FFFFFF;}
	.st1{fill:#FFE400;}
</style>
<g>
	<g>
		<path class="st0" d="M101.1,82.2c0,5.2,4.2,9.4,9.4,9.4c5.2,0,9.4-4.2,9.4-9.4s-4.2-9.4-9.4-9.4S101.1,77,101.1,82.2z"/>
		<path class="st0" d="M128.6,69.8l16.2-5.3c-5.5-10.6-15.8-18.3-28-20.3v17C121.6,62.7,125.8,65.7,128.6,69.8z"/>
		<path class="st0" d="M132.4,82.2c0,5-1.7,9.6-4.5,13.3l10,13.7c6.9-7,11.1-16.5,11.1-27.1c0-2-0.1-3.9-0.4-5.8l-16.2,5.3
			C132.4,81.9,132.4,82,132.4,82.2z"/>
		<path class="st0" d="M110.5,0h-76c-3.4,0-6.2,2.8-6.2,6.2s2.8,6.2,6.2,6.2H67c-6.8,4.3-13,9.6-18.3,15.6H6.2
			c-3.4,0-6.2,2.8-6.2,6.2s2.8,6.2,6.2,6.2h33.4C32.5,52.8,28.3,67,28.3,82.2c0,17.7,5.6,34,15.1,47.5H25.7c-3.4,0-6.2,2.8-6.2,6.2
			c0,3.4,2.8,6.2,6.2,6.2h28.6c3.9,3.7,8.1,6.9,12.7,9.8H6.9c-3.4,0-6.2,2.8-6.2,6.2s2.8,6.2,6.2,6.2h103.6
			c45.3,0,82.2-36.9,82.2-82.2S155.9,0,110.5,0z M140.9,123.2c-0.1,0.1-0.2,0.2-0.4,0.3c-0.1,0.1-0.3,0.2-0.4,0.3
			c-8.3,6-18.5,9.5-29.6,9.5s-21.2-3.5-29.6-9.5c-0.1-0.1-0.3-0.2-0.4-0.3c-0.1-0.1-0.2-0.2-0.4-0.3c-12.5-9.3-20.7-24.2-20.7-41
			c0-28.1,22.9-51,51-51s51,22.9,51,51C161.5,99,153.4,113.9,140.9,123.2z"/>
		<path class="st0" d="M104.3,61.2v-17c-12.2,2-22.5,9.7-28,20.3l16.2,5.3C95.3,65.7,99.4,62.7,104.3,61.2z"/>
		<path class="st0" d="M110.5,104.1c-2.6,0-5-0.4-7.3-1.3l-10,13.7c5.2,2.6,11.1,4.1,17.3,4.1c6.2,0,12.1-1.5,17.3-4.1l-10-13.7
			C115.5,103.7,113.1,104.1,110.5,104.1z"/>
		<path class="st0" d="M88.6,81.7l-16.2-5.3c-0.3,1.9-0.4,3.8-0.4,5.8c0,10.5,4.3,20.1,11.1,27.1l10-13.7c-2.8-3.7-4.5-8.3-4.5-13.3
			C88.6,82,88.6,81.9,88.6,81.7z"/>
	</g>
	<path class="st0" d="M250.8,133.7h-13.6c-2.2,0-3.4-1.1-3.4-3.4V34.1c0-2.2,1.1-3.4,3.4-3.4h38.1c8.3,0,14.8,2.3,19.5,6.9
		c4.7,4.6,7,11,7,19.4v12.5c0,12.1-4.7,20.1-14.2,24v0.6l17.1,35.7c1,2.6,0.1,3.8-2.7,3.8h-13c-1.9,0-3.3-0.2-4.2-0.6
		c-0.9-0.4-1.5-1.3-2.1-2.7l-16-34.6h-10.7c-1.3,0-1.9,0.6-1.9,1.8v32.8C254.2,132.5,253,133.7,250.8,133.7z M255.9,79.4h15.7
		c3.4,0,5.9-0.7,7.5-2.2c1.6-1.4,2.4-3.8,2.4-7V57.8c0-3.3-0.8-5.7-2.4-7.2c-1.6-1.5-4.1-2.2-7.5-2.2h-15.7c-1.2,0-1.8,0.6-1.8,1.8
		v27.5C254.2,78.8,254.7,79.4,255.9,79.4z"/>
	<path class="st0" d="M342.5,34.1v96.2c0,2.2-1.1,3.4-3.4,3.4h-13.6c-2.2,0-3.4-1.1-3.4-3.4V34.1c0-2.2,1.1-3.4,3.4-3.4h13.6
		C341.4,30.8,342.5,31.9,342.5,34.1z"/>
	<path class="st0" d="M364.1,130.3V34.1c0-2.2,1.1-3.4,3.4-3.4H407c8.3,0,14.8,2.3,19.4,6.8c4.6,4.5,7,11,7,19.3v50.7
		c0,8.3-2.3,14.7-7,19.3c-4.6,4.5-11.1,6.8-19.4,6.8h-39.5C365.2,133.7,364.1,132.5,364.1,130.3z M386.2,116.1h17.4
		c3.4,0,5.8-0.7,7.3-2.2c1.4-1.4,2.2-3.9,2.2-7.3V57.8c0-3.4-0.7-5.8-2.2-7.3c-1.4-1.4-3.9-2.2-7.3-2.2h-17.4
		c-1.2,0-1.8,0.6-1.8,1.8v64.2C384.4,115.5,385,116.1,386.2,116.1z"/>
	<path class="st0" d="M508.2,133.7h-52.3c-2.2,0-3.4-1.1-3.4-3.4V34.1c0-2.2,1.1-3.4,3.4-3.4h52.3c2.1,0,3.2,1.1,3.2,3.4V45
		c0,2.2-1.1,3.4-3.2,3.4h-33.4c-1.3,0-1.9,0.6-1.9,1.8v20.8c0,1.2,0.6,1.8,1.9,1.8h27.4c2.2,0,3.4,1.1,3.4,3.4v10.9
		c0,2.2-1.1,3.4-3.4,3.4h-27.4c-1.3,0-1.9,0.6-1.9,1.8v22.2c0,1.2,0.6,1.8,1.9,1.8h33.4c2.1,0,3.2,1.1,3.2,3.4v10.9
		C511.4,132.5,510.4,133.7,508.2,133.7z"/>
	<path class="st1" d="M540.9,133.7H525c-1.1,0-1.8-0.3-2.2-1c-0.4-0.7-0.4-1.5,0-2.5L547.6,81l-24-46.7c-0.4-0.9-0.4-1.7,0-2.4
		c0.4-0.7,1.2-1.1,2.2-1.1h15.4c2.7,0,4.4,1.1,5.3,3.4l15.2,34.4h0.6l15-34.4c1.1-2.2,2.8-3.4,5.1-3.4h15.7c1.1,0,1.8,0.4,2.3,1.2
		c0.5,0.8,0.5,1.6,0.1,2.5L576.2,81l24.8,49c0.5,1.1,0.6,1.9,0.2,2.6c-0.4,0.7-1.2,1-2.4,1h-16c-2.2,0-3.8-1.1-4.6-3.2l-15.8-34.6
		h-0.6l-16,34.6C544.7,132.6,543.1,133.7,540.9,133.7z"/>
	<path class="st0" d="M658.3,133.7h-17.9c-8.4,0-14.9-2.2-19.5-6.7c-4.6-4.5-6.9-10.9-6.9-19.4V56.9c0-8.4,2.3-14.9,6.9-19.4
		c4.6-4.5,11.1-6.7,19.5-6.7h17.9c8.4,0,14.9,2.2,19.5,6.7c4.6,4.5,6.9,10.9,6.9,19.4v50.7c0,8.4-2.3,14.9-6.9,19.4
		C673.3,131.4,666.7,133.7,658.3,133.7z M643.6,116.1H655c3.4,0,5.8-0.7,7.3-2.2s2.2-3.9,2.2-7.3V57.8c0-3.4-0.7-5.8-2.2-7.3
		s-3.9-2.2-7.3-2.2h-11.4c-3.4,0-5.8,0.7-7.2,2.2c-1.4,1.4-2.1,3.9-2.1,7.3v48.8c0,3.4,0.7,5.8,2.1,7.3
		C637.8,115.3,640.2,116.1,643.6,116.1z"/>
</g>
</svg>
